<svg width="24" height="24" viewBox="0 0 24 24" fill="none" xmlns="http://www.w3.org/2000/svg">
<g id="Category/Food and Beverage" clip-path="url(#clip0_1655_3713)">
<path id="Vector" d="M14.8688 12.888L23.0398 5.33702C25.1148 3.55502 23.5188 -0.110977 20.8398 2.3443e-05H3.15783C0.466831 -0.0999766 -1.12817 3.55902 0.990831 5.36502L9.13683 12.894C9.66608 13.3706 10.3068 13.7062 10.9998 13.87V22H6.99983C6.73461 22 6.48026 22.1054 6.29272 22.2929C6.10519 22.4805 5.99983 22.7348 5.99983 23C5.99983 23.2652 6.10519 23.5196 6.29272 23.7071C6.48026 23.8947 6.73461 24 6.99983 24H16.9998C17.265 24 17.5194 23.8947 17.7069 23.7071C17.8945 23.5196 17.9998 23.2652 17.9998 23C17.9998 22.7348 17.8945 22.4805 17.7069 22.2929C17.5194 22.1054 17.265 22 16.9998 22H12.9998V13.869C13.6953 13.7041 14.338 13.3667 14.8688 12.888ZM4.62383 6.00002H15.9998C16.265 6.00002 16.5194 5.89467 16.7069 5.70713C16.8945 5.51959 16.9998 5.26524 16.9998 5.00002C16.9998 4.73481 16.8945 4.48045 16.7069 4.29292C16.5194 4.10538 16.265 4.00002 15.9998 4.00002H2.45983C2.26935 3.85919 2.12897 3.66107 2.05925 3.43468C1.98952 3.20828 1.99413 2.96551 2.07239 2.74192C2.15064 2.51833 2.29844 2.32567 2.49412 2.19217C2.68981 2.05866 2.9231 1.99133 3.15983 2.00002H20.8418C21.0767 2.00041 21.3057 2.07281 21.4981 2.20746C21.6905 2.34211 21.837 2.53252 21.9178 2.75302C22.0005 2.94776 22.0193 3.16372 21.9715 3.36982C21.9237 3.57593 21.8118 3.76156 21.6518 3.90002L13.5168 11.417C13.1065 11.7915 12.5723 12.0012 12.0168 12.006C12.009 12.004 12.0007 12.004 11.9928 12.006C11.4378 12.0047 10.9031 11.7969 10.4928 11.423L4.62383 6.00002Z" fill="#1A1A4D"/>
</g>
<defs>
<clipPath id="clip0_1655_3713">
<rect width="24" height="24" fill="white"/>
</clipPath>
</defs>
</svg>
