<svg width="24" height="24" viewBox="0 0 24 24" fill="none" xmlns="http://www.w3.org/2000/svg">
<g id="food">
<path id="Vector" d="M18.9976 12.0007H16.3824L16.9226 7.66764C17.017 7.22934 17.0126 6.77551 16.9096 6.33914C16.8067 5.90277 16.6078 5.49482 16.3275 5.14492C16.0471 4.79502 15.6923 4.51197 15.2889 4.31633C14.8855 4.12069 14.4436 4.01738 13.9952 4.01391H11.6251C11.7342 3.24254 11.6681 2.00595 12.7597 2.00095H15.9962C16.2615 2.00095 16.516 1.89554 16.7036 1.70792C16.8913 1.52029 16.9967 1.26582 16.9967 1.00048C16.9967 0.735133 16.8913 0.480658 16.7036 0.293032C16.516 0.105407 16.2615 0 15.9962 0H12.7597C12.0284 0.000450141 11.3225 0.267844 10.7744 0.751968C10.2264 1.23609 9.87392 1.90364 9.78325 2.62925L9.61017 4.01391H2.99002C2.55061 4.01862 2.11751 4.11909 1.72091 4.30832C1.32431 4.49755 0.973734 4.77099 0.693624 5.10958C0.413515 5.44816 0.210606 5.84376 0.0990374 6.2688C-0.0125316 6.69383 -0.0300769 7.13808 0.0476241 7.5706L1.56134 19.6343C1.71441 20.8426 2.30262 21.9537 3.21586 22.7596C4.12909 23.5655 5.30474 24.0109 6.5227 24.0124L18.9976 24.0004C19.6545 24.0004 20.305 23.871 20.912 23.6196C21.5189 23.3682 22.0703 22.9998 22.5348 22.5352C22.9994 22.0707 23.3678 21.5193 23.6192 20.9123C23.8706 20.3054 24 19.6549 24 18.998V17.0031C24 16.3462 23.8706 15.6957 23.6192 15.0887C23.3678 14.4818 22.9994 13.9304 22.5348 13.4659C22.0703 13.0013 21.5189 12.6329 20.912 12.3815C20.305 12.1301 19.6545 12.0007 18.9976 12.0007ZM21.9991 17.0031H9.99335C9.99335 16.207 10.3096 15.4436 10.8724 14.8807C11.4353 14.3179 12.1987 14.0016 12.9948 14.0016H18.9976C19.7937 14.0016 20.5571 14.3179 21.12 14.8807C21.6828 15.4436 21.9991 16.207 21.9991 17.0031ZM13.9952 6.01386C14.1533 6.01471 14.309 6.05259 14.4497 6.12447C14.5905 6.19634 14.7125 6.30021 14.8059 6.42774C14.8992 6.55526 14.9614 6.7029 14.9875 6.8588C15.0135 7.01471 15.0026 7.17454 14.9557 7.32548L14.8687 7.9988H11.1269L11.375 6.01186L13.9952 6.01386ZM2.21365 6.38803C2.307 6.27175 2.42515 6.1778 2.55948 6.11306C2.69381 6.04832 2.84091 6.01443 2.99002 6.01386H9.36005L9.11093 7.9988H2.11361L2.01356 7.22843C1.98149 7.08233 1.98283 6.93086 2.01748 6.78535C2.05212 6.63983 2.11918 6.50401 2.21365 6.38803ZM3.54629 19.3862L2.36573 9.99975H14.6185L14.3674 12.0007H12.9948C11.6681 12.0007 10.3957 12.5277 9.45756 13.4659C8.51943 14.404 7.9924 15.6764 7.9924 17.0031C7.95038 18.6379 7.89235 20.7449 9.02889 22.0155H6.5227C5.79145 22.015 5.08551 21.7476 4.53746 21.2635C3.98942 20.7794 3.63696 20.1118 3.54629 19.3862ZM18.9976 22.0055H12.9948C12.1987 22.0055 11.4353 21.6892 10.8724 21.1264C10.3096 20.5635 9.99335 19.8001 9.99335 19.004H13.6951C14.0823 19.1901 16.5715 21.116 16.9967 21.005C17.4129 21.123 19.9281 19.1811 20.2982 19.004H21.9991C21.9991 19.8001 21.6828 20.5635 21.12 21.1264C20.5571 21.6892 19.7937 22.0055 18.9976 22.0055Z" fill="#1A1A4D"/>
</g>
</svg>
