<svg width="24" height="24" viewBox="0 0 24 24" fill="none" xmlns="http://www.w3.org/2000/svg">
<g id="Category/Food and Beverage" clip-path="url(#clip0_1655_3731)">
<path id="Vector" d="M23.1925 11.606C22.6613 10.8967 21.9066 10.3871 21.0502 10.1595C21.4676 8.94609 21.776 7.69789 21.9719 6.42971C22.0359 5.96872 21.992 5.49918 21.8436 5.05804C21.6953 4.6169 21.4467 4.21621 21.1172 3.8875C20.7877 3.5588 20.3864 3.31106 19.9449 3.16379C19.5034 3.01652 19.0338 2.97373 18.573 3.0388C18.447 3.0558 18.0731 3.11078 17.5623 3.20975C17.8786 2.50943 18.0285 1.74539 18.0001 0.977469C17.9959 0.846189 17.9659 0.717023 17.9118 0.597344C17.8577 0.477665 17.7805 0.369818 17.6847 0.27996C17.5889 0.190101 17.4764 0.119992 17.3535 0.0736349C17.2306 0.0272776 17.0998 0.00557996 16.9685 0.0097809C16.8372 0.0139818 16.708 0.0439991 16.5884 0.0981187C16.4687 0.152238 16.3608 0.229401 16.271 0.3252C16.1811 0.420999 16.111 0.533559 16.0646 0.656453C16.0183 0.779347 15.9966 0.910168 16.0008 1.04145C16.0178 1.52436 15.9188 2.00431 15.7119 2.441C15.5673 2.05078 15.3611 1.68627 15.1011 1.36134C14.6592 0.858404 14.0982 0.474282 13.4695 0.244109C12.8408 0.0139351 12.1644 -0.0549442 11.5022 0.04377C10.7762 0.102052 10.0821 0.367862 9.50289 0.809523C8.84805 0.316875 8.05582 0.040801 7.23662 0.0197777C6.19715 -0.0809694 5.1601 0.234278 4.35255 0.896495C3.94251 1.26155 3.61145 1.70659 3.37971 2.20428C3.14798 2.70197 3.02046 3.24178 3.00499 3.79056C2.97756 4.6693 3.2334 5.53356 3.73475 6.25577C3.12485 6.77869 2.65141 7.44223 2.35532 8.18907C2.05923 8.93591 1.9494 9.7436 2.0353 10.5424C1.24471 10.9829 0.628599 11.6807 0.289274 12.5197C-0.050051 13.3587 -0.0921726 14.2886 0.169904 15.1549C0.854691 17.5376 2.12925 19.7092 3.87571 21.4689C5.55117 23.1026 7.80159 24.0123 10.1417 24.002H13.8625C16.2023 24.0125 18.4525 23.1027 20.1275 21.4689C21.8746 19.7096 23.1495 17.5379 23.8343 15.1549C24.0127 14.5544 24.0476 13.9204 23.9362 13.304C23.8247 12.6876 23.57 12.106 23.1925 11.606ZM18.8509 5.01817C19.0056 4.99729 19.163 5.01246 19.3109 5.0625C19.4588 5.11254 19.5931 5.19609 19.7033 5.30662C19.8135 5.41715 19.8967 5.55167 19.9464 5.69967C19.996 5.84767 20.0108 6.00515 19.9895 6.1598C19.7799 7.47256 19.44 8.76118 18.9748 10.0066H16.4147L17.7072 8.71397C17.8893 8.52543 17.9901 8.27291 17.9878 8.0108C17.9855 7.74869 17.8804 7.49795 17.6951 7.31261C17.5097 7.12726 17.259 7.02212 16.9969 7.01985C16.7348 7.01757 16.4822 7.11833 16.2937 7.30043L13.5876 10.0066H12.0391C11.9661 9.48077 12.0162 8.94522 12.1855 8.44212C12.3548 7.93902 12.6387 7.48214 13.0148 7.10749C13.4416 6.67663 15.0781 5.50801 18.8509 5.01817ZM5.00434 3.85754C5.01035 3.58232 5.0724 3.31122 5.1867 3.0608C5.301 2.81037 5.46515 2.58587 5.66913 2.40101C6.08157 2.09615 6.59394 1.95833 7.10367 2.01513C7.34987 2.00501 7.59543 2.04707 7.82423 2.13856C8.05303 2.23004 8.25989 2.36888 8.43124 2.54596C8.56613 2.69668 8.7313 2.81723 8.91597 2.89974C9.10063 2.98226 9.30063 3.02487 9.50289 3.02481C9.70468 3.02381 9.90401 2.9804 10.0879 2.89739C10.2719 2.81438 10.4363 2.69363 10.5705 2.54296C10.7196 2.38525 10.8986 2.2587 11.0969 2.17067C11.2953 2.08263 11.5092 2.03486 11.7262 2.03013C12.0566 1.97127 12.3965 1.99525 12.7154 2.09992C13.0343 2.2046 13.3223 2.3867 13.5536 2.62994C13.8571 3.01845 14.0155 3.5007 14.0014 3.9935C14.0014 4.05847 14.0014 4.20043 14.0014 4.20043C12.6744 4.6783 11.5407 5.57839 10.7745 6.7626C10.1432 6.01532 9.30333 5.47342 8.3623 5.20629C7.42126 4.93915 6.42191 4.95893 5.49219 5.26309C5.16044 4.87154 4.98651 4.37042 5.00434 3.85754ZM4.00467 10.0066C4.00467 9.21116 4.32063 8.44835 4.88306 7.88592C5.44549 7.32349 6.20831 7.00752 7.0037 7.00752C7.79909 7.00752 8.56191 7.32349 9.12433 7.88592C9.68676 8.44835 10.0027 9.21116 10.0027 10.0066H4.00467ZM21.9149 14.5941C21.3176 16.6506 20.2183 18.5263 18.7159 20.0523C17.4169 21.3144 15.6736 22.015 13.8625 22.0027H10.1417C8.33005 22.0145 6.5863 21.3141 5.28625 20.0523C3.78382 18.5263 2.68451 16.6506 2.08728 14.5941C1.99766 14.2914 1.98028 13.9719 2.03653 13.6613C2.09279 13.3507 2.2211 13.0577 2.41118 12.8057C2.59561 12.5569 2.83589 12.3549 3.11267 12.216C3.38945 12.0771 3.69499 12.0051 4.00467 12.0059H19.9995C20.3102 12.0042 20.6169 12.0757 20.8948 12.2146C21.1727 12.3536 21.414 12.5561 21.599 12.8057C21.7877 13.0583 21.9146 13.3517 21.9695 13.6623C22.0243 13.9729 22.0056 14.292 21.9149 14.5941Z" fill="#1A1A4D"/>
</g>
<defs>
<clipPath id="clip0_1655_3731">
<rect width="24" height="24" fill="white"/>
</clipPath>
</defs>
</svg>
