<svg width="328" height="148" viewBox="0 0 328 148" fill="none" xmlns="http://www.w3.org/2000/svg">
<mask id="mask0_1460_3561" style="mask-type:alpha" maskUnits="userSpaceOnUse" x="0" y="0" width="328" height="148">
<path d="M0.5 30C0.5 13.7076 13.7076 0.5 30 0.5H104.235C114.003 0.5 123.072 5.56773 128.192 13.887C135.577 25.889 148.661 33.2 162.753 33.2H164.492C178.585 33.2 191.668 25.889 199.054 13.887C204.173 5.56774 213.242 0.5 223.01 0.5H298C314.292 0.5 327.5 13.7076 327.5 30V118C327.5 134.292 314.292 147.5 298 147.5H227.9C219.419 147.5 212.543 140.624 212.543 132.143C212.543 123.109 205.22 115.786 196.186 115.786H132.066C123.032 115.786 115.709 123.109 115.709 132.143C115.709 140.624 108.833 147.5 100.351 147.5H30C13.7076 147.5 0.5 134.292 0.5 118V30Z" fill="white" stroke="#1A1A4D"/>
</mask>
<g mask="url(#mask0_1460_3561)">
<path d="M0.5 30C0.5 13.7076 13.7076 0.5 30 0.5H104.235C114.003 0.5 123.072 5.56773 128.192 13.887C135.577 25.889 148.661 33.2 162.753 33.2H164.492C178.585 33.2 191.668 25.889 199.054 13.887C204.173 5.56774 213.242 0.5 223.01 0.5H298C314.292 0.5 327.5 13.7076 327.5 30V118C327.5 134.292 314.292 147.5 298 147.5H227.9C219.419 147.5 212.543 140.624 212.543 132.143C212.543 123.109 205.22 115.786 196.186 115.786H132.066C123.032 115.786 115.709 123.109 115.709 132.143C115.709 140.624 108.833 147.5 100.351 147.5H30C13.7076 147.5 0.5 134.292 0.5 118V30Z" fill="white" stroke="#1A1A4D"/>
<path d="M24.8398 109.231C24.9876 108.479 25.0771 107.807 25.1532 107.086C25.2253 106.371 25.2612 105.652 25.2607 104.933C25.2639 104.187 25.1979 103.442 25.0637 102.708C24.9262 101.851 24.5804 101.04 24.0564 100.346C23.7308 99.9421 23.3093 99.6256 22.8298 99.4246C22.5928 99.3271 22.3448 99.2584 22.0912 99.2199C21.8569 99.1874 21.6201 99.177 21.3838 99.1888C20.5035 99.256 19.6656 99.5916 18.9843 100.15C18.3741 100.638 17.8544 101.228 17.4488 101.894C17.0308 102.554 16.745 103.288 16.6072 104.056C16.5193 104.515 16.5564 104.988 16.7147 105.427C16.8248 105.71 17.0182 105.953 17.2698 106.125C17.5099 106.284 17.7879 106.376 18.0756 106.392C18.3716 106.407 18.6657 106.336 18.9217 106.188C19.1416 106.051 19.3282 105.867 19.4678 105.649C19.6924 105.3 19.8446 104.91 19.9155 104.501C20.0432 103.779 20.0432 103.039 19.9155 102.317C19.7851 101.592 19.5046 100.903 19.0918 100.292C18.8772 99.9673 18.587 99.6987 18.2457 99.5091C17.8931 99.3185 17.4864 99.2511 17.0907 99.3178C16.3798 99.4755 15.7364 99.8504 15.2508 100.39C14.3279 101.398 13.5927 102.561 13.0796 103.825C13.6809 102.626 14.4919 101.543 15.4746 100.626C15.932 100.187 16.5157 99.901 17.1444 99.8072C17.4281 99.8019 17.7071 99.8802 17.9461 100.032C18.1851 100.184 18.3734 100.403 18.4874 100.662C18.7703 101.215 18.9334 101.821 18.9664 102.441C19.023 103.055 18.9715 103.674 18.8142 104.27C18.748 104.525 18.6341 104.765 18.4785 104.977C18.4292 105.042 18.3646 105.094 18.2905 105.129C18.2482 105.142 18.2029 105.142 18.1606 105.129C18.1071 105.122 18.0571 105.098 18.0174 105.062C17.9988 105.03 17.9852 104.996 17.9771 104.96C17.9459 104.752 17.9627 104.541 18.0263 104.341C18.3701 103.241 19.0826 102.291 20.0453 101.649C20.4385 101.375 20.9078 101.228 21.3883 101.231C21.4895 101.236 21.5899 101.251 21.6883 101.276C21.7695 101.297 21.8477 101.328 21.9211 101.369C22.0605 101.449 22.1775 101.562 22.2613 101.698C22.4973 102.124 22.6349 102.597 22.6642 103.082C22.7174 103.674 22.7174 104.27 22.6642 104.862C22.6115 105.487 22.5264 106.109 22.409 106.726C22.2926 107.34 22.1449 107.994 21.9613 108.555L24.8398 109.231Z" fill="#24C8BE"/>
<path opacity="0.1" d="M24.8398 109.231C24.9876 108.479 25.0771 107.807 25.1532 107.086C25.2253 106.371 25.2612 105.652 25.2607 104.933C25.2639 104.187 25.1979 103.442 25.0637 102.708C24.9262 101.851 24.5804 101.04 24.0564 100.346C23.7308 99.9421 23.3093 99.6256 22.8298 99.4246C22.5928 99.3271 22.3448 99.2584 22.0912 99.2199C21.8569 99.1874 21.6201 99.177 21.3838 99.1888C20.5035 99.256 19.6656 99.5916 18.9843 100.15C18.3741 100.638 17.8544 101.228 17.4488 101.894C17.0308 102.554 16.745 103.288 16.6072 104.056C16.5193 104.515 16.5564 104.988 16.7147 105.427C16.8248 105.71 17.0182 105.953 17.2698 106.125C17.5099 106.284 17.7879 106.376 18.0756 106.392C18.3716 106.407 18.6657 106.336 18.9217 106.188C19.1416 106.051 19.3282 105.867 19.4678 105.649C19.6924 105.3 19.8446 104.91 19.9155 104.501C20.0432 103.779 20.0432 103.039 19.9155 102.317C19.7851 101.592 19.5046 100.903 19.0918 100.292C18.8772 99.9673 18.587 99.6987 18.2457 99.5091C17.8931 99.3185 17.4864 99.2511 17.0907 99.3178C16.3798 99.4755 15.7364 99.8504 15.2508 100.39C14.3279 101.398 13.5927 102.561 13.0796 103.825C13.6809 102.626 14.4919 101.543 15.4746 100.626C15.932 100.187 16.5157 99.901 17.1444 99.8072C17.4281 99.8019 17.7071 99.8802 17.9461 100.032C18.1851 100.184 18.3734 100.403 18.4874 100.662C18.7703 101.215 18.9334 101.821 18.9664 102.441C19.023 103.055 18.9715 103.674 18.8142 104.27C18.748 104.525 18.6341 104.765 18.4785 104.977C18.4292 105.042 18.3646 105.094 18.2905 105.129C18.2482 105.142 18.2029 105.142 18.1606 105.129C18.1071 105.122 18.0571 105.098 18.0174 105.062C17.9988 105.03 17.9852 104.996 17.9771 104.96C17.9459 104.752 17.9627 104.541 18.0263 104.341C18.3701 103.241 19.0826 102.291 20.0453 101.649C20.4385 101.375 20.9078 101.228 21.3883 101.231C21.4895 101.236 21.5899 101.251 21.6883 101.276C21.7695 101.297 21.8477 101.328 21.9211 101.369C22.0605 101.449 22.1775 101.562 22.2613 101.698C22.4973 102.124 22.6349 102.597 22.6642 103.082C22.7174 103.674 22.7174 104.27 22.6642 104.862C22.6115 105.487 22.5264 106.109 22.409 106.726C22.2926 107.34 22.1449 107.994 21.9613 108.555L24.8398 109.231Z" fill="#1A1A4D"/>
<path d="M27.7407 141.529C29.7015 144.288 29.3031 152.702 30.4894 153.881C31.6757 155.06 43.8568 154.94 44.6805 154.246C45.5042 153.552 45.1282 150.575 46.0235 150.085C46.3996 149.894 27.7407 141.529 27.7407 141.529Z" fill="#24C8BE"/>
<path opacity="0.1" d="M46.0325 150.09C45.8902 150.196 45.7706 150.33 45.6807 150.483C45.5907 150.635 45.5323 150.804 45.5087 150.98C39.8857 150.327 34.3895 148.858 29.1956 146.619C28.9181 144.568 28.5107 142.615 27.7407 141.529C27.7407 141.534 46.3996 149.899 46.0325 150.09Z" fill="#1A1A4D"/>
<path d="M86.1171 141.671C83.6683 145.191 84.9934 152.71 83.8026 153.889C82.6118 155.069 70.4352 154.948 69.616 154.254C68.7968 153.56 69.1683 150.423 68.6849 149.827C68.4297 149.502 86.1171 141.671 86.1171 141.671Z" fill="#24C8BE"/>
<path opacity="0.1" d="M86.1171 141.671C85.2218 142.984 84.8144 144.857 84.6264 146.744C79.6443 148.935 74.365 150.387 68.9579 151.051C68.9647 150.627 68.8712 150.208 68.6849 149.827C68.4297 149.502 86.1171 141.671 86.1171 141.671Z" fill="#1A1A4D"/>
<path d="M56.2484 91.2202C28.8914 91.2202 18.4204 110.281 18.4204 121.436C18.4204 132.444 26.371 151.149 56.2484 151.149C86.1259 151.149 96.0373 135.305 96.0373 121.182C96.0373 107.06 83.8741 91.2202 56.2484 91.2202Z" fill="#24C8BE"/>
<path d="M54.3263 72C38.2468 72 38.2219 94.7263 54.3263 94.7263C70.4307 94.7263 70.4307 72 54.3263 72Z" fill="#F6BB54"/>
<path d="M64.1036 85.4926C63.2472 89.4031 59.986 92.7925 54.3231 92.7925C40.9618 92.7925 40.9804 73.9336 54.3231 73.9336H54.5869C42.0292 74.1618 42.0912 92.0246 54.832 92.0246C60.0295 92.0277 63.1293 89.0392 64.1036 85.4926Z" fill="#E0AB53"/>
<path d="M54.4225 76.4196C54.4755 76.418 54.5283 76.4267 54.5779 76.4454C54.6274 76.464 54.6728 76.4922 54.7114 76.5283C54.7501 76.5644 54.7811 76.6077 54.8029 76.6557C54.8247 76.7037 54.8367 76.7556 54.8383 76.8082V77.425C55.9566 77.4978 57.0318 77.8814 57.9413 78.5322C58.0995 78.6432 58.1864 78.7388 58.1864 78.8961C58.1777 79.0077 58.1254 79.1114 58.0407 79.1851C57.9561 79.2589 57.8458 79.2968 57.7334 79.2909C57.62 79.2948 57.5093 79.2563 57.4231 79.1829C56.6643 78.609 55.7617 78.2527 54.8135 78.1529V82.5877C57.4572 83.0966 58.5712 83.9971 58.5712 85.5484C58.5712 87.223 57.0197 88.4104 54.8476 88.4751V89.7088C54.8386 89.8126 54.7907 89.9093 54.7135 89.9798C54.6362 90.0502 54.5351 90.0893 54.4303 90.0893C54.3254 90.0893 54.2244 90.0502 54.1471 89.9798C54.0698 89.9093 54.0219 89.8126 54.0129 89.7088V88.4566C52.5784 88.3624 51.2098 87.8231 50.1001 86.9146C50.0431 86.8789 49.9958 86.8299 49.9623 86.7718C49.9287 86.7138 49.91 86.6484 49.9077 86.5815C49.9177 86.4738 49.9678 86.3737 50.0481 86.3007C50.1285 86.2277 50.2333 86.1871 50.3421 86.1868C50.4561 86.1828 50.5672 86.2226 50.6524 86.2978C51.598 87.1293 52.7888 87.6345 54.0471 87.7381V83.2384C51.4313 82.7142 50.3639 81.8445 50.3639 80.2623C50.3639 78.6802 51.8936 77.4466 54.016 77.4004V76.8082C54.02 76.7038 54.0646 76.6049 54.1404 76.5325C54.2162 76.46 54.3174 76.4196 54.4225 76.4196ZM54.0409 82.4304V78.1128C52.3528 78.1436 51.2482 79.0627 51.2482 80.2007C51.2389 81.277 51.7943 81.9401 54.0409 82.4304ZM54.8042 83.3957V87.7627C56.5449 87.7288 57.6744 86.8128 57.6744 85.6039C57.6744 84.5183 57.0662 83.8552 54.8042 83.3957Z" fill="#E0AB53"/>
<path d="M66.2852 92.5995C66.2852 92.5995 77.4769 84.0656 89.5953 85.0845C93.7675 85.436 86.8376 94.4282 86.7123 101.44L66.2852 92.5995Z" fill="#24C8BE"/>
<path opacity="0.1" d="M82.0386 98.0051C81.967 98.45 85.8303 100.092 86.2288 99.8427C86.6272 99.5935 87.0301 94.0585 90.1817 88.1675C90.6473 87.2999 82.7862 93.2531 82.0386 98.0051Z" fill="#1A1A4D"/>
<path opacity="0.3" d="M84.4515 119.91C84.8246 119.853 85.1738 119.692 85.4583 119.445C85.7429 119.198 85.9511 118.877 86.0587 118.517C86.0254 118.962 85.8909 119.393 85.6652 119.778C85.4395 120.164 85.1286 120.493 84.7559 120.742C84.7022 120.777 84.7291 120.88 84.8007 120.857C86.9406 120.056 86.7078 117.053 85.9557 115.14C85.9154 115.033 85.8751 114.926 85.8259 114.824C85.3469 113.712 84.5097 112.906 83.4577 113.044C80.0151 113.538 81.2596 120.372 84.4515 119.91Z" fill="#1A1A4D"/>
<path d="M92.7109 110.179C93.2436 111.776 98.1053 110.477 99.3275 111.491C101.257 113.08 100.724 132.808 98.9604 134.397C97.971 135.287 92.4602 134.348 90.9023 135.433C89.3444 136.519 92.7109 110.179 92.7109 110.179Z" fill="#24C8BE"/>
<path opacity="0.1" d="M99.5871 122.464C99.5871 127.269 99.1842 131.162 98.6917 131.162C98.1993 131.162 97.7964 127.269 97.7964 122.464C97.7964 117.658 98.1993 113.765 98.6917 113.765C99.1842 113.765 99.5871 117.645 99.5871 122.464Z" fill="#1A1A4D"/>
<path opacity="0.3" d="M43.0196 97.9161C43.145 97.885 55.6394 94.6191 67.2743 97.1731L68.4338 93.7693C55.4872 90.9306 42.1914 94.4189 41.6318 94.5702L43.0241 97.9161L42.3257 96.2432L43.0196 97.9161Z" fill="#1A1A4D"/>
<path d="M66.4 46C50.3205 46 50.2957 68.7263 66.4 68.7263C82.5044 68.7263 82.5044 46 66.4 46Z" fill="#F6BB54"/>
<path d="M76.1774 59.4926C75.321 63.4031 72.0597 66.7925 66.3968 66.7925C53.0355 66.7925 53.0541 47.9336 66.3968 47.9336H66.6606C54.1029 48.1618 54.165 66.0246 66.9057 66.0246C72.1032 66.0277 75.203 63.0392 76.1774 59.4926Z" fill="#E0AB53"/>
<path d="M66.4963 50.4196C66.5492 50.418 66.602 50.4267 66.6516 50.4454C66.7012 50.464 66.7466 50.4922 66.7852 50.5283C66.8238 50.5644 66.8549 50.6077 66.8766 50.6557C66.8984 50.7037 66.9104 50.7556 66.912 50.8082V51.425C68.0303 51.4978 69.1055 51.8814 70.015 52.5322C70.1733 52.6432 70.2601 52.7388 70.2601 52.8961C70.2514 53.0077 70.1991 53.1114 70.1145 53.1851C70.0298 53.2589 69.9195 53.2968 69.8071 53.2909C69.6937 53.2948 69.583 53.2563 69.4968 53.1829C68.738 52.609 67.8355 52.2527 66.8872 52.1529V56.5877C69.5309 57.0966 70.6449 57.9971 70.6449 59.5484C70.6449 61.223 69.0934 62.4104 66.9214 62.4751V63.7088C66.9123 63.8126 66.8645 63.9093 66.7872 63.9798C66.7099 64.0502 66.6089 64.0893 66.504 64.0893C66.3991 64.0893 66.2981 64.0502 66.2208 63.9798C66.1436 63.9093 66.0957 63.8126 66.0867 63.7088V62.4566C64.6521 62.3624 63.2835 61.8231 62.1738 60.9146C62.1168 60.8789 62.0695 60.8299 62.036 60.7718C62.0025 60.7138 61.9837 60.6484 61.9814 60.5815C61.9915 60.4738 62.0415 60.3737 62.1219 60.3007C62.2022 60.2277 62.307 60.1871 62.4159 60.1868C62.5298 60.1828 62.6409 60.2226 62.7262 60.2978C63.6718 61.1293 64.8626 61.6345 66.1208 61.7381V57.2384C63.505 56.7142 62.4376 55.8445 62.4376 54.2623C62.4376 52.6802 63.9673 51.4466 66.0898 51.4004V50.8082C66.0938 50.7038 66.1384 50.6049 66.2142 50.5325C66.29 50.46 66.3911 50.4196 66.4963 50.4196ZM66.1146 56.4304V52.1128C64.4266 52.1436 63.3219 53.0627 63.3219 54.2007C63.3126 55.277 63.868 55.9401 66.1146 56.4304ZM66.8779 57.3957V61.7627C68.6187 61.7288 69.7482 60.8128 69.7482 59.6039C69.7482 58.5183 69.14 57.8552 66.8779 57.3957Z" fill="#E0AB53"/>
<path d="M37.2223 33C21.1427 33 21.1179 55.7263 37.2223 55.7263C53.3267 55.7263 53.3267 33 37.2223 33Z" fill="#F6BB54"/>
<path d="M46.9996 46.4926C46.1432 50.4031 42.882 53.7925 37.2191 53.7925C23.8578 53.7925 23.8764 34.9336 37.2191 34.9336H37.4829C24.9252 35.1618 24.9872 53.0246 37.728 53.0246C42.9255 53.0277 46.0253 50.0392 46.9996 46.4926Z" fill="#E0AB53"/>
<path d="M37.3185 37.4196C37.3715 37.418 37.4243 37.4267 37.4739 37.4454C37.5234 37.464 37.5688 37.4922 37.6074 37.5283C37.6461 37.5644 37.6771 37.6077 37.6989 37.6557C37.7207 37.7037 37.7327 37.7556 37.7343 37.8082V38.425C38.8526 38.4978 39.9278 38.8814 40.8373 39.5322C40.9955 39.6432 41.0824 39.7388 41.0824 39.8961C41.0737 40.0077 41.0214 40.1114 40.9367 40.1851C40.8521 40.2589 40.7418 40.2968 40.6294 40.2909C40.516 40.2948 40.4053 40.2563 40.3191 40.1829C39.5603 39.609 38.6577 39.2527 37.7095 39.1529V43.5877C40.3532 44.0966 41.4672 44.9971 41.4672 46.5484C41.4672 48.223 39.9157 49.4104 37.7436 49.4751V50.7088C37.7346 50.8126 37.6867 50.9093 37.6095 50.9798C37.5322 51.0502 37.4311 51.0893 37.3263 51.0893C37.2214 51.0893 37.1204 51.0502 37.0431 50.9798C36.9658 50.9093 36.9179 50.8126 36.9089 50.7088V49.4566C35.4744 49.3624 34.1058 48.8231 32.9961 47.9146C32.9391 47.8789 32.8918 47.8299 32.8583 47.7718C32.8247 47.7138 32.806 47.6484 32.8037 47.5815C32.8137 47.4738 32.8638 47.3737 32.9441 47.3007C33.0245 47.2277 33.1293 47.1871 33.2381 47.1868C33.3521 47.1828 33.4632 47.2226 33.5484 47.2978C34.494 48.1293 35.6848 48.6345 36.9431 48.7381V44.2384C34.3273 43.7142 33.2598 42.8445 33.2598 41.2623C33.2598 39.6802 34.7896 38.4466 36.912 38.4004V37.8082C36.916 37.7038 36.9606 37.6049 37.0364 37.5325C37.1122 37.46 37.2133 37.4196 37.3185 37.4196ZM36.9369 43.4304V39.1128C35.2488 39.1436 34.1442 40.0627 34.1442 41.2007C34.1349 42.277 34.6903 42.9401 36.9369 43.4304ZM37.7002 44.3957V48.7627C39.4409 48.7288 40.5704 47.8128 40.5704 46.6039C40.5704 45.5183 39.9622 44.8552 37.7002 44.3957Z" fill="#E0AB53"/>
<path d="M0.5 30C0.5 13.7076 13.7076 0.5 30 0.5H104.235C114.003 0.5 123.072 5.56773 128.192 13.887C135.577 25.889 148.661 33.2 162.753 33.2H164.492C178.585 33.2 191.668 25.889 199.054 13.887C204.173 5.56774 213.242 0.5 223.01 0.5H298C314.292 0.5 327.5 13.7076 327.5 30V118C327.5 134.292 314.292 147.5 298 147.5H227.9C219.419 147.5 212.543 140.624 212.543 132.143C212.543 123.109 205.22 115.786 196.186 115.786H132.066C123.032 115.786 115.709 123.109 115.709 132.143C115.709 140.624 108.833 147.5 100.351 147.5H30C13.7076 147.5 0.5 134.292 0.5 118V30Z" stroke="#1A1A4D"/>
</g>
</svg>
