<svg width="326" height="148" viewBox="0 0 326 148" fill="none" xmlns="http://www.w3.org/2000/svg">
<mask id="mask0_1005_1176" style="mask-type:alpha" maskUnits="userSpaceOnUse" x="0" y="0" width="326" height="148">
<path d="M0.5 30C0.5 13.7076 13.7076 0.5 30 0.5H103.529C113.276 0.5 122.321 5.57069 127.407 13.8859C134.745 25.8836 147.796 33.2 161.86 33.2H163.39C177.454 33.2 190.505 25.8836 197.843 13.8859C202.929 5.57069 211.974 0.5 221.721 0.5H296C312.292 0.5 325.5 13.7076 325.5 30V118C325.5 134.292 312.292 147.5 296 147.5H226.607C218.126 147.5 211.25 140.624 211.25 132.143C211.25 123.109 203.927 115.786 194.893 115.786H131.357C122.323 115.786 115 123.109 115 132.143C115 140.624 108.124 147.5 99.6429 147.5H30C13.7076 147.5 0.5 134.292 0.5 118V30Z" fill="white" fill-opacity="0.4" stroke="#1A1A4D"/>
</mask>
<g mask="url(#mask0_1005_1176)">
<path d="M24.6885 109.231C24.8354 108.479 24.9244 107.807 25 107.086C25.0716 106.371 25.1073 105.652 25.1068 104.933C25.11 104.187 25.0444 103.442 24.911 102.708C24.7743 101.851 24.4307 101.04 23.9099 100.346C23.5863 99.9421 23.1673 99.6256 22.6908 99.4246C22.4552 99.3271 22.2087 99.2584 21.9566 99.2199C21.7238 99.1874 21.4884 99.177 21.2536 99.1888C20.3787 99.256 19.5458 99.5916 18.8687 100.15C18.2622 100.638 17.7457 101.228 17.3426 101.894C16.9271 102.554 16.6431 103.288 16.5061 104.056C16.4187 104.515 16.4556 104.988 16.6129 105.427C16.7224 105.71 16.9146 105.953 17.1646 106.125C17.4033 106.284 17.6796 106.376 17.9655 106.392C18.2598 106.407 18.5521 106.336 18.8065 106.188C19.0251 106.051 19.2105 105.867 19.3493 105.649C19.5725 105.3 19.7238 104.91 19.7942 104.501C19.9212 103.779 19.9212 103.039 19.7942 102.317C19.6646 101.592 19.3858 100.903 18.9755 100.292C18.7623 99.9673 18.4738 99.6987 18.1346 99.5091C17.7842 99.3185 17.3799 99.2511 16.9867 99.3178C16.2801 99.4755 15.6406 99.8504 15.158 100.39C14.2407 101.398 13.51 102.561 13 103.825C13.5977 102.626 14.4037 101.543 15.3804 100.626C15.8351 100.187 16.4152 99.901 17.04 99.8072C17.322 99.8019 17.5993 99.8802 17.8368 100.032C18.0744 100.184 18.2616 100.403 18.3749 100.662C18.656 101.215 18.8182 101.821 18.8509 102.441C18.9072 103.055 18.856 103.674 18.6997 104.27C18.6338 104.525 18.5206 104.765 18.366 104.977C18.317 105.042 18.2528 105.094 18.1791 105.129C18.1371 105.142 18.092 105.142 18.0501 105.129C17.9969 105.122 17.9472 105.098 17.9077 105.062C17.8892 105.03 17.8757 104.996 17.8676 104.96C17.8366 104.752 17.8534 104.541 17.9166 104.341C18.2582 103.241 18.9664 102.291 19.9233 101.649C20.314 101.375 20.7805 101.228 21.2581 101.231C21.3586 101.236 21.4584 101.251 21.5562 101.276C21.6369 101.297 21.7146 101.328 21.7876 101.369C21.9261 101.449 22.0424 101.562 22.1257 101.698C22.3602 102.124 22.497 102.597 22.5261 103.082C22.579 103.674 22.579 104.27 22.5261 104.862C22.4738 105.487 22.3892 106.109 22.2725 106.726C22.1568 107.34 22.01 107.994 21.8276 108.555L24.6885 109.231Z" fill="#24C8BE"/>
<path opacity="0.1" d="M24.6885 109.231C24.8354 108.479 24.9244 107.807 25 107.086C25.0716 106.371 25.1073 105.652 25.1068 104.933C25.11 104.187 25.0444 103.442 24.911 102.708C24.7743 101.851 24.4307 101.04 23.9099 100.346C23.5863 99.9421 23.1673 99.6256 22.6908 99.4246C22.4552 99.3271 22.2087 99.2584 21.9566 99.2199C21.7238 99.1874 21.4884 99.177 21.2536 99.1888C20.3787 99.256 19.5458 99.5916 18.8687 100.15C18.2622 100.638 17.7457 101.228 17.3426 101.894C16.9271 102.554 16.6431 103.288 16.5061 104.056C16.4187 104.515 16.4556 104.988 16.6129 105.427C16.7224 105.71 16.9146 105.953 17.1646 106.125C17.4033 106.284 17.6796 106.376 17.9655 106.392C18.2598 106.407 18.5521 106.336 18.8065 106.188C19.0251 106.051 19.2105 105.867 19.3493 105.649C19.5725 105.3 19.7238 104.91 19.7942 104.501C19.9212 103.779 19.9212 103.039 19.7942 102.317C19.6646 101.592 19.3858 100.903 18.9755 100.292C18.7623 99.9673 18.4738 99.6987 18.1346 99.5091C17.7842 99.3185 17.3799 99.2511 16.9867 99.3178C16.2801 99.4755 15.6406 99.8504 15.158 100.39C14.2407 101.398 13.51 102.561 13 103.825C13.5977 102.626 14.4037 101.543 15.3804 100.626C15.8351 100.187 16.4152 99.901 17.04 99.8072C17.322 99.8019 17.5993 99.8802 17.8368 100.032C18.0744 100.184 18.2616 100.403 18.3749 100.662C18.656 101.215 18.8182 101.821 18.8509 102.441C18.9072 103.055 18.856 103.674 18.6997 104.27C18.6338 104.525 18.5206 104.765 18.366 104.977C18.317 105.042 18.2528 105.094 18.1791 105.129C18.1371 105.142 18.092 105.142 18.0501 105.129C17.9969 105.122 17.9472 105.098 17.9077 105.062C17.8892 105.03 17.8757 104.996 17.8676 104.96C17.8366 104.752 17.8534 104.541 17.9166 104.341C18.2582 103.241 18.9664 102.291 19.9233 101.649C20.314 101.375 20.7805 101.228 21.2581 101.231C21.3586 101.236 21.4584 101.251 21.5562 101.276C21.6369 101.297 21.7146 101.328 21.7876 101.369C21.9261 101.449 22.0424 101.562 22.1257 101.698C22.3602 102.124 22.497 102.597 22.5261 103.082C22.579 103.674 22.579 104.27 22.5261 104.862C22.4738 105.487 22.3892 106.109 22.2725 106.726C22.1568 107.34 22.01 107.994 21.8276 108.555L24.6885 109.231Z" fill="#1A1A4D"/>
<path d="M27.5718 141.529C29.5206 144.288 29.1246 152.702 30.3037 153.881C31.4828 155.06 43.5896 154.94 44.4083 154.246C45.227 153.552 44.8532 150.575 45.7431 150.085C46.1168 149.894 27.5718 141.529 27.5718 141.529Z" fill="#24C8BE"/>
<path opacity="0.1" d="M45.752 150.09C45.6106 150.196 45.4917 150.33 45.4023 150.483C45.3129 150.635 45.2549 150.804 45.2314 150.98C39.6427 150.327 34.18 148.858 29.0178 146.619C28.742 144.568 28.3371 142.615 27.5718 141.529C27.5718 141.534 46.1168 149.899 45.752 150.09Z" fill="#1A1A4D"/>
<path d="M85.5918 141.671C83.158 145.191 84.475 152.71 83.2915 153.889C82.108 155.069 70.0056 154.948 69.1914 154.254C68.3771 153.56 68.7464 150.423 68.2659 149.827C68.0123 149.502 85.5918 141.671 85.5918 141.671Z" fill="#24C8BE"/>
<path opacity="0.1" d="M85.5918 141.671C84.702 142.984 84.2971 144.857 84.1102 146.744C79.1586 148.935 73.9114 150.387 68.5373 151.051C68.544 150.627 68.4511 150.208 68.2659 149.827C68.0123 149.502 85.5918 141.671 85.5918 141.671Z" fill="#1A1A4D"/>
<path d="M55.9055 91.2202C28.7152 91.2202 18.3081 110.281 18.3081 121.436C18.3081 132.444 26.2102 151.149 55.9055 151.149C85.6007 151.149 95.4517 135.305 95.4517 121.182C95.4517 107.06 83.3627 91.2202 55.9055 91.2202Z" fill="#24C8BE"/>
<path d="M53.9954 72C38.0139 72 37.9892 94.7263 53.9954 94.7263C70.0015 94.7263 70.0015 72 53.9954 72Z" fill="#F6BB54"/>
<path d="M63.7134 85.4926C62.8622 89.4031 59.6209 92.7925 53.9925 92.7925C40.7126 92.7925 40.7311 73.9336 53.9925 73.9336H54.2547C41.7736 74.1618 41.8352 92.0246 54.4983 92.0246C59.6641 92.0277 62.745 89.0392 63.7134 85.4926Z" fill="#E0AB53"/>
<path d="M54.0908 76.4196C54.1435 76.418 54.1959 76.4267 54.2452 76.4454C54.2945 76.464 54.3396 76.4922 54.378 76.5283C54.4163 76.5644 54.4472 76.6077 54.4689 76.6557C54.4905 76.7037 54.5025 76.7556 54.5041 76.8082V77.425C55.6155 77.4978 56.6841 77.8814 57.5881 78.5322C57.7454 78.6432 57.8317 78.7388 57.8317 78.8961C57.823 79.0077 57.7711 79.1114 57.687 79.1851C57.6028 79.2589 57.4932 79.2968 57.3815 79.2909C57.2688 79.2948 57.1587 79.2563 57.0731 79.1829C56.3189 78.609 55.4218 78.2527 54.4794 78.1529V82.5877C57.107 83.0966 58.2142 83.9971 58.2142 85.5484C58.2142 87.223 56.6721 88.4104 54.5133 88.4751V89.7088C54.5043 89.8126 54.4568 89.9093 54.38 89.9798C54.3032 90.0502 54.2027 90.0893 54.0985 90.0893C53.9943 90.0893 53.8938 90.0502 53.817 89.9798C53.7402 89.9093 53.6927 89.8126 53.6837 89.7088V88.4566C52.2579 88.3624 50.8977 87.8231 49.7947 86.9146C49.7381 86.8789 49.6911 86.8299 49.6577 86.7718C49.6244 86.7138 49.6058 86.6484 49.6035 86.5815C49.6135 86.4738 49.6633 86.3737 49.7431 86.3007C49.8229 86.2277 49.9271 86.1871 50.0353 86.1868C50.1485 86.1828 50.259 86.2226 50.3437 86.2978C51.2835 87.1293 52.4671 87.6345 53.7176 87.7381V83.2384C51.1178 82.7142 50.0569 81.8445 50.0569 80.2623C50.0569 78.6802 51.5773 77.4466 53.6868 77.4004V76.8082C53.6908 76.7038 53.7351 76.6049 53.8104 76.5325C53.8858 76.46 53.9863 76.4196 54.0908 76.4196ZM53.7115 82.4304V78.1128C52.0337 78.1436 50.9358 79.0627 50.9358 80.2007C50.9266 81.277 51.4786 81.9401 53.7115 82.4304ZM54.4701 83.3957V87.7627C56.2003 87.7288 57.3229 86.8128 57.3229 85.6039C57.3229 84.5183 56.7184 83.8552 54.4701 83.3957Z" fill="#E0AB53"/>
<path d="M65.8809 92.5995C65.8809 92.5995 77.0043 84.0656 89.0488 85.0845C93.1957 85.436 86.308 94.4282 86.1834 101.44L65.8809 92.5995Z" fill="#24C8BE"/>
<path opacity="0.1" d="M81.5386 98.0051C81.4674 98.45 85.3072 100.092 85.7032 99.8427C86.0992 99.5935 86.4996 94.0585 89.632 88.1675C90.0948 87.2999 82.2816 93.2531 81.5386 98.0051Z" fill="#1A1A4D"/>
<path opacity="0.3" d="M83.9368 119.91C84.3077 119.853 84.6547 119.692 84.9375 119.445C85.2203 119.198 85.4272 118.877 85.5341 118.517C85.5011 118.962 85.3674 119.393 85.1431 119.778C84.9188 120.164 84.6097 120.493 84.2394 120.742C84.186 120.777 84.2127 120.88 84.2839 120.857C86.4107 120.056 86.1793 117.053 85.4318 115.14C85.3918 115.033 85.3517 114.926 85.3028 114.824C84.8267 113.712 83.9947 112.906 82.949 113.044C79.5275 113.538 80.7644 120.372 83.9368 119.91Z" fill="#1A1A4D"/>
<path d="M92.1456 110.179C92.6751 111.776 97.5071 110.477 98.7218 111.491C100.64 113.08 100.11 132.808 98.357 134.397C97.3736 135.287 91.8964 134.348 90.3481 135.433C88.7997 136.519 92.1456 110.179 92.1456 110.179Z" fill="#24C8BE"/>
<path opacity="0.1" d="M98.98 122.464C98.98 127.269 98.5795 131.162 98.0901 131.162C97.6006 131.162 97.2002 127.269 97.2002 122.464C97.2002 117.658 97.6006 113.765 98.0901 113.765C98.5795 113.765 98.98 117.645 98.98 122.464Z" fill="#1A1A4D"/>
<path opacity="0.3" d="M42.7577 97.9161C42.8823 97.885 55.3006 94.6191 66.8645 97.1731L68.0169 93.7693C55.1493 90.9306 41.9346 94.4189 41.3784 94.5702L42.7622 97.9161L42.0681 96.2432L42.7577 97.9161Z" fill="#1A1A4D"/>
<path d="M65.9954 46C50.0139 46 49.9892 68.7263 65.9954 68.7263C82.0015 68.7263 82.0015 46 65.9954 46Z" fill="#F6BB54"/>
<path d="M75.7134 59.4926C74.8622 63.4031 71.6209 66.7925 65.9925 66.7925C52.7126 66.7925 52.7311 47.9336 65.9925 47.9336H66.2547C53.7736 48.1618 53.8352 66.0246 66.4983 66.0246C71.6641 66.0277 74.745 63.0392 75.7134 59.4926Z" fill="#E0AB53"/>
<path d="M66.0908 50.4196C66.1435 50.418 66.1959 50.4267 66.2452 50.4454C66.2945 50.464 66.3396 50.4922 66.378 50.5283C66.4163 50.5644 66.4472 50.6077 66.4689 50.6557C66.4905 50.7037 66.5025 50.7556 66.5041 50.8082V51.425C67.6155 51.4978 68.6841 51.8814 69.5881 52.5322C69.7454 52.6432 69.8317 52.7388 69.8317 52.8961C69.823 53.0077 69.7711 53.1114 69.687 53.1851C69.6028 53.2589 69.4932 53.2968 69.3815 53.2909C69.2688 53.2948 69.1587 53.2563 69.0731 53.1829C68.3189 52.609 67.4218 52.2527 66.4794 52.1529V56.5877C69.107 57.0966 70.2142 57.9971 70.2142 59.5484C70.2142 61.223 68.6721 62.4104 66.5133 62.4751V63.7088C66.5043 63.8126 66.4568 63.9093 66.38 63.9798C66.3032 64.0502 66.2027 64.0893 66.0985 64.0893C65.9943 64.0893 65.8938 64.0502 65.817 63.9798C65.7402 63.9093 65.6927 63.8126 65.6837 63.7088V62.4566C64.2579 62.3624 62.8977 61.8231 61.7947 60.9146C61.7381 60.8789 61.6911 60.8299 61.6577 60.7718C61.6244 60.7138 61.6058 60.6484 61.6035 60.5815C61.6135 60.4738 61.6633 60.3737 61.7431 60.3007C61.8229 60.2277 61.9271 60.1871 62.0353 60.1868C62.1485 60.1828 62.259 60.2226 62.3437 60.2978C63.2835 61.1293 64.4671 61.6345 65.7176 61.7381V57.2384C63.1178 56.7142 62.0569 55.8445 62.0569 54.2623C62.0569 52.6802 63.5773 51.4466 65.6868 51.4004V50.8082C65.6908 50.7038 65.7351 50.6049 65.8104 50.5325C65.8858 50.46 65.9863 50.4196 66.0908 50.4196ZM65.7115 56.4304V52.1128C64.0337 52.1436 62.9358 53.0627 62.9358 54.2007C62.9266 55.277 63.4786 55.9401 65.7115 56.4304ZM66.4701 57.3957V61.7627C68.2003 61.7288 69.3229 60.8128 69.3229 59.6039C69.3229 58.5183 68.7184 57.8552 66.4701 57.3957Z" fill="#E0AB53"/>
<path d="M36.9954 33C21.0139 33 20.9892 55.7263 36.9954 55.7263C53.0015 55.7263 53.0015 33 36.9954 33Z" fill="#F6BB54"/>
<path d="M46.7134 46.4926C45.8622 50.4031 42.6209 53.7925 36.9925 53.7925C23.7126 53.7925 23.7311 34.9336 36.9925 34.9336H37.2547C24.7736 35.1618 24.8352 53.0246 37.4983 53.0246C42.6641 53.0277 45.745 50.0392 46.7134 46.4926Z" fill="#E0AB53"/>
<path d="M37.0908 37.4196C37.1435 37.418 37.1959 37.4267 37.2452 37.4454C37.2945 37.464 37.3396 37.4922 37.378 37.5283C37.4163 37.5644 37.4472 37.6077 37.4689 37.6557C37.4905 37.7037 37.5025 37.7556 37.5041 37.8082V38.425C38.6155 38.4978 39.6841 38.8814 40.5881 39.5322C40.7454 39.6432 40.8317 39.7388 40.8317 39.8961C40.823 40.0077 40.7711 40.1114 40.687 40.1851C40.6028 40.2589 40.4932 40.2968 40.3815 40.2909C40.2688 40.2948 40.1587 40.2563 40.0731 40.1829C39.3189 39.609 38.4218 39.2527 37.4794 39.1529V43.5877C40.107 44.0966 41.2142 44.9971 41.2142 46.5484C41.2142 48.223 39.6721 49.4104 37.5133 49.4751V50.7088C37.5043 50.8126 37.4568 50.9093 37.38 50.9798C37.3032 51.0502 37.2027 51.0893 37.0985 51.0893C36.9943 51.0893 36.8938 51.0502 36.817 50.9798C36.7402 50.9093 36.6927 50.8126 36.6837 50.7088V49.4566C35.2579 49.3624 33.8977 48.8231 32.7947 47.9146C32.7381 47.8789 32.6911 47.8299 32.6577 47.7718C32.6244 47.7138 32.6058 47.6484 32.6035 47.5815C32.6135 47.4738 32.6633 47.3737 32.7431 47.3007C32.8229 47.2277 32.9271 47.1871 33.0353 47.1868C33.1485 47.1828 33.259 47.2226 33.3437 47.2978C34.2835 48.1293 35.4671 48.6345 36.7176 48.7381V44.2384C34.1178 43.7142 33.0569 42.8445 33.0569 41.2623C33.0569 39.6802 34.5773 38.4466 36.6868 38.4004V37.8082C36.6908 37.7038 36.7351 37.6049 36.8104 37.5325C36.8858 37.46 36.9863 37.4196 37.0908 37.4196ZM36.7115 43.4304V39.1128C35.0337 39.1436 33.9358 40.0627 33.9358 41.2007C33.9266 42.277 34.4786 42.9401 36.7115 43.4304ZM37.4701 44.3957V48.7627C39.2003 48.7288 40.3229 47.8128 40.3229 46.6039C40.3229 45.5183 39.7184 44.8552 37.4701 44.3957Z" fill="#E0AB53"/>
<path d="M0.5 30C0.5 13.7076 13.7076 0.5 30 0.5H103.529C113.276 0.5 122.321 5.57069 127.407 13.8859C134.745 25.8836 147.796 33.2 161.86 33.2H163.39C177.454 33.2 190.505 25.8836 197.843 13.8859C202.929 5.57069 211.974 0.5 221.721 0.5H296C312.292 0.5 325.5 13.7076 325.5 30V118C325.5 134.292 312.292 147.5 296 147.5H226.607C218.126 147.5 211.25 140.624 211.25 132.143C211.25 123.109 203.927 115.786 194.893 115.786H131.357C122.323 115.786 115 123.109 115 132.143C115 140.624 108.124 147.5 99.6429 147.5H30C13.7076 147.5 0.5 134.292 0.5 118V30Z" stroke="#1A1A4D"/>
</g>
</svg>
