<svg width="16" height="45" viewBox="0 0 16 45" fill="none" xmlns="http://www.w3.org/2000/svg">
<path fill-rule="evenodd" clip-rule="evenodd" d="M-6.01032e-08 1.375L0 -4.37114e-08L1 0L1 1.375L-6.01032e-08 1.375ZM-3.00516e-07 6.875L-1.80309e-07 4.125L1 4.125L1 6.875L-3.00516e-07 6.875ZM-5.40928e-07 12.375L-4.20722e-07 9.625L1 9.625L0.999999 12.375L-5.40928e-07 12.375ZM-7.81341e-07 17.875L-6.61135e-07 15.125L0.999999 15.125L0.999999 17.875L-7.81341e-07 17.875ZM-9.61651e-07 22L-9.01547e-07 20.625L0.999999 20.625L0.999999 22L-9.61651e-07 22Z" fill="#8999A8"/>
<path fill-rule="evenodd" clip-rule="evenodd" d="M1.33333 23H0L0 22H1.33333V23ZM6.66667 23H4V22H6.66667V23ZM12 23H9.33333V22H12V23ZM16 23H14.6667V22H16V23Z" fill="#8999A8"/>
</svg>
