<svg width="16" height="45" viewBox="0 0 16 45" fill="none" xmlns="http://www.w3.org/2000/svg">
<path fill-rule="evenodd" clip-rule="evenodd" d="M-6.14691e-08 1.40625L0 -4.37114e-08L1 0L1 1.40625L-6.14691e-08 1.40625ZM-3.07346e-07 7.03125L-1.84407e-07 4.21875L1 4.21875L1 7.03125L-3.07346e-07 7.03125ZM-5.53222e-07 12.6562L-4.30284e-07 9.84375L1 9.84375L0.999999 12.6562L-5.53222e-07 12.6562ZM-7.99099e-07 18.2812L-6.76161e-07 15.4687L0.999999 15.4688L0.999999 18.2812L-7.99099e-07 18.2812ZM-1.04498e-06 23.9062L-9.22037e-07 21.0937L0.999999 21.0938L0.999999 23.9062L-1.04498e-06 23.9062ZM-1.29085e-06 29.5312L-1.16791e-06 26.7187L0.999999 26.7188L0.999999 29.5312L-1.29085e-06 29.5312ZM-1.53673e-06 35.1562L-1.41379e-06 32.3437L0.999999 32.3438L0.999998 35.1562L-1.53673e-06 35.1562ZM-1.78261e-06 40.7812L-1.65967e-06 37.9687L0.999998 37.9688L0.999998 40.7812L-1.78261e-06 40.7812ZM-1.96701e-06 45L-1.90554e-06 43.5937L0.999998 43.5938L0.999998 45L-1.96701e-06 45Z" fill="#8999A8"/>
<path fill-rule="evenodd" clip-rule="evenodd" d="M1.33333 23H0L0 22H1.33333V23ZM6.66667 23H4V22H6.66667V23ZM12 23H9.33333V22H12V23ZM16 23H14.6667V22H16V23Z" fill="#8999A8"/>
</svg>
