<svg width="259" height="304" viewBox="0 0 259 304" fill="none" xmlns="http://www.w3.org/2000/svg">
<g id="fi-rr-gem" opacity="0.1" clip-path="url(#clip0_12_313)">
<path id="Vector" d="M273.395 150.887L267.622 138.012C263.622 129.092 257.584 121.235 249.994 115.073C242.405 108.911 233.475 104.617 223.923 102.535L107.184 77.3833C97.8184 75.391 88.1203 75.5756 78.8372 77.9228C69.5541 80.27 60.9338 84.7172 53.6406 90.9217L42.7192 100.232C33.8363 107.867 28.1317 118.549 26.7276 130.178C25.3234 141.806 28.3214 153.539 35.1318 163.069L100.818 260.915C106.701 268.979 115.352 274.589 125.114 276.672C135.083 278.8 145.487 277.174 154.332 272.108L253.756 210.639C263.9 204.931 271.541 195.633 275.176 184.575C278.81 173.517 278.175 161.5 273.395 150.887ZM248.249 146.631L254.015 159.536C254.59 160.853 255.052 162.217 255.396 163.613L205.676 152.9C205.996 147.769 205.751 142.618 204.946 137.54L201.882 119.505L219.451 123.29C225.742 124.658 231.624 127.482 236.626 131.536C241.627 135.589 245.608 140.759 248.249 146.631ZM133.873 236.121L119.156 164.861C118.709 161.885 118.537 158.875 118.639 155.867L180.407 169.175C179.481 171.363 178.386 173.476 177.134 175.496L133.873 236.121ZM124.201 135.347C125.036 133.58 125.975 131.864 127.013 130.208L142.749 106.765L179.528 114.689L184.013 141.099C184.389 143.503 184.591 145.931 184.62 148.364L124.201 135.347ZM67.4313 107.054C72.238 102.968 77.9184 100.039 84.035 98.4938C90.1516 96.948 96.5414 96.8265 102.712 98.1386L120.354 101.94L109.401 118.356C106.773 122.244 104.545 126.389 102.75 130.725L53.0618 120.02C54.0896 118.706 55.2481 117.5 56.5194 116.421L67.4313 107.054ZM52.5544 150.903C50.3762 147.864 48.9015 144.379 48.2372 140.699L97.7595 151.369C97.2432 157.108 97.4084 162.889 98.252 168.589L113.28 241.327L52.5544 150.903ZM150.285 249.713L194.691 187.456C197.422 183.129 199.669 178.514 201.391 173.696L251.526 184.498C249.289 187.744 246.358 190.451 242.944 192.422L150.285 249.713Z" fill="#374957"/>
<path id="Vector_2" d="M169.948 69.1868C172.7 69.7798 175.575 69.2552 177.941 67.7283C180.306 66.2014 181.968 63.7974 182.561 61.045L187.033 40.2897C187.626 37.5373 187.101 34.6622 185.574 32.2966C184.048 29.9311 181.644 28.2691 178.891 27.6761C176.139 27.0831 173.264 27.6077 170.898 29.1346C168.533 30.6615 166.871 33.0655 166.278 35.8179L161.806 56.5733C161.213 59.3256 161.737 62.2008 163.264 64.5663C164.791 66.9318 167.195 68.5939 169.948 69.1868Z" fill="#374957"/>
<path id="Vector_3" d="M217.421 78.3277C218.513 79.2077 219.769 79.8624 221.116 80.2541C222.463 80.6457 223.875 80.7665 225.269 80.6094C226.663 80.4523 228.012 80.0205 229.238 79.3389C230.464 78.6573 231.543 77.7394 232.412 76.6383L247.262 58.1188C249.023 55.9206 249.839 53.1128 249.529 50.3131C249.22 47.5135 247.811 44.9513 245.613 43.1903C243.415 41.4293 240.607 40.6136 237.807 40.9228C235.008 41.232 232.446 42.6407 230.685 44.8389L215.835 63.3584C214.953 64.4439 214.294 65.6931 213.896 67.0341C213.498 68.3751 213.369 69.7816 213.516 71.1727C213.663 72.5637 214.084 73.912 214.754 75.1399C215.424 76.3678 216.331 77.4511 217.421 78.3277Z" fill="#374957"/>
<path id="Vector_4" d="M110.009 50.2664C110.707 53.0017 112.463 55.3477 114.891 56.7882C117.318 58.2287 120.219 58.6458 122.954 57.9477C125.69 57.2496 128.036 55.4936 129.476 53.0658C130.917 50.638 131.334 47.7375 130.636 45.0022L124.73 22.0109C124.383 20.6599 123.774 19.3904 122.937 18.2749C122.1 17.1593 121.052 16.2195 119.851 15.5091C117.427 14.0745 114.533 13.6616 111.804 14.3612C109.076 15.0607 106.737 16.8155 105.303 19.2394C103.868 21.6634 103.455 24.5579 104.155 27.2863L110.009 50.2664Z" fill="#374957"/>
</g>
<defs>
<clipPath id="clip0_12_313">
<rect width="254.78" height="254.78" fill="white" transform="translate(54.3596 0.845703) rotate(12.1586)"/>
</clipPath>
</defs>
</svg>
