<svg width="17" height="18" viewBox="0 0 17 18" fill="none" xmlns="http://www.w3.org/2000/svg">
<path fill-rule="evenodd" clip-rule="evenodd" d="M6.48323 13.6797C6.19645 14.0515 5.85683 14.3464 5.46436 14.5645C5.01904 14.8118 4.49951 14.9355 3.90576 14.9355C3.28109 14.9355 2.72445 14.8088 2.23584 14.5552C1.75342 14.3016 1.34521 13.946 1.01123 13.4883C0.683431 13.0306 0.432943 12.4925 0.259766 11.874C0.0865885 11.2555 0 10.5814 0 9.85156V9.65674C0 8.88981 0.0865885 8.19401 0.259766 7.56934C0.432943 6.93848 0.686523 6.3973 1.02051 5.9458C1.35449 5.4943 1.76579 5.14486 2.25439 4.89746C2.743 4.65006 3.29964 4.52637 3.92432 4.52637C4.51188 4.52637 5.02523 4.65006 5.46436 4.89746C5.79584 5.08162 6.08962 5.32403 6.3457 5.62471V3.42236H3.97998V1.771H6.3457V0.5H9.03613V1.771H10.4741V3.42236H9.03613V14.75H6.61475L6.48323 13.6797ZM6.3457 7.70657C6.27974 7.56826 6.20243 7.44211 6.11377 7.32812C5.94678 7.10547 5.73649 6.93229 5.48291 6.80859C5.23551 6.6849 4.94173 6.62305 4.60156 6.62305C4.25521 6.62305 3.95833 6.70345 3.71094 6.86426C3.46354 7.01888 3.26253 7.23226 3.10791 7.50439C2.95947 7.77653 2.84814 8.09814 2.77393 8.46924C2.70589 8.83415 2.67188 9.22998 2.67188 9.65674V9.85156C2.67188 10.266 2.7028 10.6525 2.76465 11.0112C2.83268 11.37 2.94092 11.6885 3.08936 11.9668C3.24398 12.2389 3.44189 12.4523 3.68311 12.6069C3.9305 12.7554 4.23047 12.8296 4.58301 12.8296C5.04069 12.8296 5.41797 12.7275 5.71484 12.5234C5.98328 12.3333 6.19357 12.0799 6.3457 11.7634V7.70657Z" fill="#1A1A4D"/>
<path d="M9 17.5V15.9033H0V17.5H9Z" fill="#1A1A4D"/>
</svg>
