<svg width="330" height="150" viewBox="0 0 330 150" fill="none" xmlns="http://www.w3.org/2000/svg">
<path d="M31 0.5C14.1553 0.5 0.5 14.1553 0.5 31V59.6594C0.5 62.8374 2.17188 65.781 4.90135 67.4087C9.80694 70.3341 10.1709 77.3034 5.59679 80.7239L4.49026 81.5514C1.9788 83.4294 0.5 86.3818 0.5 89.5178V119C0.5 135.845 14.1553 149.5 31 149.5H101.351C110.385 149.5 117.709 142.177 117.709 133.143C117.709 124.661 124.584 117.786 133.066 117.786H197.186C205.667 117.786 212.543 124.661 212.543 133.143C212.543 142.177 219.866 149.5 228.9 149.5H299C315.845 149.5 329.5 135.845 329.5 119V89.5807C329.5 86.4157 327.933 83.4558 325.316 81.6764L324.001 80.7824C319.217 77.5304 319.663 70.3426 324.811 67.7064C327.689 66.2328 329.5 63.2716 329.5 60.0381V31C329.5 14.1553 315.845 0.5 299 0.5H121.233H31Z" fill="white" stroke="#1A1A4D"/>
<g opacity="0.8">
<mask id="mask0_1689_3295" style="mask-type:alpha" maskUnits="userSpaceOnUse" x="1" y="1" width="328" height="148">
<path d="M1.5 31C1.5 14.7076 14.7076 1.5 31 1.5H121.233H299C315.292 1.5 328.5 14.7076 328.5 31V60.0381C328.5 62.8962 326.9 65.5137 324.355 66.8163C318.531 69.7987 318.027 77.9304 323.438 81.6094L324.753 82.5034C327.097 84.0967 328.5 86.7468 328.5 89.5807V119C328.5 135.292 315.292 148.5 299 148.5H228.9C220.419 148.5 213.543 141.624 213.543 133.143C213.543 124.109 206.22 116.786 197.186 116.786H133.066C124.032 116.786 116.709 124.109 116.709 133.143C116.709 141.624 109.833 148.5 101.351 148.5H31C14.7076 148.5 1.5 135.292 1.5 119V89.5178C1.5 86.6971 2.83014 84.0415 5.08913 82.3522L6.19566 81.5248C11.34 77.6779 10.9306 69.8399 5.41354 66.5498C2.98658 65.1025 1.5 62.4852 1.5 59.6594V31Z" fill="white" stroke="#1A1A4D"/>
</mask>
<g mask="url(#mask0_1689_3295)">
<path d="M295.069 41C278.989 41 278.965 63.7263 295.069 63.7263C311.173 63.7263 311.173 41 295.069 41Z" fill="#F6BB54"/>
<path d="M304.846 54.4926C303.99 58.4031 300.729 61.7925 295.066 61.7925C281.704 61.7925 281.723 42.9336 295.066 42.9336H295.33C282.772 43.1618 282.834 61.0246 295.575 61.0246C300.772 61.0277 303.872 58.0392 304.846 54.4926Z" fill="#E0AB53"/>
<path d="M295.165 45.4196C295.218 45.418 295.271 45.4267 295.321 45.4454C295.37 45.464 295.416 45.4922 295.454 45.5283C295.493 45.5644 295.524 45.6077 295.546 45.6557C295.567 45.7037 295.579 45.7556 295.581 45.8082V46.425C296.699 46.4978 297.774 46.8814 298.684 47.5322C298.842 47.6432 298.929 47.7388 298.929 47.8961C298.92 48.0077 298.868 48.1114 298.783 48.1851C298.699 48.2589 298.588 48.2968 298.476 48.2909C298.363 48.2948 298.252 48.2563 298.166 48.1829C297.407 47.609 296.504 47.2527 295.556 47.1529V51.5877C298.2 52.0966 299.314 52.9971 299.314 54.5484C299.314 56.223 297.762 57.4104 295.59 57.4751V58.7088C295.581 58.8126 295.533 58.9093 295.456 58.9798C295.379 59.0502 295.278 59.0893 295.173 59.0893C295.068 59.0893 294.967 59.0502 294.89 58.9798C294.812 58.9093 294.765 58.8126 294.756 58.7088V57.4566C293.321 57.3624 291.952 56.8231 290.843 55.9146C290.786 55.8789 290.738 55.8299 290.705 55.7718C290.671 55.7138 290.653 55.6484 290.65 55.5815C290.66 55.4738 290.71 55.3737 290.791 55.3007C290.871 55.2277 290.976 55.1871 291.085 55.1868C291.199 55.1828 291.31 55.2226 291.395 55.2978C292.341 56.1293 293.532 56.6345 294.79 56.7381V52.2384C292.174 51.7142 291.107 50.8445 291.107 49.2623C291.107 47.6802 292.636 46.4466 294.759 46.4004V45.8082C294.763 45.7038 294.807 45.6049 294.883 45.5325C294.959 45.46 295.06 45.4196 295.165 45.4196ZM294.784 51.4304V47.1128C293.096 47.1436 291.991 48.0627 291.991 49.2007C291.982 50.277 292.537 50.9401 294.784 51.4304ZM295.547 52.3957V56.7627C297.288 56.7288 298.417 55.8128 298.417 54.6039C298.417 53.5183 297.809 52.8552 295.547 52.3957Z" fill="#E0AB53"/>
<path d="M257.069 64C240.989 64 240.965 86.7263 257.069 86.7263C273.173 86.7263 273.173 64 257.069 64Z" fill="#F6BB54"/>
<path d="M266.846 77.4926C265.99 81.4031 262.729 84.7925 257.066 84.7925C243.704 84.7925 243.723 65.9336 257.066 65.9336H257.33C244.772 66.1618 244.834 84.0246 257.575 84.0246C262.772 84.0277 265.872 81.0392 266.846 77.4926Z" fill="#E0AB53"/>
<path d="M257.165 68.4196C257.218 68.418 257.271 68.4267 257.321 68.4454C257.37 68.464 257.416 68.4922 257.454 68.5283C257.493 68.5644 257.524 68.6077 257.546 68.6557C257.567 68.7037 257.579 68.7556 257.581 68.8082V69.425C258.699 69.4978 259.774 69.8814 260.684 70.5322C260.842 70.6432 260.929 70.7388 260.929 70.8961C260.92 71.0077 260.868 71.1114 260.783 71.1851C260.699 71.2589 260.588 71.2968 260.476 71.2909C260.363 71.2948 260.252 71.2563 260.166 71.1829C259.407 70.609 258.504 70.2527 257.556 70.1529V74.5877C260.2 75.0966 261.314 75.9971 261.314 77.5484C261.314 79.223 259.762 80.4104 257.59 80.4751V81.7088C257.581 81.8126 257.533 81.9093 257.456 81.9798C257.379 82.0502 257.278 82.0893 257.173 82.0893C257.068 82.0893 256.967 82.0502 256.89 81.9798C256.812 81.9093 256.765 81.8126 256.756 81.7088V80.4566C255.321 80.3624 253.952 79.8231 252.843 78.9146C252.786 78.8789 252.738 78.8299 252.705 78.7718C252.671 78.7138 252.653 78.6484 252.65 78.5815C252.66 78.4738 252.71 78.3737 252.791 78.3007C252.871 78.2277 252.976 78.1871 253.085 78.1868C253.199 78.1828 253.31 78.2226 253.395 78.2978C254.341 79.1293 255.532 79.6345 256.79 79.7381V75.2384C254.174 74.7142 253.107 73.8445 253.107 72.2623C253.107 70.6802 254.636 69.4466 256.759 69.4004V68.8082C256.763 68.7038 256.807 68.6049 256.883 68.5325C256.959 68.46 257.06 68.4196 257.165 68.4196ZM256.784 74.4304V70.1128C255.096 70.1436 253.991 71.0627 253.991 72.2007C253.982 73.277 254.537 73.9401 256.784 74.4304ZM257.547 75.3957V79.7627C259.288 79.7288 260.417 78.8128 260.417 77.6039C260.417 76.5183 259.809 75.8552 257.547 75.3957Z" fill="#E0AB53"/>
<path d="M249.221 109C218.283 109 218.236 152.726 249.221 152.726C280.207 152.726 280.207 109 249.221 109Z" fill="#F6BB54"/>
<path d="M268.033 134.96C266.385 142.484 260.111 149.006 249.215 149.006C223.507 149.006 223.543 112.72 249.215 112.72H249.723C225.561 113.159 225.681 147.528 250.194 147.528C260.194 147.534 266.159 141.784 268.033 134.96Z" fill="#E0AB53"/>
<path d="M249.406 117.503C249.508 117.5 249.61 117.517 249.705 117.553C249.801 117.589 249.888 117.643 249.962 117.712C250.037 117.782 250.096 117.865 250.138 117.958C250.18 118.05 250.203 118.15 250.206 118.251V119.438C252.358 119.578 254.427 120.316 256.177 121.568C256.481 121.782 256.648 121.966 256.648 122.268C256.631 122.483 256.531 122.682 256.368 122.824C256.205 122.966 255.993 123.039 255.777 123.028C255.558 123.035 255.345 122.961 255.18 122.82C253.72 121.716 251.983 121.03 250.159 120.838V129.371C255.245 130.35 257.389 132.083 257.389 135.067C257.389 138.289 254.403 140.574 250.224 140.699V143.072C250.207 143.272 250.115 143.458 249.966 143.594C249.818 143.729 249.623 143.804 249.421 143.804C249.22 143.804 249.025 143.729 248.876 143.594C248.728 143.458 248.636 143.272 248.618 143.072V140.663C245.858 140.482 243.225 139.444 241.09 137.696C240.98 137.627 240.889 137.533 240.825 137.421C240.76 137.31 240.724 137.184 240.72 137.055C240.739 136.848 240.835 136.655 240.99 136.515C241.144 136.374 241.346 136.296 241.556 136.296C241.775 136.288 241.989 136.365 242.153 136.509C243.972 138.109 246.263 139.081 248.684 139.28V130.623C243.651 129.614 241.597 127.941 241.597 124.897C241.597 121.853 244.541 119.479 248.624 119.39V118.251C248.632 118.05 248.718 117.86 248.864 117.72C249.01 117.581 249.204 117.503 249.406 117.503ZM248.672 129.068V120.761C245.424 120.82 243.299 122.589 243.299 124.778C243.281 126.849 244.35 128.125 248.672 129.068ZM250.141 130.926V139.328C253.49 139.263 255.663 137.5 255.663 135.174C255.663 133.086 254.493 131.81 250.141 130.926Z" fill="#E0AB53"/>
<path d="M293.786 82C272.754 82 272.722 111.726 293.786 111.726C314.851 111.726 314.851 82 293.786 82Z" fill="#F6BB54"/>
<path d="M306.575 99.6486C305.455 104.764 301.189 109.197 293.782 109.197C276.305 109.197 276.33 84.5293 293.782 84.5293H294.127C277.701 84.8278 277.783 108.193 294.448 108.193C301.246 108.197 305.301 104.288 306.575 99.6486Z" fill="#E0AB53"/>
<path d="M293.912 87.7805C293.982 87.7784 294.051 87.7898 294.115 87.8142C294.18 87.8386 294.24 87.8754 294.29 87.9226C294.341 87.9698 294.381 88.0265 294.41 88.0893C294.438 88.1521 294.454 88.2199 294.456 88.2888V89.0956C295.919 89.1908 297.325 89.6926 298.515 90.5438C298.722 90.689 298.835 90.8141 298.835 91.0198C298.824 91.1657 298.756 91.3014 298.645 91.3979C298.534 91.4943 298.39 91.544 298.243 91.5362C298.095 91.5413 297.95 91.4909 297.837 91.395C296.845 90.6442 295.664 90.1782 294.424 90.0476V95.8485C297.882 96.5141 299.339 97.692 299.339 99.7211C299.339 101.912 297.309 103.465 294.468 103.549V105.163C294.457 105.299 294.394 105.425 294.293 105.517C294.192 105.61 294.06 105.661 293.922 105.661C293.785 105.661 293.653 105.61 293.552 105.517C293.451 105.425 293.388 105.299 293.377 105.163V103.525C291.5 103.402 289.71 102.696 288.258 101.508C288.184 101.461 288.122 101.397 288.078 101.321C288.034 101.245 288.01 101.16 288.007 101.072C288.02 100.932 288.085 100.801 288.191 100.705C288.296 100.61 288.433 100.556 288.575 100.556C288.724 100.551 288.869 100.603 288.981 100.701C290.218 101.789 291.775 102.45 293.421 102.585V96.6996C290 96.0139 288.603 94.8763 288.603 92.8068C288.603 90.7374 290.604 89.1238 293.381 89.0633V88.2888C293.386 88.1522 293.444 88.0229 293.543 87.9281C293.642 87.8333 293.775 87.7804 293.912 87.7805ZM293.413 95.6427V89.9952C291.205 90.0355 289.76 91.2376 289.76 92.7262C289.748 94.134 290.475 95.0013 293.413 95.6427ZM294.411 96.9054V102.617C296.688 102.573 298.166 101.375 298.166 99.7937C298.166 98.3737 297.37 97.5064 294.411 96.9054Z" fill="#E0AB53"/>
<path d="M264.821 31C254.401 31 254.385 45.7263 264.821 45.7263C275.256 45.7263 275.256 31 264.821 31Z" fill="#F6BB54"/>
<path d="M271.156 39.743C270.601 42.277 268.488 44.4732 264.819 44.4732C256.161 44.4732 256.173 32.2529 264.819 32.2529H264.989C256.852 32.4008 256.892 43.9756 265.148 43.9756C268.516 43.9776 270.525 42.0411 271.156 39.743Z" fill="#E0AB53"/>
<path d="M264.883 33.8639C264.917 33.8628 264.952 33.8685 264.984 33.8806C265.016 33.8927 265.045 33.9109 265.07 33.9343C265.095 33.9577 265.115 33.9857 265.13 34.0169C265.144 34.048 265.151 34.0816 265.152 34.1157V34.5154C265.877 34.5625 266.574 34.8111 267.163 35.2328C267.266 35.3048 267.322 35.3667 267.322 35.4686C267.316 35.5409 267.282 35.6081 267.228 35.6559C267.173 35.7037 267.101 35.7283 267.028 35.7244C266.955 35.7269 266.883 35.702 266.827 35.6545C266.336 35.2825 265.751 35.0517 265.136 34.987V37.8607C266.849 38.1905 267.571 38.774 267.571 39.7792C267.571 40.8643 266.566 41.6337 265.159 41.6757V42.475C265.153 42.5423 265.122 42.605 265.072 42.6507C265.022 42.6963 264.956 42.7216 264.888 42.7216C264.82 42.7216 264.755 42.6963 264.705 42.6507C264.655 42.605 264.623 42.5423 264.618 42.475V41.6637C263.688 41.6026 262.801 41.2531 262.082 40.6645C262.045 40.6414 262.015 40.6096 261.993 40.572C261.971 40.5344 261.959 40.492 261.958 40.4487C261.964 40.3789 261.996 40.314 262.049 40.2667C262.101 40.2194 262.168 40.1931 262.239 40.1929C262.313 40.1903 262.385 40.216 262.44 40.2648C263.053 40.8036 263.824 41.131 264.64 41.1981V38.2824C262.945 37.9427 262.253 37.3791 262.253 36.3539C262.253 35.3287 263.244 34.5294 264.62 34.4994V34.1157C264.622 34.048 264.651 33.984 264.7 33.937C264.749 33.8901 264.815 33.8638 264.883 33.8639ZM264.636 37.7588V34.961C263.542 34.981 262.826 35.5765 262.826 36.3139C262.82 37.0114 263.18 37.4411 264.636 37.7588ZM265.13 38.3843V41.2141C266.258 41.1921 266.99 40.5985 266.99 39.8152C266.99 39.1117 266.596 38.6821 265.13 38.3843Z" fill="#E0AB53"/>
<path d="M281.069 -10C264.989 -10 264.965 12.7263 281.069 12.7263C297.173 12.7263 297.173 -10 281.069 -10Z" fill="#F6BB54"/>
<path d="M290.846 3.49258C289.99 7.40314 286.729 10.7925 281.066 10.7925C267.704 10.7925 267.723 -8.06641 281.066 -8.06641H281.33C268.772 -7.83819 268.834 10.0246 281.575 10.0246C286.772 10.0277 289.872 7.03922 290.846 3.49258Z" fill="#E0AB53"/>
<path d="M281.165 -5.58037C281.218 -5.58202 281.271 -5.57327 281.321 -5.55463C281.37 -5.53598 281.416 -5.50781 281.454 -5.47172C281.493 -5.43563 281.524 -5.39234 281.546 -5.3443C281.567 -5.29627 281.579 -5.24444 281.581 -5.19178V-4.57497C282.699 -4.50222 283.774 -4.11858 284.684 -3.4678C284.842 -3.35678 284.929 -3.26117 284.929 -3.10389C284.92 -2.99234 284.868 -2.88862 284.783 -2.81486C284.699 -2.7411 284.588 -2.70316 284.476 -2.70913C284.363 -2.70522 284.252 -2.74374 284.166 -2.81707C283.407 -3.39105 282.504 -3.74731 281.556 -3.84714V0.587708C284.2 1.09657 285.314 1.99711 285.314 3.54839C285.314 5.22302 283.762 6.41038 281.59 6.47514V7.70876C281.581 7.8126 281.533 7.9093 281.456 7.97975C281.379 8.05021 281.278 8.0893 281.173 8.0893C281.068 8.0893 280.967 8.05021 280.89 7.97975C280.812 7.9093 280.765 7.8126 280.756 7.70876V6.45664C279.321 6.3624 277.952 5.82305 276.843 4.91462C276.786 4.87892 276.738 4.8299 276.705 4.77184C276.671 4.71378 276.653 4.64845 276.65 4.58154C276.66 4.47383 276.71 4.37369 276.791 4.3007C276.871 4.22771 276.976 4.18709 277.085 4.18678C277.199 4.1828 277.31 4.22255 277.395 4.29781C278.341 5.12926 279.532 5.63449 280.79 5.73806V1.23844C278.174 0.714153 277.107 -0.155546 277.107 -1.73766C277.107 -3.31977 278.636 -4.55339 280.759 -4.59965V-5.19178C280.763 -5.29624 280.807 -5.39508 280.883 -5.46754C280.959 -5.54001 281.06 -5.58045 281.165 -5.58037ZM280.784 0.430423V-3.88723C279.096 -3.85639 277.991 -2.93735 277.991 -1.79934C277.982 -0.723008 278.537 -0.0599389 280.784 0.430423ZM281.547 1.39573V5.76273C283.288 5.7288 284.417 4.81284 284.417 3.6039C284.417 2.51832 283.809 1.85525 281.547 1.39573Z" fill="#E0AB53"/>
</g>
</g>
<rect x="1" y="73" width="4.02454" height="4" rx="2" fill="#1A1A4D"/>
<rect x="324.976" y="73" width="4.02454" height="4" rx="2" fill="#1A1A4D"/>
</svg>
