<svg width="328" height="148" viewBox="0 0 328 148" fill="none" xmlns="http://www.w3.org/2000/svg">
<path d="M0.5 30C0.5 13.7076 13.7076 0.5 30 0.5H120.233H298C314.292 0.5 327.5 13.7076 327.5 30V59.0381C327.5 61.8962 325.9 64.5137 323.355 65.8163C317.531 68.7987 317.027 76.9304 322.438 80.6094L323.753 81.5034C326.097 83.0967 327.5 85.7468 327.5 88.5807V118C327.5 134.292 314.292 147.5 298 147.5H227.9C219.419 147.5 212.543 140.624 212.543 132.143C212.543 123.109 205.22 115.786 196.186 115.786H132.066C123.032 115.786 115.709 123.109 115.709 132.143C115.709 140.624 108.833 147.5 100.351 147.5H30C13.7076 147.5 0.5 134.292 0.5 118V88.5178C0.5 85.6971 1.83014 83.0415 4.08913 81.3522L5.19566 80.5248C10.34 76.6779 9.9306 68.8399 4.41354 65.5498C1.98658 64.1025 0.5 61.4852 0.5 58.6594V30Z" fill="white" stroke="#1A1A4D"/>
<rect y="72" width="4.02454" height="4" rx="2" fill="#1A1A4D"/>
<rect x="323.976" y="72" width="4.02454" height="4" rx="2" fill="#1A1A4D"/>
<line x1="56.3438" y1="73.5" x2="271.657" y2="73.5" stroke="#1A1A4D"/>
</svg>
