<svg width="156" height="138" viewBox="0 0 156 138" fill="none" xmlns="http://www.w3.org/2000/svg">
<rect x="24.6995" y="19.5012" width="39.0001" height="59.8001" fill="#17978F"/>
<rect x="4.11236" y="64.9999" width="35.1001" height="14.2969" fill="#24C8BE"/>
<rect y="79.3009" width="35.1001" height="15.6" fill="#F6BB54"/>
<rect x="42.8999" y="109.2" width="19.5" height="14.3" fill="#F6BB54"/>
<rect x="35.0996" y="109.2" width="7.80001" height="14.3" fill="white"/>
<rect x="35.0996" y="79.3009" width="7.80001" height="15.6" fill="#E0AB53"/>
<rect x="42.8999" y="79.3009" width="19.5" height="15.6" fill="white"/>
<rect x="14.3" y="94.901" width="28.6001" height="14.3" fill="#24C8BE"/>
<rect x="14.3" y="123.5" width="28.6001" height="14.3" fill="#24C8BE"/>
<rect y="109.2" width="35.1001" height="14.3" fill="#F6BB54"/>
<rect x="42.8999" y="123.5" width="40.3001" height="14.3" fill="#E0AB53"/>
<rect x="42.8999" y="94.901" width="40.3001" height="14.3" fill="#E0AB53"/>
<rect x="62.3999" width="93.6002" height="137.8" rx="4" fill="#24C8BE"/>
<rect x="111.8" y="75.3997" width="23.4" height="23.4" rx="4" fill="#17978F"/>
<rect x="111.8" y="104" width="23.4" height="23.4" rx="4" fill="#17978F"/>
<rect x="80.6003" y="104" width="23.4" height="23.4" rx="4" fill="#17978F"/>
<rect x="80.6003" y="75.3997" width="23.4" height="23.4" rx="4" fill="#17978F"/>
<rect x="72.7995" y="10.4008" width="72.8001" height="54.6001" rx="4" fill="white"/>
<path fill-rule="evenodd" clip-rule="evenodd" d="M109.2 17.3247C110.402 17.3247 111.376 18.2989 111.376 19.5007V22.3708C113.375 22.7373 115.107 23.6163 116.442 24.9221C118.235 26.6771 119.176 29.0727 119.176 31.6341C119.176 32.8359 118.202 33.8102 117 33.8102C115.798 33.8102 114.824 32.8359 114.824 31.6341C114.824 30.151 114.291 28.9067 113.398 28.0328C112.509 27.1634 111.129 26.5302 109.2 26.5302C106.967 26.5302 105.632 27.1171 104.86 27.8617C104.099 28.596 103.576 29.7813 103.576 31.6341C103.576 33.4361 104.207 34.3547 104.996 34.9129C105.91 35.5591 107.345 35.9291 109.2 35.9291C111.928 35.9291 114.495 36.3326 116.386 37.8031C118.41 39.3775 119.176 41.77 119.176 44.5763C119.176 47.3827 118.41 49.7752 116.386 51.3496C115.008 52.4209 113.272 52.9258 111.376 53.1211V55.9008C111.376 57.1026 110.402 58.0769 109.2 58.0769C107.998 58.0769 107.024 57.1026 107.024 55.9008V53.0839C105.032 52.8141 103.292 52.1431 101.935 50.9821C100.05 49.3694 99.2236 47.0872 99.2236 44.5763C99.2236 43.3745 100.198 42.4002 101.4 42.4002C102.601 42.4002 103.576 43.3745 103.576 44.5763C103.576 46.1099 104.049 47.0633 104.764 47.6751C105.533 48.3324 106.903 48.8714 109.2 48.8714C111.672 48.8714 113.004 48.4659 113.714 47.9142C114.289 47.4664 114.824 46.6233 114.824 44.5763C114.824 42.5293 114.289 41.6863 113.714 41.2385C113.004 40.6868 111.672 40.2813 109.2 40.2813C106.895 40.2813 104.429 39.8425 102.483 38.4665C100.413 37.0024 99.2236 34.6854 99.2236 31.6341C99.2236 28.9571 100 26.5024 101.839 24.7291C103.203 23.4136 104.978 22.6409 107.024 22.3334V19.5007C107.024 18.2989 107.998 17.3247 109.2 17.3247Z" fill="#17978F"/>
<path fill-rule="evenodd" clip-rule="evenodd" d="M37.3674 39.0003C37.3674 38.0989 38.0981 37.3682 38.9994 37.3682H63.6995C64.6008 37.3682 65.3316 38.0989 65.3316 39.0003C65.3316 39.9017 64.6008 40.6324 63.6995 40.6324H38.9994C38.0981 40.6324 37.3674 39.9017 37.3674 39.0003ZM33.4674 50.7003C33.4674 49.799 34.1981 49.0683 35.0994 49.0683H66.2995C67.2009 49.0683 67.9316 49.799 67.9316 50.7003C67.9316 51.6017 67.2009 52.3324 66.2995 52.3324H35.0994C34.1981 52.3324 33.4674 51.6017 33.4674 50.7003ZM92.2995 80.2683C93.2009 80.2683 93.9316 80.999 93.9316 81.9004V85.4683H97.4995C98.4009 85.4683 99.1316 86.199 99.1316 87.1004C99.1316 88.0018 98.4009 88.7325 97.4995 88.7325H93.9316V92.3004C93.9316 93.2018 93.2009 93.9325 92.2995 93.9325C91.3982 93.9325 90.6675 93.2018 90.6675 92.3004V88.7325H87.0995C86.1982 88.7325 85.4675 88.0018 85.4675 87.1004C85.4675 86.199 86.1982 85.4683 87.0995 85.4683H90.6675V81.9004C90.6675 80.999 91.3982 80.2683 92.2995 80.2683ZM119.746 83.3463C120.383 82.709 121.416 82.709 122.054 83.3463L123.5 84.7923L124.946 83.3463C125.583 82.709 126.616 82.709 127.254 83.3463C127.891 83.9837 127.891 85.0171 127.254 85.6544L125.808 87.1004L127.254 88.5465C127.891 89.1838 127.891 90.2172 127.254 90.8546C126.616 91.4919 125.583 91.4919 124.946 90.8546L123.5 89.4085L122.054 90.8546C121.416 91.4919 120.383 91.4919 119.746 90.8546C119.108 90.2172 119.108 89.1838 119.746 88.5465L121.192 87.1004L119.746 85.6544C119.108 85.0171 119.108 83.9837 119.746 83.3463ZM116.668 111.8C116.668 110.899 117.398 110.168 118.3 110.168H128.7C129.601 110.168 130.332 110.899 130.332 111.8C130.332 112.702 129.601 113.433 128.7 113.433H118.3C117.398 113.433 116.668 112.702 116.668 111.8ZM85.4675 115.7C85.4675 114.799 86.1982 114.068 87.0995 114.068H97.4995C98.4009 114.068 99.1316 114.799 99.1316 115.7C99.1316 116.602 98.4009 117.333 97.4995 117.333H87.0995C86.1982 117.333 85.4675 116.602 85.4675 115.7ZM116.668 119.6C116.668 118.699 117.398 117.968 118.3 117.968H128.7C129.601 117.968 130.332 118.699 130.332 119.6C130.332 120.502 129.601 121.233 128.7 121.233H118.3C117.398 121.233 116.668 120.502 116.668 119.6Z" fill="#24C8BE"/>
</svg>
