<svg width="60" height="60" viewBox="0 0 60 60" fill="none" xmlns="http://www.w3.org/2000/svg">
<g clip-path="url(#clip0_1684_193)">
<path fill-rule="evenodd" clip-rule="evenodd" d="M55.9459 0H4.05405C1.82432 0 0 1.82432 0 4.05405V55.9459C0 58.1757 1.82432 60 4.05405 60H55.9459C58.1757 60 60 58.1757 60 55.9459V4.05405C60 1.82432 58.1757 0 55.9459 0Z" fill="#A50064"/>
<path d="M41.5133 28.1758C46.2768 28.1758 50.1282 24.3244 50.1282 19.5609C50.1282 14.7974 46.2768 10.946 41.5133 10.946C36.7498 10.946 32.8984 14.7974 32.8984 19.5609C32.8984 24.3244 36.7498 28.1758 41.5133 28.1758ZM41.5133 15.892C43.5403 15.892 45.1822 17.5339 45.1822 19.5609C45.1822 21.5879 43.5403 23.2298 41.5133 23.2298C39.4863 23.2298 37.8444 21.5879 37.8444 19.5609C37.8444 17.5339 39.4863 15.892 41.5133 15.892Z" fill="white"/>
<path d="M41.5133 31.9055C36.7498 31.9055 32.8984 35.7569 32.8984 40.5204C32.8984 45.2839 36.7498 49.1352 41.5133 49.1352C46.2768 49.1352 50.1282 45.2839 50.1282 40.5204C50.1282 35.7569 46.2768 31.9055 41.5133 31.9055ZM41.5133 44.1893C39.4863 44.1893 37.8444 42.5474 37.8444 40.5204C37.8444 38.4934 39.4863 36.8515 41.5133 36.8515C43.5403 36.8515 45.1822 38.4934 45.1822 40.5204C45.1822 42.5474 43.5403 44.1893 41.5133 44.1893Z" fill="white"/>
<path d="M23.9595 31.9055C22.5 31.9055 21.1622 32.392 20.0878 33.2028C19.0135 32.392 17.6554 31.9055 16.2162 31.9055C12.6486 31.9055 9.75 34.8042 9.75 38.3717V49.1555H14.6959V38.3109C14.6959 37.5001 15.3446 36.8515 16.1554 36.8515C16.9662 36.8515 17.6149 37.5001 17.6149 38.3109V49.1352H22.5608V38.3109C22.5608 37.5001 23.2095 36.8515 24.0203 36.8515C24.8311 36.8515 25.4797 37.5001 25.4797 38.3109V49.1352H30.4054V38.3515C30.4054 34.8042 27.527 31.9055 23.9595 31.9055Z" fill="white"/>
<path d="M23.9592 10.946C22.4998 10.946 21.1619 11.4325 20.0876 12.2433C19.0133 11.4325 17.6552 10.946 16.216 10.946C12.6281 10.946 9.72949 13.8447 9.72949 17.4123V28.1758H14.6754V17.3515C14.6754 16.5406 15.3241 15.892 16.1349 15.892C16.9457 15.892 17.5944 16.5406 17.5944 17.3515V28.1758H22.5403V17.3515C22.5403 16.5406 23.189 15.892 23.9998 15.892C24.8106 15.892 25.4592 16.5406 25.4592 17.3515V28.1758H30.4052V17.4123C30.4052 13.8447 27.5268 10.946 23.9592 10.946Z" fill="white"/>
</g>
<defs>
<clipPath id="clip0_1684_193">
<rect width="60" height="60" fill="white"/>
</clipPath>
</defs>
</svg>
