<svg width="24" height="24" viewBox="0 0 24 24" fill="none" xmlns="http://www.w3.org/2000/svg">
<path d="M20.2339 6.56739H17.8568C17.5669 5.09114 16.4073 4 15.0159 4C13.6244 4 12.4648 5.09114 12.1749 6.56739H4V7.85108H12.1749C12.4648 9.32733 13.6244 10.4185 15.0159 10.4185C16.4073 10.4185 17.5669 9.32733 17.8568 7.85108H20.2339V6.56739ZM15.0159 9.13478C14.0302 9.13478 13.2765 8.30037 13.2765 7.20924C13.2765 6.1181 14.0302 5.28369 15.0159 5.28369C16.0015 5.28369 16.7552 6.1181 16.7552 7.20924C16.7552 8.30037 16.0015 9.13478 15.0159 9.13478Z" fill="#BFCED6"/>
<path d="M4 16.8369H6.37711C6.667 18.3132 7.82656 19.4043 9.21804 19.4043C10.6095 19.4043 11.7691 18.3132 12.059 16.8369H20.2339V15.5532H12.059C11.7691 14.077 10.6095 12.9859 9.21804 12.9859C7.82656 12.9859 6.667 14.077 6.37711 15.5532H4V16.8369ZM9.21804 14.2695C10.2037 14.2695 10.9574 15.1039 10.9574 16.1951C10.9574 17.2862 10.2037 18.1206 9.21804 18.1206C8.23241 18.1206 7.47869 17.2862 7.47869 16.1951C7.47869 15.1039 8.23241 14.2695 9.21804 14.2695Z" fill="#BFCED6"/>
</svg>
