<svg width="24" height="24" viewBox="0 0 24 24" fill="none" xmlns="http://www.w3.org/2000/svg">
<path fill-rule="evenodd" clip-rule="evenodd" d="M20.1062 1C20.5204 1 20.8562 1.33579 20.8562 1.75V23.0574C20.8562 23.4716 20.5204 23.8074 20.1062 23.8074C19.692 23.8074 19.3562 23.4716 19.3562 23.0574V1.75C19.3562 1.33579 19.692 1 20.1062 1ZM12.4281 8.99023C12.8423 8.99023 13.1781 9.32602 13.1781 9.74023V23.0573C13.1781 23.4715 12.8423 23.8073 12.4281 23.8073C12.0139 23.8073 11.6781 23.4715 11.6781 23.0573V9.74023C11.6781 9.32602 12.0139 8.99023 12.4281 8.99023ZM4.75 16.9805C5.16421 16.9805 5.5 17.3162 5.5 17.7305V23.0573C5.5 23.4715 5.16421 23.8073 4.75 23.8073C4.33579 23.8073 4 23.4715 4 23.0573V17.7305C4 17.3162 4.33579 16.9805 4.75 16.9805Z" fill="#BFCED6"/>
</svg>
