<svg width="24" height="24" viewBox="0 0 24 24" fill="none" xmlns="http://www.w3.org/2000/svg">
<path fill-rule="evenodd" clip-rule="evenodd" d="M3.44352 4.44352C3.01911 4.86794 2.75 5.61568 2.75 6.99999C2.75 6.99999 2.75 7 2.75 6.99999L2.75011 17C2.75011 18.3843 3.01919 19.1321 3.44359 19.5565C3.86797 19.9809 4.61568 20.25 6 20.25H17C18.3822 20.25 19.177 19.9818 19.6401 19.5426C20.0939 19.1123 20.3889 18.364 20.3889 17V15.1457H17.0907C15.1908 15.1446 13.6497 13.6055 13.6485 11.7049C13.6485 9.80351 15.1907 8.26435 17.0903 8.26318H20.3889V7C20.3889 5.63599 20.0939 4.88767 19.6401 4.45738C19.177 4.01817 18.3822 3.75 17 3.75H6C4.61569 3.75 3.86794 4.0191 3.44352 4.44352ZM21.8889 8.99716V7C21.8889 5.46586 21.5635 4.21418 20.6723 3.369C19.7906 2.53275 18.516 2.25 17 2.25H6C4.48616 2.25 3.23391 2.53182 2.38286 3.38286C1.53182 4.23391 1.25 5.48616 1.25 7L1.25011 17C1.25011 18.5138 1.53189 19.7661 2.3829 20.6171C3.23392 21.4682 4.48616 21.75 6 21.75H17C18.516 21.75 19.7906 21.4672 20.6723 20.631C21.5635 19.7858 21.8889 18.5341 21.8889 17V14.4118C21.889 14.4064 21.889 14.4011 21.889 14.3957C21.889 14.3904 21.889 14.385 21.8889 14.3797V9.02921C21.889 9.02388 21.889 9.01854 21.889 9.01318C21.889 9.00783 21.889 9.00249 21.8889 8.99716ZM20.3889 9.76318H17.0912C16.018 9.76384 15.1488 10.6327 15.1485 11.704M20.3889 9.76318V13.6457H17.0912C16.0183 13.6451 15.1492 12.7762 15.1485 11.704M5.78599 7.53809C5.78599 7.12387 6.12178 6.78809 6.53599 6.78809H11.935C12.3492 6.78809 12.685 7.12387 12.685 7.53809C12.685 7.9523 12.3492 8.28809 11.935 8.28809H6.53599C6.12178 8.28809 5.78599 7.9523 5.78599 7.53809ZM16.4872 11.6431C16.4872 11.2289 16.823 10.8931 17.2372 10.8931H17.5492C17.9634 10.8931 18.2992 11.2289 18.2992 11.6431C18.2992 12.0573 17.9634 12.3931 17.5492 12.3931H17.2372C16.823 12.3931 16.4872 12.0573 16.4872 11.6431Z" fill="#BFCED6"/>
</svg>
