<svg width="30" height="30" viewBox="0 0 30 30" fill="none" xmlns="http://www.w3.org/2000/svg">
<path fill-rule="evenodd" clip-rule="evenodd" d="M5.08333 2C4.26558 2 3.48132 2.32485 2.90309 2.90309C2.32485 3.48132 2 4.26558 2 5.08333V9.16667C2 9.71895 1.55228 10.1667 1 10.1667C0.447715 10.1667 0 9.71895 0 9.16667V5.08333C0 3.73515 0.535564 2.44218 1.48887 1.48887C2.44218 0.535564 3.73515 0 5.08333 0H9.16667C9.71895 0 10.1667 0.447715 10.1667 1C10.1667 1.55228 9.71895 2 9.16667 2H5.08333ZM19.8332 1C19.8332 0.447715 20.2809 0 20.8332 0H24.9165C26.2647 0 27.5577 0.535564 28.511 1.48887C29.4643 2.44218 29.9999 3.73515 29.9999 5.08333V9.16667C29.9999 9.71895 29.5521 10.1667 28.9999 10.1667C28.4476 10.1667 27.9999 9.71895 27.9999 9.16667V5.08333C27.9999 4.26558 27.675 3.48132 27.0968 2.90309C26.5185 2.32485 25.7343 2 24.9165 2H20.8332C20.2809 2 19.8332 1.55228 19.8332 1ZM1 19.8334C1.55228 19.8334 2 20.2811 2 20.8334V24.9167C2 25.7345 2.32485 26.5187 2.90309 27.097C3.48132 27.6752 4.26558 28.0001 5.08333 28.0001H9.16667C9.71895 28.0001 10.1667 28.4478 10.1667 29.0001C10.1667 29.5524 9.71895 30.0001 9.16667 30.0001H5.08333C3.73515 30.0001 2.44218 29.4645 1.48887 28.5112C0.535564 27.5579 0 26.2649 0 24.9167V20.8334C0 20.2811 0.447715 19.8334 1 19.8334ZM28.9999 19.8334C29.5521 19.8334 29.9999 20.2811 29.9999 20.8334V24.9167C29.9999 26.2649 29.4643 27.5579 28.511 28.5112C27.5577 29.4645 26.2647 30.0001 24.9165 30.0001H20.8332C20.2809 30.0001 19.8332 29.5524 19.8332 29.0001C19.8332 28.4478 20.2809 28.0001 20.8332 28.0001H24.9165C25.7343 28.0001 26.5185 27.6752 27.0968 27.097C27.675 26.5187 27.9999 25.7345 27.9999 24.9167V20.8334C27.9999 20.2811 28.4476 19.8334 28.9999 19.8334Z" fill="white"/>
</svg>
