<svg width="24" height="24" viewBox="0 0 24 24" fill="none" xmlns="http://www.w3.org/2000/svg">
<path d="M20.5848 11.5258L12.6058 3.39936C12.3464 3.13518 12.0048 2.9922 11.6525 3.00033C11.3001 3.00845 10.9642 3.16704 10.7149 3.44295L3.37659 11.5669L3 11.9838V23.9601H10.0714V16.4875H13.9286V23.9601H21V11.9488L20.5848 11.5258ZM11.6801 4.42337C11.6914 4.42337 11.6844 4.42609 11.6796 4.43138C11.6746 4.42609 11.6688 4.42337 11.6801 4.42337ZM19.7143 22.5368H15.2143V16.4875C15.2143 16.1101 15.0788 15.748 14.8377 15.4811C14.5966 15.2142 14.2696 15.0642 13.9286 15.0642H10.0714C9.73044 15.0642 9.40341 15.2142 9.16229 15.4811C8.92117 15.748 8.78571 16.1101 8.78571 16.4875V22.5368H4.28571V12.5733L11.6801 4.4494C11.6806 4.44886 11.6807 4.44837 11.6811 4.44784L19.7143 12.5733V22.5368Z" fill="#17978F"/>
</svg>
