<svg width="328" height="140" viewBox="0 0 328 140" fill="none" xmlns="http://www.w3.org/2000/svg">
<path d="M0.5 30C0.5 13.7076 13.7076 0.5 30 0.5H97.395C113.066 0.5 125.77 13.2039 125.77 28.875C125.77 34.4669 130.303 39 135.895 39H192.357C197.948 39 202.482 34.4669 202.482 28.875C202.482 13.2039 215.186 0.5 230.857 0.5H298C314.292 0.5 327.5 13.7076 327.5 30V110C327.5 126.292 314.292 139.5 298 139.5H227.043C219.035 139.5 212.543 133.008 212.543 125C212.543 116.44 205.603 109.5 197.043 109.5H131.209C122.648 109.5 115.709 116.44 115.709 125C115.709 133.008 109.217 139.5 101.209 139.5H30C13.7076 139.5 0.5 126.292 0.5 110V30Z" fill="white" stroke="#1A1A4D"/>
</svg>
