<svg width="328" height="148" viewBox="0 0 328 148" fill="none" xmlns="http://www.w3.org/2000/svg">
<mask id="mask0_1460_3560" style="mask-type:alpha" maskUnits="userSpaceOnUse" x="0" y="0" width="328" height="148">
<path d="M0.5 118C0.5 134.292 13.7076 147.5 30 147.5H104.235C114.003 147.5 123.072 142.432 128.192 134.113C135.577 122.111 148.661 114.8 162.753 114.8H164.492C178.585 114.8 191.668 122.111 199.054 134.113C204.173 142.432 213.242 147.5 223.01 147.5H298C314.292 147.5 327.5 134.292 327.5 118V30C327.5 13.7076 314.292 0.5 298 0.5H227.9C219.419 0.5 212.543 7.37563 212.543 15.8571C212.543 24.8909 205.22 32.2143 196.186 32.2143H132.066C123.032 32.2143 115.709 24.8909 115.709 15.8571C115.709 7.37563 108.833 0.5 100.351 0.5H30C13.7076 0.5 0.5 13.7076 0.5 30V118Z" fill="white" stroke="#1A1A4D"/>
</mask>
<g mask="url(#mask0_1460_3560)">
<path d="M0.5 118C0.5 134.292 13.7076 147.5 30 147.5H104.235C114.003 147.5 123.072 142.432 128.192 134.113C135.577 122.111 148.661 114.8 162.753 114.8H164.492C178.585 114.8 191.668 122.111 199.054 134.113C204.173 142.432 213.242 147.5 223.01 147.5H298C314.292 147.5 327.5 134.292 327.5 118V30C327.5 13.7076 314.292 0.5 298 0.5H227.9C219.419 0.5 212.543 7.37563 212.543 15.8571C212.543 24.8909 205.22 32.2143 196.186 32.2143H132.066C123.032 32.2143 115.709 24.8909 115.709 15.8571C115.709 7.37563 108.833 0.5 100.351 0.5H30C13.7076 0.5 0.5 13.7076 0.5 30V118Z" fill="white" stroke="#1A1A4D"/>
<rect x="17.3862" y="74.7271" width="27.4524" height="42.0936" fill="#17978F"/>
<rect x="2.89453" y="106.754" width="24.7071" height="10.0637" fill="#24C8BE"/>
<rect y="116.82" width="24.7071" height="10.9809" fill="#F6BB54"/>
<rect x="30.1973" y="137.867" width="13.7262" height="10.0659" fill="#F6BB54"/>
<rect x="24.707" y="137.867" width="5.49047" height="10.0659" fill="white"/>
<rect x="24.707" y="116.82" width="5.49047" height="10.9809" fill="#E0AB53"/>
<rect x="30.1973" y="116.82" width="13.7262" height="10.9809" fill="white"/>
<rect x="10.0659" y="127.801" width="20.1317" height="10.0659" fill="#24C8BE"/>
<rect x="10.0659" y="147.932" width="20.1317" height="10.0659" fill="#24C8BE"/>
<rect y="137.867" width="24.7071" height="10.0659" fill="#F6BB54"/>
<rect x="30.1973" y="147.932" width="28.3674" height="10.0659" fill="#E0AB53"/>
<rect x="30.1973" y="127.801" width="28.3674" height="10.0659" fill="#E0AB53"/>
<rect x="43.9238" y="61" width="65.8857" height="96.9984" rx="4" fill="#24C8BE"/>
<rect x="78.6968" y="114.074" width="16.4714" height="16.4714" rx="4" fill="#17978F"/>
<rect x="78.6968" y="134.206" width="16.4714" height="16.4714" rx="4" fill="#17978F"/>
<rect x="56.7349" y="134.206" width="16.4714" height="16.4714" rx="4" fill="#17978F"/>
<rect x="56.7349" y="114.074" width="16.4714" height="16.4714" rx="4" fill="#17978F"/>
<rect x="51.2441" y="68.3213" width="51.2444" height="38.4333" rx="4" fill="white"/>
<path fill-rule="evenodd" clip-rule="evenodd" d="M76.8665 73.1948C77.7124 73.1948 78.3982 73.8806 78.3982 74.7266V76.7468C79.8058 77.0048 81.0248 77.6235 81.9641 78.5427C83.2266 79.778 83.8887 81.4643 83.8887 83.2673C83.8887 84.1133 83.2029 84.7991 82.3569 84.7991C81.511 84.7991 80.8252 84.1133 80.8252 83.2673C80.8252 82.2234 80.4502 81.3475 79.8215 80.7323C79.1961 80.1204 78.2242 79.6746 76.8665 79.6746C75.2947 79.6746 74.3555 80.0878 73.812 80.6119C73.2761 81.1288 72.9078 81.9631 72.9078 83.2673C72.9078 84.5358 73.3518 85.1823 73.9075 85.5753C74.5508 86.0301 75.5608 86.2906 76.8665 86.2906C78.7867 86.2906 80.5939 86.5746 81.9247 87.6097C83.3496 88.7179 83.8887 90.4021 83.8887 92.3774C83.8887 94.3528 83.3496 96.0369 81.9247 97.1452C80.9552 97.8992 79.7329 98.2547 78.3982 98.3921V100.349C78.3982 101.195 77.7124 101.881 76.8665 101.881C76.0205 101.881 75.3347 101.195 75.3347 100.349V98.366C73.9329 98.1761 72.7081 97.7037 71.7528 96.8865C70.426 95.7513 69.8442 94.1449 69.8442 92.3774C69.8442 91.5315 70.53 90.8457 71.376 90.8457C72.222 90.8457 72.9078 91.5315 72.9078 92.3774C72.9078 93.4569 73.2411 94.128 73.7444 94.5587C74.2852 95.0214 75.2499 95.4007 76.8665 95.4007C78.6066 95.4007 79.5446 95.1153 80.0439 94.727C80.4492 94.4118 80.8252 93.8183 80.8252 92.3774C80.8252 90.9365 80.4492 90.3431 80.0439 90.0279C79.5446 89.6395 78.6066 89.3541 76.8665 89.3541C75.2439 89.3541 73.5087 89.0452 72.1388 88.0767C70.6813 87.0461 69.8442 85.4152 69.8442 83.2673C69.8442 81.383 70.391 79.6551 71.6853 78.4069C72.6454 77.4809 73.8947 76.937 75.3347 76.7205V74.7266C75.3347 73.8806 76.0205 73.1948 76.8665 73.1948Z" fill="#17978F"/>
<path fill-rule="evenodd" clip-rule="evenodd" d="M26.3033 88.4525C26.3033 87.8181 26.8177 87.3037 27.4522 87.3037H44.8387C45.4731 87.3037 45.9875 87.8181 45.9875 88.4525C45.9875 89.087 45.4731 89.6014 44.8387 89.6014H27.4522C26.8177 89.6014 26.3033 89.087 26.3033 88.4525ZM23.5581 96.6882C23.5581 96.0538 24.0725 95.5394 24.7069 95.5394H46.6688C47.3033 95.5394 47.8176 96.0538 47.8176 96.6882C47.8176 97.3227 47.3033 97.8371 46.6688 97.8371H24.7069C24.0725 97.8371 23.5581 97.3227 23.5581 96.6882ZM64.9704 117.501C65.6049 117.501 66.1192 118.016 66.1192 118.65V121.162H68.6307C69.2652 121.162 69.7795 121.676 69.7795 122.31C69.7795 122.945 69.2652 123.459 68.6307 123.459H66.1192V125.971C66.1192 126.605 65.6049 127.12 64.9704 127.12C64.3359 127.12 63.8216 126.605 63.8216 125.971V123.459H61.3101C60.6756 123.459 60.1613 122.945 60.1613 122.31C60.1613 121.676 60.6756 121.162 61.3101 121.162H63.8216V118.65C63.8216 118.016 64.3359 117.501 64.9704 117.501ZM84.2899 119.668C84.7385 119.219 85.4659 119.219 85.9145 119.668L86.9324 120.686L87.9502 119.668C88.3988 119.219 89.1262 119.219 89.5749 119.668C90.0235 120.117 90.0235 120.844 89.5749 121.293L88.557 122.31L89.5749 123.328C90.0236 123.777 90.0236 124.504 89.5749 124.953C89.1263 125.402 88.3989 125.402 87.9502 124.953L86.9324 123.935L85.9145 124.953C85.4658 125.402 84.7384 125.402 84.2898 124.953C83.8411 124.504 83.8411 123.777 84.2898 123.328L85.3077 122.31L84.2899 121.293C83.8412 120.844 83.8412 120.117 84.2899 119.668ZM82.1231 139.697C82.1231 139.062 82.6375 138.548 83.272 138.548H90.5926C91.2271 138.548 91.7414 139.062 91.7414 139.697C91.7414 140.331 91.2271 140.846 90.5926 140.846H83.272C82.6375 140.846 82.1231 140.331 82.1231 139.697ZM60.1613 142.442C60.1613 141.808 60.6756 141.293 61.3101 141.293H68.6307C69.2652 141.293 69.7795 141.808 69.7795 142.442C69.7795 143.077 69.2652 143.591 68.6307 143.591H61.3101C60.6756 143.591 60.1613 143.077 60.1613 142.442ZM82.1231 145.187C82.1231 144.553 82.6375 144.039 83.272 144.039H90.5926C91.2271 144.039 91.7414 144.553 91.7414 145.187C91.7414 145.822 91.2271 146.336 90.5926 146.336H83.272C82.6375 146.336 82.1231 145.822 82.1231 145.187Z" fill="#24C8BE"/>
<path d="M0.5 118C0.5 134.292 13.7076 147.5 30 147.5H104.235C114.003 147.5 123.072 142.432 128.192 134.113C135.577 122.111 148.661 114.8 162.753 114.8H164.492C178.585 114.8 191.668 122.111 199.054 134.113C204.173 142.432 213.242 147.5 223.01 147.5H298C314.292 147.5 327.5 134.292 327.5 118V30C327.5 13.7076 314.292 0.5 298 0.5H227.9C219.419 0.5 212.543 7.37563 212.543 15.8571C212.543 24.8909 205.22 32.2143 196.186 32.2143H132.066C123.032 32.2143 115.709 24.8909 115.709 15.8571C115.709 7.37563 108.833 0.5 100.351 0.5H30C13.7076 0.5 0.5 13.7076 0.5 30V118Z" stroke="#1A1A4D"/>
</g>
</svg>
