<svg width="24" height="24" viewBox="0 0 24 24" fill="none" xmlns="http://www.w3.org/2000/svg">
<path d="M12.8375 19.0013C12.6881 19.0018 12.5405 18.9688 12.4055 18.9048C12.2705 18.8407 12.1516 18.7473 12.0575 18.6313L7.22749 12.6313C7.08041 12.4523 7 12.2279 7 11.9963C7 11.7646 7.08041 11.5402 7.22749 11.3613L12.2275 5.36125C12.3972 5.15704 12.6411 5.02861 12.9056 5.00423C13.17 4.97985 13.4333 5.06151 13.6375 5.23125C13.8417 5.40099 13.9701 5.6449 13.9945 5.90933C14.0189 6.17375 13.9372 6.43704 13.7675 6.64125L9.29749 12.0013L13.6175 17.3613C13.7398 17.508 13.8174 17.6868 13.8413 17.8763C13.8652 18.0659 13.8343 18.2583 13.7522 18.4308C13.6702 18.6034 13.5404 18.7488 13.3783 18.8499C13.2162 18.9509 13.0285 19.0035 12.8375 19.0013Z" fill="white"/>
</svg>
