<svg width="24" height="24" viewBox="0 0 24 24" fill="none" xmlns="http://www.w3.org/2000/svg">
<g clip-path="url(#clip0_1513_5917)">
<g clip-path="url(#clip1_1513_5917)">
<path fill-rule="evenodd" clip-rule="evenodd" d="M22.3784 0H1.62162C0.72973 0 0 0.72973 0 1.62162V22.3784C0 23.2703 0.72973 24 1.62162 24H22.3784C23.2703 24 24 23.2703 24 22.3784V1.62162C24 0.72973 23.2703 0 22.3784 0Z" fill="#A50064"/>
<path d="M16.6056 11.2703C18.511 11.2703 20.0516 9.72977 20.0516 7.82436C20.0516 5.91896 18.511 4.37842 16.6056 4.37842C14.7002 4.37842 13.1597 5.91896 13.1597 7.82436C13.1597 9.72977 14.7002 11.2703 16.6056 11.2703ZM16.6056 6.3568C17.4164 6.3568 18.0732 7.01355 18.0732 7.82436C18.0732 8.63517 17.4164 9.29193 16.6056 9.29193C15.7948 9.29193 15.138 8.63517 15.138 7.82436C15.138 7.01355 15.7948 6.3568 16.6056 6.3568Z" fill="white"/>
<path d="M16.6056 12.7622C14.7002 12.7622 13.1597 14.3027 13.1597 16.2082C13.1597 18.1136 14.7002 19.6541 16.6056 19.6541C18.511 19.6541 20.0516 18.1136 20.0516 16.2082C20.0516 14.3027 18.511 12.7622 16.6056 12.7622ZM16.6056 17.6757C15.7948 17.6757 15.138 17.019 15.138 16.2082C15.138 15.3973 15.7948 14.7406 16.6056 14.7406C17.4164 14.7406 18.0732 15.3973 18.0732 16.2082C18.0732 17.019 17.4164 17.6757 16.6056 17.6757Z" fill="white"/>
<path d="M9.58417 12.7622C9.00039 12.7622 8.46526 12.9568 8.03553 13.2811C7.6058 12.9568 7.06255 12.7622 6.48688 12.7622C5.05985 12.7622 3.90039 13.9217 3.90039 15.3487V19.6622H5.87877V15.3244C5.87877 15 6.13823 14.7406 6.46255 14.7406C6.78688 14.7406 7.04634 15 7.04634 15.3244V19.6541H9.02471V15.3244C9.02471 15 9.28417 14.7406 9.6085 14.7406C9.93282 14.7406 10.1923 15 10.1923 15.3244V19.6541H12.1626V15.3406C12.1626 13.9217 11.0112 12.7622 9.58417 12.7622Z" fill="white"/>
<path d="M9.58398 4.37842C9.0002 4.37842 8.46506 4.57301 8.03533 4.89734C7.6056 4.57301 7.06236 4.37842 6.48668 4.37842C5.05155 4.37842 3.89209 5.53788 3.89209 6.9649V11.2703H5.87047V6.94058C5.87047 6.61626 6.12993 6.3568 6.45425 6.3568C6.77858 6.3568 7.03804 6.61626 7.03804 6.94058V11.2703H9.01641V6.94058C9.01641 6.61626 9.27587 6.3568 9.6002 6.3568C9.92452 6.3568 10.184 6.61626 10.184 6.94058V11.2703H12.1624V6.9649C12.1624 5.53788 11.011 4.37842 9.58398 4.37842Z" fill="white"/>
</g>
</g>
<defs>
<clipPath id="clip0_1513_5917">
<rect width="24" height="24" rx="12" fill="white"/>
</clipPath>
<clipPath id="clip1_1513_5917">
<rect width="24" height="24" fill="white"/>
</clipPath>
</defs>
</svg>
