<svg width="24" height="24" viewBox="0 0 24 24" fill="none" xmlns="http://www.w3.org/2000/svg">
<g id="Category/Food and Beverage" clip-path="url(#clip0_1655_3695)">
<path id="Vector" d="M23.9996 14.006C23.9984 13.5866 23.9087 13.1722 23.7364 12.7898C23.5641 12.4074 23.313 12.0657 22.9996 11.787V10C22.9967 7.34873 21.9422 4.80688 20.0674 2.93215C18.1927 1.05742 15.6509 0.0029116 12.9996 0L10.9996 0C8.34833 0.0029116 5.80648 1.05742 3.93175 2.93215C2.05701 4.80688 1.00251 7.34873 0.999598 10V11.837C0.688863 12.1302 0.441304 12.4839 0.272103 12.8762C0.102902 13.2685 0.015625 13.6912 0.015625 14.1185C0.015625 14.5458 0.102902 14.9685 0.272103 15.3608C0.441304 15.7531 0.688863 16.1068 0.999598 16.4V17C1.00172 18.8559 1.73989 20.6351 3.05219 21.9474C4.36448 23.2597 6.14373 23.9979 7.9996 24H15.9996C17.8555 23.9979 19.6347 23.2597 20.947 21.9474C22.2593 20.6351 22.9975 18.8559 22.9996 17V16.226C23.3131 15.9472 23.5643 15.6053 23.7366 15.2228C23.9089 14.8402 23.9985 14.4256 23.9996 14.006ZM2.8116 15.158C2.56226 15.0824 2.34786 14.9207 2.2066 14.7017C2.06534 14.4828 2.00638 14.2208 2.04024 13.9624C2.07409 13.7041 2.19856 13.4661 2.39146 13.291C2.58437 13.1158 2.83319 13.0148 3.0936 13.006H20.9996C21.2648 13.006 21.5192 13.1114 21.7067 13.2989C21.8942 13.4864 21.9996 13.7408 21.9996 14.006C21.9996 14.2712 21.8942 14.5256 21.7067 14.7131C21.5192 14.9006 21.2648 15.006 20.9996 15.006H16.9996C15.0436 15.006 13.0206 15.794 10.6356 17.487C10.1554 17.8205 9.58474 17.9993 9.0001 17.9993C8.41545 17.9993 7.84478 17.8205 7.3646 17.487C7.1366 17.325 6.9176 17.156 6.6976 16.987C5.60826 16.0115 4.25753 15.3758 2.8116 15.158ZM2.9996 10C3.00198 7.879 3.8456 5.84555 5.34537 4.34578C6.84515 2.846 8.8786 2.00238 10.9996 2H12.9996C15.1206 2.00238 17.154 2.846 18.6538 4.34578C20.1536 5.84555 20.9972 7.879 20.9996 10V11.006L2.9996 11.016V10ZM15.9996 22H7.9996C6.71878 21.9966 5.48823 21.5012 4.56231 20.6162C3.63639 19.7313 3.08589 18.5244 3.0246 17.245C3.93226 17.4965 4.77123 17.9501 5.4786 18.572C5.7176 18.757 5.9576 18.941 6.2076 19.118C7.02726 19.6875 8.00149 19.9928 8.9996 19.9928C9.9977 19.9928 10.9719 19.6875 11.7916 19.118C13.2711 17.8985 15.0886 17.1615 16.9996 17.006H20.9996C20.998 18.331 20.4705 19.6013 19.533 20.5377C18.5955 21.474 17.3246 22 15.9996 22ZM8.9996 5C8.9996 4.73478 9.10495 4.48043 9.29249 4.29289C9.48003 4.10536 9.73438 4 9.9996 4C10.2648 4 10.5192 4.10536 10.7067 4.29289C10.8942 4.48043 10.9996 4.73478 10.9996 5C10.9996 5.26522 10.8942 5.51957 10.7067 5.70711C10.5192 5.89464 10.2648 6 9.9996 6C9.73438 6 9.48003 5.89464 9.29249 5.70711C9.10495 5.51957 8.9996 5.26522 8.9996 5ZM5.9996 8C5.9996 7.73478 6.10495 7.48043 6.29249 7.29289C6.48003 7.10536 6.73438 7 6.9996 7C7.26481 7 7.51917 7.10536 7.7067 7.29289C7.89424 7.48043 7.9996 7.73478 7.9996 8C7.9996 8.26522 7.89424 8.51957 7.7067 8.70711C7.51917 8.89464 7.26481 9 6.9996 9C6.73438 9 6.48003 8.89464 6.29249 8.70711C6.10495 8.51957 5.9996 8.26522 5.9996 8Z" fill="#1A1A4D"/>
</g>
<defs>
<clipPath id="clip0_1655_3695">
<rect width="24" height="24" fill="white"/>
</clipPath>
</defs>
</svg>
