<svg width="24" height="24" viewBox="0 0 24 24" fill="none" xmlns="http://www.w3.org/2000/svg">
<g id="Category/Food and Beverage" clip-path="url(#clip0_1655_3719)">
<path id="Vector" d="M20 10H19.885C20.0237 9.54329 20.0551 9.06071 19.9768 8.58987C19.8984 8.11903 19.7123 7.67265 19.4331 7.28552C19.1539 6.89839 18.789 6.58097 18.367 6.35799C17.945 6.13501 17.4772 6.0125 17 6H3C-2.451 6.372 1 14.651 2.411 16.912C3.04376 17.8705 3.90652 18.6553 4.92053 19.1947C5.93454 19.7341 7.0675 20.011 8.216 20H11.783C12.9129 20.0103 14.028 19.742 15.0295 19.2187C16.031 18.6955 16.8881 17.9334 17.525 17H20C24.814 16.907 25.759 9.822 20 10ZM11.783 18H8.216C7.40018 18.011 6.59462 17.8173 5.87296 17.4367C5.15131 17.056 4.53658 16.5005 4.085 15.821C3.541 15.3 0.494 8 3 8H17C17.1376 7.99955 17.2737 8.02829 17.3994 8.08431C17.525 8.14033 17.6374 8.22237 17.729 8.325C17.8265 8.43239 17.9001 8.55919 17.9451 8.69707C17.9901 8.83495 18.0054 8.98079 17.99 9.125C17.427 13.384 16.368 17.811 11.783 18ZM20 15H18.588C18.9991 14.032 19.3185 13.0276 19.542 12C20.751 11.919 22.088 12.216 22 13.143C21.9675 13.6496 21.7421 14.1246 21.37 14.47C20.998 14.8155 20.5077 15.0051 20 15ZM9.025 3V1C9.025 0.734784 9.13036 0.48043 9.31789 0.292893C9.50543 0.105357 9.75978 0 10.025 0C10.2902 0 10.5446 0.105357 10.7321 0.292893C10.9196 0.48043 11.025 0.734784 11.025 1V3C11.025 3.26522 10.9196 3.51957 10.7321 3.70711C10.5446 3.89464 10.2902 4 10.025 4C9.75978 4 9.50543 3.89464 9.31789 3.70711C9.13036 3.51957 9.025 3.26522 9.025 3ZM13.025 3V1C13.025 0.734784 13.1304 0.48043 13.3179 0.292893C13.5054 0.105357 13.7598 0 14.025 0C14.2902 0 14.5446 0.105357 14.7321 0.292893C14.9196 0.48043 15.025 0.734784 15.025 1V3C15.025 3.26522 14.9196 3.51957 14.7321 3.70711C14.5446 3.89464 14.2902 4 14.025 4C13.7598 4 13.5054 3.89464 13.3179 3.70711C13.1304 3.51957 13.025 3.26522 13.025 3ZM5.025 3V1C5.025 0.734784 5.13036 0.48043 5.31789 0.292893C5.50543 0.105357 5.75978 0 6.025 0C6.29022 0 6.54457 0.105357 6.73211 0.292893C6.91964 0.48043 7.025 0.734784 7.025 1V3C7.025 3.26522 6.91964 3.51957 6.73211 3.70711C6.54457 3.89464 6.29022 4 6.025 4C5.75978 4 5.50543 3.89464 5.31789 3.70711C5.13036 3.51957 5.025 3.26522 5.025 3ZM20 23C20 23.2652 19.8946 23.5196 19.7071 23.7071C19.5196 23.8946 19.2652 24 19 24H1C0.734784 24 0.48043 23.8946 0.292893 23.7071C0.105357 23.5196 0 23.2652 0 23C0 22.7348 0.105357 22.4804 0.292893 22.2929C0.48043 22.1054 0.734784 22 1 22H19C19.2652 22 19.5196 22.1054 19.7071 22.2929C19.8946 22.4804 20 22.7348 20 23Z" fill="#1A1A4D"/>
</g>
<defs>
<clipPath id="clip0_1655_3719">
<rect width="24" height="24" fill="white"/>
</clipPath>
</defs>
</svg>
