<svg width="24" height="24" viewBox="0 0 24 24" fill="none" xmlns="http://www.w3.org/2000/svg">
<g id="Category/Food and Beverage" clip-path="url(#clip0_1655_3683)">
<path id="Vector" d="M19.0002 1.00023C18.0372 0.996712 17.0942 1.27478 16.2872 1.80023C15.7285 1.22967 15.0615 0.776377 14.3254 0.466913C13.5892 0.15745 12.7987 -0.00195313 12.0002 -0.00195312C11.2016 -0.00195313 10.4111 0.15745 9.67495 0.466913C8.93881 0.776377 8.27184 1.22967 7.71315 1.80023C6.90615 1.27478 5.96314 0.996712 5.00015 1.00023C3.7602 0.998988 2.56402 1.45851 1.64382 2.28961C0.723621 3.1207 0.145056 4.26406 0.0204426 5.49774C-0.104171 6.73141 0.234057 7.96738 0.969467 8.96571C1.70488 9.96404 2.785 10.6535 4.00015 10.9002V24.0002H20.0002V10.9002C21.2153 10.6535 22.2954 9.96404 23.0308 8.96571C23.7663 7.96738 24.1045 6.73141 23.9799 5.49774C23.8553 4.26406 23.2767 3.1207 22.3565 2.28961C21.4363 1.45851 20.2401 0.998988 19.0002 1.00023ZM18.0002 22.0002H6.00015V19.0002H18.0002V22.0002ZM19.0002 9.00024H18.0002V17.0002H6.00015V9.00024H5.00015C4.2045 9.00024 3.44144 8.68417 2.87883 8.12156C2.31622 7.55895 2.00015 6.79588 2.00015 6.00024C2.00015 5.20459 2.31622 4.44152 2.87883 3.87891C3.44144 3.31631 4.2045 3.00023 5.00015 3.00023C5.399 2.99898 5.79401 3.07802 6.16167 3.23264C6.52932 3.38726 6.86209 3.6143 7.14015 3.90023L8.00015 4.77723L8.68615 3.76423C9.05228 3.22099 9.54623 2.77598 10.1246 2.46831C10.703 2.16065 11.348 1.99975 12.0032 1.99975C12.6583 1.99975 13.3033 2.16065 13.8817 2.46831C14.4601 2.77598 14.954 3.22099 15.3202 3.76423L16.0002 4.77723L16.8602 3.90023C17.1382 3.6143 17.471 3.38726 17.8386 3.23264C18.2063 3.07802 18.6013 2.99898 19.0002 3.00023C19.7958 3.00023 20.5589 3.31631 21.1215 3.87891C21.6841 4.44152 22.0002 5.20459 22.0002 6.00024C22.0002 6.79588 21.6841 7.55895 21.1215 8.12156C20.5589 8.68417 19.7958 9.00024 19.0002 9.00024Z" fill="#1A1A4D"/>
</g>
<defs>
<clipPath id="clip0_1655_3683">
<rect width="24" height="24" fill="white"/>
</clipPath>
</defs>
</svg>
