<svg width="24" height="24" viewBox="0 0 24 24" fill="none" xmlns="http://www.w3.org/2000/svg">
<g id="Category/Food and Beverage" clip-path="url(#clip0_1655_3676)">
<path id="Vector" d="M23.1988 11.5992C22.4378 10.5832 21.2718 10.0002 20.0018 10.0002H12.0048V7.00716H22.9998C23.5518 7.00716 23.9998 6.56016 23.9998 6.00716C23.9998 5.45416 23.5518 5.00716 22.9998 5.00716H12.0048V3.58616L22.9878 3.00616C23.5398 2.97716 23.9628 2.50616 23.9338 1.95416C23.9048 1.40216 23.4368 0.986158 22.8828 1.00816L3.9458 2.00816C3.3938 2.03716 2.9708 2.50816 2.9998 3.06016C3.0278 3.59316 3.4698 4.00716 3.9978 4.00716C4.0158 4.00716 4.0338 4.00716 4.0518 4.00716L5.0058 3.95716V5.00816H3.9988C3.4468 5.00816 2.9988 5.45516 2.9988 6.00816C2.9988 6.56116 3.4468 7.00816 3.9988 7.00816H5.0058V10.0012H4.0068C2.7368 10.0012 1.5718 10.5832 0.810804 11.5992C0.0418036 12.6222 -0.191196 13.9172 0.167804 15.1492C0.875804 17.5702 2.1568 19.7542 3.8758 21.4662C5.4928 23.0752 7.7768 23.9992 10.1438 23.9992H13.8658C16.2318 23.9992 18.5158 23.0752 20.1338 21.4652C21.8528 19.7542 23.1338 17.5692 23.8408 15.1492C24.2008 13.9172 23.9668 12.6232 23.1988 11.5982V11.5992ZM7.0048 3.85016L10.0048 3.69216V5.00716H7.0048V3.85016ZM7.0048 7.00716H10.0048V10.0002H7.0048V7.00716ZM21.9198 14.5892C21.3158 16.6572 20.1798 18.5962 18.7218 20.0492C17.4758 21.2892 15.7058 22.0002 13.8648 22.0002H10.1428C8.3018 22.0002 6.5318 21.2892 5.2868 20.0502C3.8288 18.5972 2.6918 16.6572 2.0878 14.5892C1.9058 13.9672 2.0238 13.3142 2.4098 12.7982C2.7898 12.2912 3.3718 12.0002 4.0058 12.0002H20.0008C20.6348 12.0002 21.2168 12.2912 21.5978 12.7982C21.9838 13.3142 22.1018 13.9662 21.9198 14.5892Z" fill="#1A1A4D"/>
</g>
<defs>
<clipPath id="clip0_1655_3676">
<rect width="24" height="24" fill="white"/>
</clipPath>
</defs>
</svg>
