<svg width="24" height="24" viewBox="0 0 24 24" fill="none" xmlns="http://www.w3.org/2000/svg">
<g clip-path="url(#clip0_2167_1141)">
<path d="M16.1667 2C15.9457 2 15.7337 2.0878 15.5774 2.24408C15.4211 2.40036 15.3333 2.61232 15.3333 2.83333C15.3333 5.29083 13.1808 6.16667 11.1667 6.16667H5.33333C4.44928 6.16667 3.60143 6.51786 2.97631 7.14298C2.35119 7.7681 2 8.61594 2 9.5L2 11.1667C2.00182 11.6656 2.11622 12.1577 2.33467 12.6063C2.55312 13.0549 2.86999 13.4484 3.26167 13.7575L6.23833 20.4008C6.45003 20.8767 6.79515 21.2811 7.23189 21.5649C7.66864 21.8487 8.1783 21.9998 8.69917 22C9.11359 21.9997 9.52137 21.8958 9.88539 21.6977C10.2494 21.4996 10.5581 21.2137 10.7834 20.8658C11.0086 20.518 11.1433 20.1193 11.1752 19.7061C11.2071 19.2929 11.1351 18.8783 10.9658 18.5L9.1325 14.5H11.1667C13.1808 14.5 15.3333 15.3758 15.3333 17.8333C15.3333 18.0543 15.4211 18.2663 15.5774 18.4226C15.7337 18.5789 15.9457 18.6667 16.1667 18.6667C16.3877 18.6667 16.5996 18.5789 16.7559 18.4226C16.9122 18.2663 17 18.0543 17 17.8333V2.83333C17 2.61232 16.9122 2.40036 16.7559 2.24408C16.5996 2.0878 16.3877 2 16.1667 2V2ZM9.4475 19.1825C9.5027 19.3072 9.52591 19.4436 9.51504 19.5795C9.50416 19.7154 9.45954 19.8464 9.38523 19.9607C9.31091 20.075 9.20924 20.169 9.08944 20.234C8.96964 20.2991 8.8355 20.3332 8.69917 20.3333C8.50033 20.3332 8.30581 20.2753 8.13924 20.1667C7.97267 20.0582 7.84121 19.9035 7.76083 19.7217L5.42083 14.5H7.29917L9.4475 19.1825ZM15.3333 14.1667C14.1427 13.2493 12.6686 12.7776 11.1667 12.8333H5.33333C4.89131 12.8333 4.46738 12.6577 4.15482 12.3452C3.84226 12.0326 3.66667 11.6087 3.66667 11.1667V9.5C3.66667 9.05797 3.84226 8.63405 4.15482 8.32149C4.46738 8.00893 4.89131 7.83333 5.33333 7.83333H11.1667C12.6681 7.89025 14.1422 7.42002 15.3333 6.50417V14.1667ZM21.9167 14.8767C21.8678 14.9746 21.8001 15.062 21.7174 15.1338C21.6347 15.2056 21.5387 15.2604 21.4349 15.2951C21.331 15.3298 21.2213 15.3436 21.1121 15.3359C21.0029 15.3281 20.8963 15.299 20.7983 15.25L19.1317 14.4167C18.9339 14.3179 18.7834 14.1445 18.7134 13.9348C18.6434 13.7251 18.6595 13.4961 18.7583 13.2983C18.8571 13.1005 19.0305 12.9501 19.2402 12.8801C19.4499 12.81 19.6789 12.8262 19.8767 12.925L21.5433 13.7583C21.7401 13.8571 21.8898 14.0297 21.9598 14.2384C22.0297 14.4472 22.0142 14.6751 21.9167 14.8725V14.8767ZM18.7583 7.37667C18.7094 7.27873 18.6802 7.17211 18.6725 7.06289C18.6647 6.95367 18.6786 6.84399 18.7133 6.74013C18.7479 6.63628 18.8027 6.54027 18.8745 6.4576C18.9463 6.37493 19.0337 6.30722 19.1317 6.25833L20.7983 5.425C20.9961 5.32621 21.2251 5.31004 21.4348 5.38005C21.6446 5.45007 21.8179 5.60053 21.9167 5.79833C22.0155 5.99614 22.0316 6.22509 21.9616 6.43482C21.8916 6.64455 21.7411 6.81787 21.5433 6.91667L19.8767 7.75C19.7787 7.79896 19.6721 7.82815 19.5629 7.83588C19.4537 7.84362 19.344 7.82976 19.2401 7.79508C19.1363 7.76041 19.0403 7.70561 18.9576 7.63382C18.8749 7.56203 18.8072 7.47464 18.7583 7.37667ZM18.6667 10.3333C18.6667 10.1123 18.7545 9.90036 18.9107 9.74408C19.067 9.5878 19.279 9.5 19.5 9.5H21.1667C21.3877 9.5 21.5996 9.5878 21.7559 9.74408C21.9122 9.90036 22 10.1123 22 10.3333C22 10.5543 21.9122 10.7663 21.7559 10.9226C21.5996 11.0789 21.3877 11.1667 21.1667 11.1667H19.5C19.279 11.1667 19.067 11.0789 18.9107 10.9226C18.7545 10.7663 18.6667 10.5543 18.6667 10.3333Z" fill="white"/>
</g>
<defs>
<clipPath id="clip0_2167_1141">
<rect width="20" height="20" fill="white" transform="translate(2 2)"/>
</clipPath>
</defs>
</svg>
