<svg width="7" height="14" viewBox="0 0 7 14" fill="none" xmlns="http://www.w3.org/2000/svg">
<path id="Vector" d="M1.16254 -0.000593629C1.31194 -0.001101 1.45955 0.0318704 1.59453 0.0958991C1.7295 0.159928 1.84842 0.253387 1.94254 0.369407L6.77254 6.36941C6.91962 6.54834 7.00003 6.77278 7.00003 7.00441C7.00003 7.23603 6.91962 7.46047 6.77254 7.63941L1.77254 13.6394C1.6028 13.8436 1.35889 13.972 1.09447 13.9964C0.83004 14.0208 0.566759 13.9391 0.362543 13.7694C0.158326 13.5997 0.0299019 13.3558 0.00552217 13.0913C-0.0188576 12.8269 0.0628036 12.5636 0.232542 12.3594L4.70254 6.99941L0.382542 1.63941C0.260259 1.49262 0.182582 1.31388 0.158702 1.12433C0.134823 0.934784 0.165739 0.74236 0.247795 0.569831C0.329851 0.397304 0.459611 0.251893 0.621721 0.150802C0.783832 0.0497118 0.971508 -0.00282521 1.16254 -0.000593629Z" fill="#1A1A4D"/>
</svg>
