<svg width="16" height="16" viewBox="0 0 16 16" fill="none" xmlns="http://www.w3.org/2000/svg">
<g id="fi-br-shopping-cart" clip-path="url(#clip0_20_129)">
<path id="Vector" d="M4.66658 16.0004C5.40296 16.0004 5.99991 15.4035 5.99991 14.6671C5.99991 13.9307 5.40296 13.3338 4.66658 13.3338C3.9302 13.3338 3.33325 13.9307 3.33325 14.6671C3.33325 15.4035 3.9302 16.0004 4.66658 16.0004Z" fill="black"/>
<path id="Vector_2" d="M11.3333 16.0004C12.0697 16.0004 12.6667 15.4035 12.6667 14.6671C12.6667 13.9307 12.0697 13.3338 11.3333 13.3338C10.597 13.3338 10 13.9307 10 14.6671C10 15.4035 10.597 16.0004 11.3333 16.0004Z" fill="black"/>
<path id="Vector_3" d="M15.3227 4.012C14.8534 3.56326 14.2252 3.31916 13.576 3.33333H3.76933L3.594 1.95867C3.53033 1.41913 3.27092 0.921704 2.86493 0.560691C2.45895 0.199679 1.93461 0.000174584 1.39133 0L1 0C0.734784 0 0.48043 0.105357 0.292893 0.292893C0.105357 0.48043 0 0.734784 0 1H0C0 1.26522 0.105357 1.51957 0.292893 1.70711C0.48043 1.89464 0.734784 2 1 2H1.39133C1.44587 2.00058 1.49826 2.02135 1.53839 2.05828C1.57853 2.09521 1.60356 2.1457 1.60867 2.2L2.60867 10.0393C2.67174 10.5793 2.93092 11.0773 3.33698 11.4387C3.74304 11.8002 4.26771 11.9999 4.81133 12H11.5593C12.362 11.9995 13.1424 11.7357 13.7807 11.2489C14.419 10.7621 14.8799 10.0793 15.0927 9.30533L15.9233 6.28467C16.0341 5.88664 16.0368 5.4663 15.9312 5.06687C15.8257 4.66744 15.6156 4.30334 15.3227 4.012ZM13.1667 8.77533C13.0691 9.12687 12.8591 9.43684 12.5689 9.65795C12.2787 9.87907 11.9242 9.99919 11.5593 10H4.81133C4.75682 9.99955 4.70443 9.97882 4.66438 9.94184C4.62432 9.90487 4.59947 9.8543 4.59467 9.8L4.02467 5.33333H13.676C13.7275 5.33295 13.7784 5.3445 13.8246 5.36707C13.8709 5.38965 13.9113 5.42264 13.9427 5.46346C13.9741 5.50428 13.9956 5.55182 14.0056 5.60234C14.0155 5.65286 14.0136 5.705 14 5.75467L13.1667 8.77533Z" fill="black"/>
</g>
<defs>
<clipPath id="clip0_20_129">
<rect width="16" height="16" fill="white"/>
</clipPath>
</defs>
</svg>
