<svg width="127" height="33" viewBox="0 0 127 33" fill="none" xmlns="http://www.w3.org/2000/svg">
<g id="Group 1000003187">
<rect id="Rectangle 148" y="10" width="12" height="12" rx="6" fill="#17978F"/>
<rect id="Rectangle 145" x="27.5" y="12.5" width="8" height="8" rx="4" fill="#BFCED6"/>
<g id="Group 1000003186">
<path id="Vector" d="M65.4944 1C60.3949 1 56.4954 2.92447 53.8803 5.86696C51.2817 8.79103 50.002 12.6615 50 16.4995C49.998 20.3375 51.2738 24.2084 53.8718 27.1329C56.4863 30.0759 60.388 32 65.4944 32C70.6008 32 74.5042 30.0759 77.1209 27.1333C79.7212 24.209 81 20.3382 81 16.5C81 12.6618 79.7212 8.79101 77.1209 5.86674C74.5042 2.9241 70.6008 1 65.4944 1Z" fill="white" stroke="#17978F" stroke-width="2"/>
<path id="Vector_2" d="M66.0692 6.93643C66.1446 6.93413 66.2198 6.94637 66.2904 6.97246C66.3611 6.99854 66.4257 7.03796 66.4807 7.08846C66.5357 7.13895 66.58 7.19954 66.611 7.26675C66.642 7.33396 66.6592 7.40648 66.6614 7.48017V8.34324C68.2543 8.44505 69.7859 8.98186 71.0814 9.89246C71.3068 10.0478 71.4305 10.1816 71.4305 10.4017C71.4181 10.5577 71.3436 10.7029 71.223 10.8061C71.1025 10.9093 70.9454 10.9624 70.7852 10.954C70.6237 10.9595 70.466 10.9056 70.3432 10.803C69.2624 9.99986 67.9768 9.50135 66.6261 9.36167V15.5672C70.3919 16.2792 71.9786 17.5393 71.9786 19.7099C71.9786 22.0532 69.7686 23.7146 66.6747 23.8052V25.5313C66.6619 25.6766 66.5937 25.8119 66.4836 25.9105C66.3735 26.0091 66.2296 26.0638 66.0802 26.0638C65.9309 26.0638 65.7869 26.0091 65.6768 25.9105C65.5668 25.8119 65.4986 25.6766 65.4857 25.5313V23.7793C63.4424 23.6474 61.4929 22.8927 59.9122 21.6216C59.8311 21.5717 59.7636 21.5031 59.7159 21.4218C59.6681 21.3406 59.6414 21.2492 59.6382 21.1556C59.6525 21.0048 59.7238 20.8647 59.8382 20.7626C59.9526 20.6604 60.1019 20.6036 60.257 20.6032C60.4193 20.5976 60.5775 20.6532 60.699 20.7585C62.0459 21.922 63.7421 22.6289 65.5344 22.7738V16.4777C61.8084 15.7441 60.2879 14.5272 60.2879 12.3134C60.2879 10.0996 62.4669 8.37345 65.4902 8.30872V7.48017C65.4959 7.33401 65.5594 7.1957 65.6674 7.09431C65.7753 6.99291 65.9194 6.93632 66.0692 6.93643ZM65.5255 15.3471V9.30557C63.1211 9.34872 61.5476 10.6347 61.5476 12.2271C61.5343 13.7331 62.3255 14.6609 65.5255 15.3471ZM66.6128 16.6978V22.8083C69.0924 22.7609 70.7013 21.4792 70.7013 19.7876C70.7013 18.2686 69.8349 17.3408 66.6128 16.6978Z" fill="#17978F" stroke="#17978F"/>
</g>
<rect id="Rectangle 146" x="95.5" y="12.5" width="8" height="8" rx="4" fill="#BFCED6"/>
<rect id="Rectangle 147" x="119" y="12.5" width="8" height="8" rx="4" fill="#BFCED6"/>
</g>
</svg>
