<svg width="30" height="30" viewBox="0 0 30 30" fill="none" xmlns="http://www.w3.org/2000/svg">
<rect x="0.5" y="0.5" width="29" height="29" rx="14.5" fill="white"/>
<rect x="0.5" y="0.5" width="29" height="29" rx="14.5" stroke="black"/>
<path d="M22.2933 7.70581C21.8401 7.25327 21.2258 6.9991 20.5853 6.9991C19.9449 6.9991 19.3306 7.25327 18.8773 7.70581L7 19.5831V22.9991H10.416L22.2933 11.1218C22.7457 10.6685 22.9998 10.0542 22.9998 9.41381C22.9998 8.77339 22.7457 8.15912 22.2933 7.70581ZM9.86667 21.6658H8.33333V20.1325L17.2067 11.2658L18.74 12.7991L9.86667 21.6658ZM21.3507 10.1791L19.6793 11.8505L18.1493 10.3171L19.82 8.64847C20.0233 8.44514 20.2991 8.33091 20.5867 8.33091C20.8742 8.33091 21.15 8.44514 21.3533 8.64847C21.5567 8.8518 21.6709 9.12758 21.6709 9.41514C21.6709 9.70269 21.5567 9.97847 21.3533 10.1818L21.3507 10.1791Z" fill="#1A1A4D"/>
</svg>
