<svg width="24" height="24" viewBox="0 0 24 24" fill="none" xmlns="http://www.w3.org/2000/svg">
<path d="M19.2933 4.70573C18.8401 4.2532 18.2258 3.99902 17.5853 3.99902C16.9449 3.99902 16.3306 4.2532 15.8773 4.70573L4 16.5831V19.9991H7.416L19.2933 8.12173C19.7457 7.66842 19.9998 7.05415 19.9998 6.41373C19.9998 5.77331 19.7457 5.15905 19.2933 4.70573ZM6.86667 18.6657H5.33333V17.1324L14.2067 8.26573L15.74 9.79907L6.86667 18.6657ZM18.3507 7.17907L16.6793 8.8504L15.1493 7.31707L16.82 5.6484C17.0233 5.44507 17.2991 5.33084 17.5867 5.33084C17.8742 5.33084 18.15 5.44507 18.3533 5.6484C18.5567 5.85173 18.6709 6.12751 18.6709 6.41507C18.6709 6.70262 18.5567 6.9784 18.3533 7.18173L18.3507 7.17907Z" fill="#1A1A4D"/>
</svg>
