<svg width="16" height="16" viewBox="0 0 16 16" fill="none" xmlns="http://www.w3.org/2000/svg">
<g clip-path="url(#clip0_2172_3838)">
<path d="M15.514 6.27923C14.48 4.59523 12.128 1.7699 8.00003 1.7699C3.87203 1.7699 1.52003 4.59523 0.486034 6.27923C0.166386 6.79624 -0.00292969 7.39206 -0.00292969 7.9999C-0.00292969 8.60774 0.166386 9.20356 0.486034 9.72056C1.52003 11.4046 3.87203 14.2299 8.00003 14.2299C12.128 14.2299 14.48 11.4046 15.514 9.72056C15.8337 9.20356 16.003 8.60774 16.003 7.9999C16.003 7.39206 15.8337 6.79624 15.514 6.27923V6.27923ZM14.3774 9.02256C13.4894 10.4666 11.4794 12.8966 8.00003 12.8966C4.5207 12.8966 2.5107 10.4666 1.6227 9.02256C1.43279 8.71526 1.3322 8.36115 1.3322 7.9999C1.3322 7.63865 1.43279 7.28453 1.6227 6.97723C2.5107 5.53323 4.5207 3.10323 8.00003 3.10323C11.4794 3.10323 13.4894 5.53056 14.3774 6.97723C14.5673 7.28453 14.6679 7.63865 14.6679 7.9999C14.6679 8.36115 14.5673 8.71526 14.3774 9.02256V9.02256Z" fill="#1A1A4D"/>
<path d="M7.99984 4.66656C7.34057 4.66656 6.6961 4.86206 6.14794 5.22833C5.59977 5.5946 5.17253 6.1152 4.92024 6.72429C4.66795 7.33337 4.60194 8.0036 4.73055 8.6502C4.85917 9.2968 5.17664 9.89075 5.64282 10.3569C6.10899 10.8231 6.70293 11.1406 7.34954 11.2692C7.99614 11.3978 8.66636 11.3318 9.27545 11.0795C9.88454 10.8272 10.4051 10.4 10.7714 9.8518C11.1377 9.30364 11.3332 8.65917 11.3332 7.9999C11.3321 7.11617 10.9806 6.26894 10.3557 5.64404C9.7308 5.01915 8.88357 4.66762 7.99984 4.66656V4.66656ZM7.99984 9.9999C7.60428 9.9999 7.2176 9.8826 6.8887 9.66284C6.5598 9.44308 6.30345 9.13072 6.15208 8.76527C6.0007 8.39981 5.9611 7.99768 6.03827 7.60972C6.11544 7.22176 6.30592 6.86539 6.58562 6.58568C6.86533 6.30598 7.2217 6.1155 7.60966 6.03833C7.99762 5.96116 8.39975 6.00076 8.76521 6.15214C9.13066 6.30351 9.44302 6.55986 9.66278 6.88876C9.88254 7.21766 9.99984 7.60434 9.99984 7.9999C9.99984 8.53033 9.78913 9.03904 9.41405 9.41411C9.03898 9.78919 8.53027 9.9999 7.99984 9.9999Z" fill="#1A1A4D"/>
</g>
<defs>
<clipPath id="clip0_2172_3838">
<rect width="16" height="16" fill="white"/>
</clipPath>
</defs>
</svg>
