<svg width="24" height="24" viewBox="0 0 24 24" fill="none" xmlns="http://www.w3.org/2000/svg">
<g clip-path="url(#clip0_2065_170)">
<path d="M19.514 10.2792C18.9122 9.29369 18.153 8.41337 17.2667 7.6732L19.1334 5.80654C19.2548 5.6808 19.322 5.5124 19.3205 5.3376C19.319 5.1628 19.2489 4.99559 19.1252 4.87199C19.0016 4.74838 18.8344 4.67827 18.6596 4.67675C18.4848 4.67523 18.3164 4.74243 18.1907 4.86387L16.1607 6.89654C14.9023 6.14908 13.4636 5.75951 12 5.76987C7.8727 5.76987 5.5207 8.5952 4.48603 10.2792C4.16639 10.7962 3.99707 11.392 3.99707 11.9999C3.99707 12.6077 4.16639 13.2035 4.48603 13.7205C5.08787 14.7061 5.84703 15.5864 6.73337 16.3265L4.8667 18.1932C4.80303 18.2547 4.75224 18.3283 4.7173 18.4096C4.68236 18.4909 4.66397 18.5784 4.6632 18.6669C4.66243 18.7555 4.6793 18.8432 4.71282 18.9252C4.74634 19.0071 4.79584 19.0815 4.85844 19.1441C4.92103 19.2067 4.99547 19.2562 5.0774 19.2898C5.15933 19.3233 5.24712 19.3401 5.33564 19.3394C5.42415 19.3386 5.51163 19.3202 5.59297 19.2853C5.67431 19.2503 5.74787 19.1995 5.80937 19.1359L7.84403 17.1012C9.10088 17.8485 10.5378 18.2388 12 18.2299C16.1274 18.2299 18.4794 15.4045 19.514 13.7205C19.8337 13.2035 20.003 12.6077 20.003 11.9999C20.003 11.392 19.8337 10.7962 19.514 10.2792ZM5.62203 13.0225C5.43212 12.7152 5.33153 12.3611 5.33153 11.9999C5.33153 11.6386 5.43212 11.2845 5.62203 10.9772C6.51137 9.5332 8.52137 7.1032 12 7.1032C13.1069 7.097 14.1982 7.36376 15.1774 7.87987L13.8354 9.22187C13.1953 8.79694 12.428 8.60653 11.6635 8.68297C10.8991 8.7594 10.1846 9.09796 9.64137 9.6412C9.09813 10.1844 8.75956 10.8989 8.68313 11.6634C8.6067 12.4278 8.7971 13.1952 9.22203 13.8352L7.68203 15.3752C6.86544 14.715 6.16859 13.9192 5.62203 13.0225ZM14 11.9999C14 12.5303 13.7893 13.039 13.4142 13.4141C13.0392 13.7892 12.5305 13.9999 12 13.9999C11.703 13.9987 11.4102 13.9303 11.1434 13.7999L13.8 11.1432C13.9305 11.41 13.9989 11.7029 14 11.9999ZM10 11.9999C10 11.4694 10.2107 10.9607 10.5858 10.5857C10.9609 10.2106 11.4696 9.99987 12 9.99987C12.297 10.001 12.5899 10.0694 12.8567 10.1999L10.2 12.8565C10.0696 12.5897 10.0012 12.2969 10 11.9999ZM18.378 13.0225C17.4887 14.4665 15.4787 16.8965 12 16.8965C10.8932 16.9027 9.80188 16.636 8.8227 16.1199L10.1647 14.7779C10.8047 15.2028 11.5721 15.3932 12.3365 15.3168C13.101 15.2403 13.8155 14.9018 14.3587 14.3585C14.9019 13.8153 15.2405 13.1008 15.3169 12.3364C15.3934 11.5719 15.203 10.8046 14.778 10.1645L16.318 8.62454C17.1346 9.28472 17.8315 10.0806 18.378 10.9772C18.5679 11.2845 18.6685 11.6386 18.6685 11.9999C18.6685 12.3611 18.5679 12.7152 18.378 13.0225Z" fill="#1A1A4D"/>
</g>
<defs>
<clipPath id="clip0_2065_170">
<rect width="16" height="16" fill="white" transform="translate(4 4)"/>
</clipPath>
</defs>
</svg>
