<svg width="30" height="30" viewBox="0 0 30 30" fill="none" xmlns="http://www.w3.org/2000/svg">
<path d="M20.8331 28.9999H24.9164C25.9993 28.9999 27.0379 28.5697 27.8037 27.804C28.5695 27.0382 28.9997 25.9996 28.9997 24.9166V20.8333" stroke="white" stroke-width="2" stroke-linecap="round" stroke-linejoin="round"/>
<path d="M28.9997 9.16659V5.08329C28.9997 4.00033 28.5695 2.96173 27.8037 2.19596C27.0379 1.4302 25.9993 0.999992 24.9164 0.999992H20.8331" stroke="white" stroke-width="2" stroke-linecap="round" stroke-linejoin="round"/>
<path d="M9.16659 28.9999H5.08329C4.00033 28.9999 2.96173 28.5697 2.19596 27.804C1.4302 27.0382 0.999992 25.9996 0.999992 24.9166V20.8333" stroke="white" stroke-width="2" stroke-linecap="round" stroke-linejoin="round"/>
<path d="M0.999992 9.16659V5.08329C0.999992 4.00033 1.4302 2.96173 2.19596 2.19596C2.96173 1.4302 4.00033 0.999992 5.08329 0.999992H9.16659" stroke="white" stroke-width="2" stroke-linecap="round" stroke-linejoin="round"/>
</svg>
