<svg width="24" height="25" viewBox="0 0 24 25" fill="none" xmlns="http://www.w3.org/2000/svg">
<g id="Icon/Money">
<path id="$" d="M12.2204 21.1927C11.0122 21.1927 9.95102 21.0034 9.03673 20.6248C8.12245 20.2462 7.24082 19.6439 6.39184 18.8178C6.27755 18.6974 6.17959 18.5683 6.09796 18.4306C6.03265 18.2758 6 18.1123 6 17.9402C6 17.6648 6.0898 17.4239 6.26939 17.2174C6.46531 16.9937 6.70204 16.8818 6.97959 16.8818C7.20816 16.8818 7.41225 16.9765 7.59184 17.1658C8.22857 17.8197 8.91429 18.3188 9.64898 18.663C10.4 19.0071 11.2408 19.1792 12.1714 19.1792C12.8898 19.1792 13.5347 19.0588 14.1061 18.8178C14.6939 18.5769 15.1592 18.2413 15.502 17.8111C15.8449 17.3809 16.0163 16.8818 16.0163 16.314C16 15.6256 15.8041 15.0577 15.4286 14.6103C15.0694 14.1629 14.5633 13.7929 13.9102 13.5003C13.2735 13.1906 12.5306 12.9324 11.6816 12.7259C10.9306 12.5366 10.2367 12.3043 9.6 12.029C8.97959 11.7536 8.44082 11.418 7.98367 11.0222C7.52653 10.6092 7.16735 10.1188 6.90612 9.55089C6.66122 8.96579 6.53878 8.28604 6.53878 7.51165C6.53878 6.53075 6.78367 5.6703 7.27347 4.93033C7.76327 4.19035 8.44082 3.62245 9.30612 3.22665C10.1714 2.81364 11.1673 2.60714 12.2939 2.60714C13.2898 2.60714 14.2286 2.77922 15.1102 3.1234C16.0082 3.46758 16.7265 3.94082 17.2653 4.54313C17.5918 4.87009 17.7551 5.18846 17.7551 5.49822C17.7551 5.75635 17.649 5.99727 17.4367 6.22099C17.2408 6.42749 17.0122 6.53074 16.751 6.53074C16.5714 6.53074 16.4082 6.46191 16.2612 6.32424C15.9837 5.99727 15.6327 5.70472 15.2082 5.44659C14.7837 5.18846 14.3184 4.98195 13.8122 4.82707C13.3061 4.67219 12.8 4.59475 12.2939 4.59475C11.5429 4.59475 10.8816 4.71522 10.3102 4.95614C9.73878 5.17985 9.2898 5.50682 8.96327 5.93704C8.65306 6.35005 8.49796 6.84911 8.49796 7.43421C8.49796 8.08814 8.67755 8.63022 9.03673 9.06044C9.39592 9.47345 9.87755 9.81763 10.4816 10.093C11.0857 10.3511 11.7551 10.5834 12.4898 10.7899C13.2898 10.9964 14.0245 11.2374 14.6939 11.5127C15.3796 11.7708 15.9673 12.0978 16.4571 12.4936C16.9469 12.8894 17.3225 13.3971 17.5837 14.0166C17.8612 14.6189 18 15.3675 18 16.2623C18 17.2088 17.7469 18.052 17.2408 18.792C16.7347 19.532 16.0408 20.1171 15.1592 20.5473C14.2939 20.9603 13.3143 21.1754 12.2204 21.1927ZM13.3224 23.5675C13.3224 23.86 13.2245 24.1009 13.0286 24.2902C12.849 24.4967 12.6122 24.6 12.3184 24.6C12.0408 24.6 11.8122 24.4967 11.6327 24.2902C11.4531 24.1009 11.3633 23.86 11.3633 23.5675V1.05834C11.3633 0.765792 11.4531 0.516264 11.6327 0.309759C11.8286 0.103253 12.0653 0 12.3429 0C12.6367 0 12.8735 0.103253 13.0531 0.309759C13.2327 0.516264 13.3224 0.765792 13.3224 1.05834V23.5675Z" fill="#1A1A4D"/>
</g>
</svg>
