<svg width="24" height="24" viewBox="0 0 24 24" fill="none" xmlns="http://www.w3.org/2000/svg">
<g id="Icon/Moon">
<path id="Vector" d="M12 20.9633C9.48333 20.9633 7.35417 20.0925 5.6125 18.3508C3.87083 16.6092 3 14.48 3 11.9633C3 9.66333 3.75 7.6675 5.25 5.97583C6.75 4.28417 8.66667 3.29667 11 3.01333C11.2167 2.98 11.4083 3.00917 11.575 3.10083C11.7417 3.1925 11.875 3.31333 11.975 3.46333C12.075 3.61333 12.1292 3.78833 12.1375 3.98833C12.1458 4.18833 12.0833 4.38 11.95 4.56333C11.6667 4.99667 11.4542 5.455 11.3125 5.93833C11.1708 6.42167 11.1 6.93 11.1 7.46333C11.1 8.96333 11.625 10.2383 12.675 11.2883C13.725 12.3383 15 12.8633 16.5 12.8633C17.0167 12.8633 17.5292 12.7883 18.0375 12.6383C18.5458 12.4883 19 12.28 19.4 12.0133C19.5833 11.8967 19.7708 11.8425 19.9625 11.8508C20.1542 11.8592 20.325 11.905 20.475 11.9883C20.6417 12.0717 20.7708 12.1967 20.8625 12.3633C20.9542 12.53 20.9833 12.73 20.95 12.9633C20.7167 15.2633 19.7375 17.1717 18.0125 18.6883C16.2875 20.205 14.2833 20.9633 12 20.9633ZM12 18.9633C13.4667 18.9633 14.7833 18.5592 15.95 17.7508C17.1167 16.9425 17.9667 15.8883 18.5 14.5883C18.1667 14.6717 17.8333 14.7383 17.5 14.7883C17.1667 14.8383 16.8333 14.8633 16.5 14.8633C14.45 14.8633 12.7042 14.1425 11.2625 12.7008C9.82083 11.2592 9.1 9.51333 9.1 7.46333C9.1 7.13 9.125 6.79667 9.175 6.46333C9.225 6.13 9.29167 5.79667 9.375 5.46333C8.075 5.99667 7.02083 6.84667 6.2125 8.01333C5.40417 9.18 5 10.4967 5 11.9633C5 13.8967 5.68333 15.5467 7.05 16.9133C8.41667 18.28 10.0667 18.9633 12 18.9633Z" fill="black"/>
</g>
</svg>
