<svg width="30" height="30" viewBox="0 0 30 30" fill="none" xmlns="http://www.w3.org/2000/svg">
<g id="Icon/Settings">
<g id="Vector">
<path d="M27.4999 7.30758H23.98C23.5507 5.09604 21.8337 3.46143 19.7732 3.46143C17.7128 3.46143 15.9958 5.09604 15.5665 7.30758H3.46143V9.23066H15.5665C15.9958 11.4422 17.7128 13.0768 19.7732 13.0768C21.8337 13.0768 23.5507 11.4422 23.98 9.23066H27.4999V7.30758ZM19.7732 11.1537C18.3138 11.1537 17.1977 9.90374 17.1977 8.26912C17.1977 6.63451 18.3138 5.3845 19.7732 5.3845C21.2327 5.3845 22.3488 6.63451 22.3488 8.26912C22.3488 9.90374 21.2327 11.1537 19.7732 11.1537Z" fill="#1A1A4D"/>
<path d="M3.46143 22.6922H6.98134C7.4106 24.9037 9.12763 26.5384 11.1881 26.5384C13.2485 26.5384 14.9655 24.9037 15.3948 22.6922H27.4999V20.7691H15.3948C14.9655 18.5576 13.2485 16.923 11.1881 16.923C9.12763 16.923 7.4106 18.5576 6.98134 20.7691H3.46143V22.6922ZM11.1881 18.846C12.6475 18.846 13.7636 20.096 13.7636 21.7307C13.7636 23.3653 12.6475 24.6153 11.1881 24.6153C9.72859 24.6153 8.61252 23.3653 8.61252 21.7307C8.61252 20.096 9.72859 18.846 11.1881 18.846Z" fill="#1A1A4D"/>
</g>
</g>
</svg>
