<svg width="25" height="24" viewBox="0 0 25 24" fill="none" xmlns="http://www.w3.org/2000/svg">
<path d="M2.3335 20.1088V19.1024C2.3335 15.2117 5.18258 12.0576 8.6971 12.0576C12.2116 12.0576 15.0607 15.2117 15.0607 19.1024V20.1088" stroke="white" stroke-width="1.5" stroke-linecap="round"/>
<path d="M13.2427 14.0706C13.2427 11.2915 15.2778 9.03857 17.7881 9.03857C20.2985 9.03857 22.3335 11.2915 22.3335 14.0706V14.5738" stroke="white" stroke-width="1.5" stroke-linecap="round"/>
<path d="M8.69689 12.0576C10.7052 12.0576 12.3332 10.2552 12.3332 8.03196C12.3332 5.80868 10.7052 4.00635 8.69689 4.00635C6.68859 4.00635 5.06055 5.80868 5.06055 8.03196C5.06055 10.2552 6.68859 12.0576 8.69689 12.0576Z" stroke="white" stroke-width="1.5" stroke-linecap="round" stroke-linejoin="round"/>
<path d="M17.7878 9.03842C19.2941 9.03842 20.5151 7.68667 20.5151 6.01921C20.5151 4.35175 19.2941 3 17.7878 3C16.2815 3 15.0605 4.35175 15.0605 6.01921C15.0605 7.68667 16.2815 9.03842 17.7878 9.03842Z" stroke="white" stroke-width="1.5" stroke-linecap="round" stroke-linejoin="round"/>
</svg>
