<svg width="24" height="24" viewBox="0 0 24 24" fill="none" xmlns="http://www.w3.org/2000/svg">
<g id="Icon/Security">
<path id="Vector" d="M11.68 21.75C11.568 21.75 11.464 21.7417 11.368 21.725C11.272 21.7083 11.176 21.6833 11.08 21.65C8.92 20.9 7.2 19.5125 5.92 17.4875C4.64 15.4625 4 13.2833 4 10.95V6.225C4 5.80833 4.116 5.43333 4.348 5.1C4.58 4.76667 4.88 4.525 5.248 4.375L11.008 2.125C11.232 2.04167 11.456 2 11.68 2C11.904 2 12.128 2.04167 12.352 2.125L18.112 4.375C18.48 4.525 18.78 4.76667 19.012 5.1C19.244 5.43333 19.36 5.80833 19.36 6.225V10.95C19.36 12.2 19.172 13.4208 18.796 14.6125C18.42 15.8042 17.88 16.8833 17.176 17.85C17.048 18.0333 16.876 18.1292 16.66 18.1375C16.444 18.1458 16.256 18.0667 16.096 17.9L13.6 15.3C13.312 15.4833 13.004 15.6208 12.676 15.7125C12.348 15.8042 12.016 15.85 11.68 15.85C10.624 15.85 9.72 15.4583 8.968 14.675C8.216 13.8917 7.84 12.95 7.84 11.85C7.84 10.75 8.216 9.80833 8.968 9.025C9.72 8.24167 10.624 7.85 11.68 7.85C12.736 7.85 13.64 8.24167 14.392 9.025C15.144 9.80833 15.52 10.75 15.52 11.85C15.52 12.2167 15.476 12.5708 15.388 12.9125C15.3 13.2542 15.168 13.5833 14.992 13.9L16.432 15.4C16.752 14.7167 17 14 17.176 13.25C17.352 12.5 17.44 11.7333 17.44 10.95V6.225L11.68 3.975L5.92 6.225V10.95C5.92 12.9667 6.464 14.8 7.552 16.45C8.64 18.1 10.016 19.2 11.68 19.75C11.936 19.6667 12.188 19.5667 12.436 19.45C12.684 19.3333 12.928 19.2 13.168 19.05C13.392 18.9167 13.636 18.8667 13.9 18.9C14.164 18.9333 14.376 19.0667 14.536 19.3C14.696 19.5333 14.748 19.7833 14.692 20.05C14.636 20.3167 14.496 20.525 14.272 20.675C13.952 20.875 13.632 21.0542 13.312 21.2125C12.992 21.3708 12.648 21.5167 12.28 21.65C12.184 21.6833 12.088 21.7083 11.992 21.725C11.896 21.7417 11.792 21.75 11.68 21.75ZM11.68 13.85C12.208 13.85 12.66 13.6542 13.036 13.2625C13.412 12.8708 13.6 12.4 13.6 11.85C13.6 11.3 13.412 10.8292 13.036 10.4375C12.66 10.0458 12.208 9.85 11.68 9.85C11.152 9.85 10.7 10.0458 10.324 10.4375C9.948 10.8292 9.76 11.3 9.76 11.85C9.76 12.4 9.948 12.8708 10.324 13.2625C10.7 13.6542 11.152 13.85 11.68 13.85Z" fill="black"/>
</g>
</svg>
