<svg width="24" height="24" viewBox="0 0 24 24" fill="none" xmlns="http://www.w3.org/2000/svg">
<g id="Icon/Profile">
<path id="Vector" d="M13 12C11.9 12 10.9583 11.6083 10.175 10.825C9.39167 10.0417 9 9.1 9 8C9 6.9 9.39167 5.95833 10.175 5.175C10.9583 4.39167 11.9 4 13 4C14.1 4 15.0417 4.39167 15.825 5.175C16.6083 5.95833 17 6.9 17 8C17 9.1 16.6083 10.0417 15.825 10.825C15.0417 11.6083 14.1 12 13 12ZM5 18V17.2C5 16.6333 5.14583 16.1125 5.4375 15.6375C5.72917 15.1625 6.11667 14.8 6.6 14.55C7.63333 14.0333 8.68333 13.6458 9.75 13.3875C10.8167 13.1292 11.9 13 13 13C14.1 13 15.1833 13.1292 16.25 13.3875C17.3167 13.6458 18.3667 14.0333 19.4 14.55C19.8833 14.8 20.2708 15.1625 20.5625 15.6375C20.8542 16.1125 21 16.6333 21 17.2V18C21 18.55 20.8042 19.0208 20.4125 19.4125C20.0208 19.8042 19.55 20 19 20H7C6.45 20 5.97917 19.8042 5.5875 19.4125C5.19583 19.0208 5 18.55 5 18ZM7 18H19V17.2C19 17.0167 18.9542 16.85 18.8625 16.7C18.7708 16.55 18.65 16.4333 18.5 16.35C17.6 15.9 16.6917 15.5625 15.775 15.3375C14.8583 15.1125 13.9333 15 13 15C12.0667 15 11.1417 15.1125 10.225 15.3375C9.30833 15.5625 8.4 15.9 7.5 16.35C7.35 16.4333 7.22917 16.55 7.1375 16.7C7.04583 16.85 7 17.0167 7 17.2V18ZM13 10C13.55 10 14.0208 9.80417 14.4125 9.4125C14.8042 9.02083 15 8.55 15 8C15 7.45 14.8042 6.97917 14.4125 6.5875C14.0208 6.19583 13.55 6 13 6C12.45 6 11.9792 6.19583 11.5875 6.5875C11.1958 6.97917 11 7.45 11 8C11 8.55 11.1958 9.02083 11.5875 9.4125C11.9792 9.80417 12.45 10 13 10Z" fill="black"/>
</g>
</svg>
