<svg width="24" height="24" viewBox="0 0 24 24" fill="none" xmlns="http://www.w3.org/2000/svg">
<g id="Icon/Restart">
<path id="Union" d="M18.6213 10.6961C21.1181 10.2038 23 8.01974 23 5.4C23 2.41766 20.5611 0 17.5526 0C14.6442 0 12.2681 2.25958 12.1133 5.10449C11.3371 4.90574 10.5231 4.8 9.68421 4.8C6.85521 4.8 4.61063 5.59467 2.64115 7.64199V5.66506H0.880383V10.9091H6.16268V9.16364H3.62198C5.32161 7.23611 7.18323 6.54545 9.68421 6.54545C10.619 6.54545 11.5159 6.70591 12.3485 7.00055C12.9543 8.93828 14.6311 10.4091 16.693 10.7331C17.277 11.8277 17.6077 13.0756 17.6077 14.4C17.6077 18.7379 14.0602 22.2545 9.68421 22.2545C5.30821 22.2545 1.76077 18.7379 1.76077 14.4H0C0 19.7019 4.33577 24 9.68421 24C15.0327 24 19.3684 19.7019 19.3684 14.4C19.3684 13.0871 19.1026 11.8359 18.6213 10.6961Z" fill="white"/>
</g>
</svg>
