<svg width="24" height="24" viewBox="0 0 24 24" fill="none" xmlns="http://www.w3.org/2000/svg">
<g id="Icon/Security">
<path id="Vector" d="M12 19.75C13.6167 19.25 14.9667 18.2625 16.05 16.7875C17.1333 15.3125 17.7667 13.6667 17.95 11.85H12V3.975L6 6.225V11.4C6 11.5167 6.01667 11.6667 6.05 11.85H12V19.75ZM12 21.75C11.8833 21.75 11.775 21.7417 11.675 21.725C11.575 21.7083 11.475 21.6833 11.375 21.65C9.125 20.9 7.33333 19.5125 6 17.4875C4.66667 15.4625 4 13.2833 4 10.95V6.225C4 5.80833 4.12083 5.43333 4.3625 5.1C4.60417 4.76667 4.91667 4.525 5.3 4.375L11.3 2.125C11.5333 2.04167 11.7667 2 12 2C12.2333 2 12.4667 2.04167 12.7 2.125L18.7 4.375C19.0833 4.525 19.3958 4.76667 19.6375 5.1C19.8792 5.43333 20 5.80833 20 6.225V10.95C20 13.2833 19.3333 15.4625 18 17.4875C16.6667 19.5125 14.875 20.9 12.625 21.65C12.525 21.6833 12.425 21.7083 12.325 21.725C12.225 21.7417 12.1167 21.75 12 21.75Z" fill="black"/>
</g>
</svg>
