<svg width="24" height="24" viewBox="0 0 24 24" fill="none" xmlns="http://www.w3.org/2000/svg">
<g id="Category/Clothes" clip-path="url(#clip0_1655_3877)">
<path id="Vector" d="M24 16.525C24 15.878 23.79 15.259 23.408 14.748C23.469 14.512 23.5 14.27 23.5 14.025C23.5 12.601 22.503 11.406 21.17 11.101C20.906 10.554 20.499 10.102 20 9.784V8C20 3.589 16.411 0 12 0C7.589 0 4 3.589 4 8V9.784C3.501 10.102 3.094 10.555 2.83 11.102C1.497 11.407 0.5 12.602 0.5 14.026C0.5 14.271 0.531 14.512 0.592 14.749C0.21 15.261 0 15.879 0 16.526C0 17.201 0.23 17.849 0.639 18.372C0.547 18.662 0.5 18.967 0.5 19.276C0.5 20.7 1.497 21.895 2.83 22.201C3.362 23.304 4.478 24.026 5.75 24.026C7.542 24.026 9 22.568 9 20.776V12.526C9 10.82 7.674 9.431 6 9.301V8C6 4.691 8.691 2 12 2C15.309 2 18 4.691 18 8V9.301C16.326 9.431 15 10.819 15 12.526V20.776C15 22.568 16.458 24.026 18.25 24.026C19.522 24.026 20.638 23.303 21.17 22.201C22.503 21.895 23.5 20.7 23.5 19.276C23.5 18.966 23.453 18.662 23.361 18.372C23.77 17.85 24 17.2 24 16.525ZM7 12.525V20.775C7 21.464 6.439 22.025 5.75 22.025C5.163 22.025 4.663 21.624 4.534 21.049C4.431 20.591 4.024 20.269 3.559 20.269C2.915 20.249 2.5 19.813 2.5 19.275C2.5 19.075 2.56 18.88 2.672 18.714C2.977 18.264 2.867 17.652 2.423 17.337C2.154 17.146 1.999 16.85 1.999 16.525C1.999 16.229 2.137 15.948 2.378 15.753C2.753 15.449 2.858 14.92 2.627 14.496C2.542 14.341 2.499 14.183 2.499 14.025C2.499 13.488 2.926 13.047 3.458 13.026C3.938 13.046 4.425 12.725 4.532 12.251C4.661 11.676 5.161 11.275 5.748 11.275C6.437 11.275 6.998 11.836 6.998 12.525H7ZM21.576 17.337C21.133 17.652 21.022 18.264 21.327 18.714C21.44 18.88 21.499 19.074 21.499 19.275C21.499 19.813 21.072 20.253 20.539 20.274C20.038 20.233 19.571 20.576 19.465 21.05C19.336 21.623 18.836 22.025 18.249 22.025C17.56 22.025 16.999 21.464 16.999 20.775V12.525C16.999 11.836 17.56 11.275 18.249 11.275C18.836 11.275 19.336 11.676 19.465 12.25C19.568 12.708 19.975 13.031 20.44 13.031C20.973 13.052 21.499 13.486 21.499 14.024C21.499 14.181 21.456 14.339 21.371 14.495C21.139 14.919 21.244 15.448 21.62 15.752C21.861 15.947 21.999 16.229 21.999 16.524C21.999 16.849 21.844 17.145 21.575 17.336L21.576 17.337Z" fill="#1A1A4D"/>
</g>
<defs>
<clipPath id="clip0_1655_3877">
<rect width="24" height="24" fill="white"/>
</clipPath>
</defs>
</svg>
