<svg width="24" height="24" viewBox="0 0 24 24" fill="none" xmlns="http://www.w3.org/2000/svg">
<g id="Category/Clothes">
<path id="Vector" d="M22.751 17.4108L13.643 10.9408C16.282 8.77476 17.487 7.78076 16.818 4.85376C16.401 3.03176 14.956 1.58576 13.134 1.16976C11.62 0.824765 10.066 1.16976 8.875 2.12176C7.683 3.07176 7 4.49076 7 6.01276C7 6.56476 7.448 7.01276 8 7.01276C8.552 7.01276 9 6.56476 9 6.01276C9 5.10176 9.409 4.25376 10.122 3.68476C10.846 3.10676 11.757 2.90576 12.69 3.11976C13.751 3.36176 14.627 4.23776 14.869 5.29876C15.252 6.97676 15.017 7.22576 12.364 9.40476L11.396 10.2038L1.222 17.4308C0.457 18.0138 0 18.9368 0 19.8978C0 21.6078 1.392 22.9998 3.102 22.9998H20.898C22.608 22.9998 24 21.6078 24 19.8978C24 18.9368 23.543 18.0138 22.751 17.4108ZM20.898 20.9998H3.102C2.494 20.9998 2 20.5058 2 19.8978C2 19.5568 2.163 19.2288 2.407 19.0418L12 12.2268L21.565 19.0218C21.837 19.2288 22 19.5568 22 19.8978C22 20.5058 21.506 20.9998 20.898 20.9998Z" fill="#1A1A4D"/>
</g>
</svg>
