<svg width="24" height="24" viewBox="0 0 24 24" fill="none" xmlns="http://www.w3.org/2000/svg">
<g id="Category/Clothes" clip-path="url(#clip0_1655_3879)">
<path id="Vector" d="M24.0011 3.999C24.0011 1.794 22.2051 0 20.0011 0H9.00106C7.93206 0 6.92806 0.416 6.17206 1.172C5.41706 1.928 5.00106 2.933 5.00106 4.002V4.994C5.00106 4.994 5.00106 4.998 5.00106 5.001C5.00106 5.004 5.00206 5.005 5.00206 5.008L5.00406 9.727C5.00406 9.977 4.91206 10.216 4.74306 10.401L1.39906 14.068C-0.709944 16.704 -0.396944 20.537 2.09506 22.612C3.17206 23.508 4.53406 24.002 5.93206 24.002C7.19106 24.002 8.43406 23.592 9.44906 22.858C10.4651 23.586 11.6791 24.002 12.9321 24.002C14.7671 24.002 16.4761 23.181 17.5951 21.78L21.8071 16.919C23.2251 15.282 24.0051 13.188 24.0041 11.022L24.0021 4L24.0011 3.999ZM22.0011 3.999H14.0011C14.0011 3.465 14.2091 2.963 14.5861 2.585C14.9641 2.207 15.4671 1.999 16.0011 1.999H20.0011C21.1041 1.999 22.0001 2.896 22.0011 3.999ZM9.00106 1.999H12.5541C12.2031 2.602 12.0011 3.282 12.0011 3.999H7.00106C7.00106 3.465 7.20906 2.963 7.58606 2.585C7.96406 2.207 8.46606 1.999 9.00106 1.999ZM3.37306 21.073C1.71206 19.69 1.52606 17.107 2.91706 15.365L6.21906 11.747C6.72506 11.192 7.00406 10.473 7.00306 9.723V5.999H12.0021V9.723C12.0031 9.974 11.9111 10.214 11.7421 10.398L8.39806 14.065C6.65106 16.249 6.59006 19.242 8.03006 21.389C6.61606 22.248 4.66506 22.147 3.37406 21.072L3.37306 21.073ZM20.2941 15.608L16.0571 20.499C15.2941 21.453 14.1551 22 12.9311 22C12.0001 22 11.0921 21.671 10.3731 21.073C8.71206 19.69 8.52606 17.107 9.91706 15.365L13.2191 11.747C13.7251 11.193 14.0031 10.475 14.0031 9.723V5.999H22.0021V11.02C22.0041 12.705 21.3971 14.333 20.2941 15.606V15.608Z" fill="#1A1A4D"/>
</g>
<defs>
<clipPath id="clip0_1655_3879">
<rect width="24" height="24" fill="white"/>
</clipPath>
</defs>
</svg>
