<svg width="24" height="24" viewBox="0 0 24 24" fill="none" xmlns="http://www.w3.org/2000/svg">
<g id="Category/Clothes" clip-path="url(#clip0_1655_3871)">
<path id="Vector" d="M20.815 1.195C19.338 0.402 17.783 0 16.19 0H7.81C6.218 0 4.662 0.402 3.185 1.195C1.221 2.25 0 4.335 0 6.636V9.024C0 10.678 1.346 12.024 3 12.024H4V19C4 21.757 6.243 24 9 24H15C17.757 24 20 21.757 20 19V12H21C22.654 12 24 10.654 24 9V6.636C24 4.335 22.779 2.249 20.815 1.195ZM14.894 2C14.439 3.194 13.307 4 12.001 4C10.695 4 9.563 3.194 9.108 2H14.895H14.894ZM22.001 9C22.001 9.551 21.552 10 21.001 10H20.001V7C20.001 6.448 19.553 6 19.001 6C18.449 6 18.001 6.448 18.001 7V19C18.001 20.654 16.655 22 15.001 22H9.001C7.347 22 6.001 20.654 6.001 19V7C6.001 6.448 5.553 6 5.001 6C4.449 6 4.001 6.448 4.001 7V10.024H3.001C2.45 10.024 2.001 9.575 2.001 9.024V6.636C2.001 5.073 2.818 3.663 4.132 2.957C5.069 2.454 6.04 2.156 7.029 2.05C7.573 4.376 9.617 6 12.001 6C14.385 6 16.429 4.376 16.973 2.05C17.961 2.156 18.933 2.454 19.87 2.957C21.184 3.663 22.001 5.073 22.001 6.636V9Z" fill="#1A1A4D"/>
</g>
<defs>
<clipPath id="clip0_1655_3871">
<rect width="24" height="24" fill="white"/>
</clipPath>
</defs>
</svg>
