<svg width="24" height="24" viewBox="0 0 24 24" fill="none" xmlns="http://www.w3.org/2000/svg">
<g id="Category/Clothes" clip-path="url(#clip0_1655_3881)">
<path id="Vector" d="M22.12 10.504C21.408 9.473 21 8.561 21 8V5.065C21 2.502 19.09 0.366 16.557 0.096C16.501 0.09 15.77 0 15 0H9C8.308 0 7.5 0.09 7.443 0.096C4.91 0.366 3 2.502 3 5.065V8C3 8.561 2.592 9.473 1.88 10.504C1.304 11.337 1 12.315 1 13.334V19C1 21.757 3.243 24 6 24H18C20.757 24 23 21.757 23 19V13.334C23 12.315 22.696 11.336 22.12 10.504ZM12 9.074L9.427 2H14.572L11.999 9.074H12ZM3 19V17H7C7.553 17 8 16.552 8 16C8 15.448 7.553 15 7 15H3V13.334C3 12.723 3.182 12.138 3.524 11.641C4.503 10.224 5 8.999 5 8V5.065C5 3.633 5.99 2.424 7.349 2.134L11 12.175V22H6C4.346 22 3 20.654 3 19ZM18 22H13V12.175L16.651 2.134C18.01 2.424 19 3.634 19 5.065V8C19 8.999 19.496 10.224 20.476 11.641C20.819 12.138 21 12.724 21 13.334V15H17C16.447 15 16 15.448 16 16C16 16.552 16.447 17 17 17H21V19C21 20.654 19.654 22 18 22Z" fill="#1A1A4D"/>
</g>
<defs>
<clipPath id="clip0_1655_3881">
<rect width="24" height="24" fill="white"/>
</clipPath>
</defs>
</svg>
