<svg width="24" height="24" viewBox="0 0 24 24" fill="none" xmlns="http://www.w3.org/2000/svg">
<g id="Category/Clothes">
<path id="Vector" d="M17 0H7C4.243 0 2 2.243 2 5V19C2 21.757 4.243 24 7 24H17C19.757 24 22 21.757 22 19V5C22 2.243 19.757 0 17 0ZM20 19C20 20.654 18.654 22 17 22H7C5.346 22 4 20.654 4 19V5C4 3.346 5.346 2 7 2H17C18.654 2 20 3.346 20 5V19ZM6.5 6C5.672 6 5 5.328 5 4.5C5 3.672 5.672 3 6.5 3C7.328 3 8 3.672 8 4.5C8 5.328 7.328 6 6.5 6ZM9 4.5C9 3.672 9.672 3 10.5 3C11.328 3 12 3.672 12 4.5C12 5.328 11.328 6 10.5 6C9.672 6 9 5.328 9 4.5ZM12 8C8.691 8 6 10.691 6 14C6 17.309 8.691 20 12 20C15.309 20 18 17.309 18 14C18 10.691 15.309 8 12 8ZM12 10C14.06 10 15.741 11.571 15.957 13.574C15.683 13.767 15.249 14 14.728 14C13.889 14 12.9 13.417 12.592 13.193C12.425 13.071 10.917 12 9.273 12C9.002 12 8.751 12.035 8.511 12.084C9.192 10.849 10.492 10 12 10ZM12 18C9.94 18 8.259 16.429 8.043 14.426C8.317 14.233 8.751 14 9.272 14C10.111 14 11.1 14.583 11.408 14.807C11.575 14.929 13.083 16 14.727 16C14.998 16 15.249 15.965 15.489 15.916C14.808 17.151 13.508 18 12 18Z" fill="#1A1A4D"/>
</g>
</svg>
