<svg width="24" height="24" viewBox="0 0 24 24" fill="none" xmlns="http://www.w3.org/2000/svg">
<g id="Category/Other" clip-path="url(#clip0_1659_3906)">
<path id="Vector" d="M23.9999 3.00096V6.00097C23.9999 6.79661 23.6838 7.55968 23.1212 8.12229C22.5586 8.68489 21.7956 9.00097 20.9999 9.00097H17.9999V7.00097H20.6359C19.8219 5.59485 18.6772 4.40848 17.3011 3.54468C15.925 2.68088 14.359 2.16571 12.7388 2.04384C11.1186 1.92197 9.49315 2.19706 8.0033 2.84528C6.51346 3.4935 5.20418 4.49528 4.18895 5.7638C3.17372 7.03231 2.48317 8.52928 2.17716 10.125C1.87115 11.7206 1.95891 13.3669 2.43283 14.921C2.90675 16.4751 3.75254 17.8901 4.89688 19.0435C6.04122 20.1969 7.44958 21.0538 8.9999 21.54V23.606C7.11583 23.1194 5.37845 22.1817 3.9377 20.8737C2.49694 19.5658 1.39608 17.9269 0.730109 16.0985C0.0641385 14.2701 -0.146938 12.3072 0.115095 10.379C0.377128 8.45084 1.1044 6.61539 2.23415 5.03104C3.3639 3.4467 4.8622 2.16104 6.59975 1.28503C8.3373 0.409009 10.2619 -0.0310612 12.2075 0.00279194C14.1531 0.0366451 16.0612 0.543405 17.7673 1.47934C19.4733 2.41528 20.926 3.75228 21.9999 5.37497V3.00096H23.9999ZM16.9999 18.001C16.9999 17.2053 16.6838 16.4423 16.1212 15.8796C15.5586 15.317 14.7955 15.001 13.9999 15.001C13.2043 15.001 12.4412 15.317 11.8786 15.8796C11.316 16.4423 10.9999 17.2053 10.9999 18.001H12.9999C12.9999 17.7357 13.1053 17.4814 13.2928 17.2939C13.4803 17.1063 13.7347 17.001 13.9999 17.001C14.2651 17.001 14.5195 17.1063 14.707 17.2939C14.8945 17.4814 14.9999 17.7357 14.9999 18.001C14.9999 18.501 14.1499 19.139 13.3999 19.701C12.2749 20.545 10.9999 21.501 10.9999 23.001V24.001H16.9999V22.001H13.7099C13.9809 21.765 14.2989 21.527 14.5999 21.301C15.7249 20.457 16.9999 19.501 16.9999 18.001ZM21.9999 19.001H19.9999V15.001H17.9999V19.001C17.9999 19.5314 18.2106 20.0401 18.5857 20.4152C18.9608 20.7903 19.4695 21.001 19.9999 21.001H21.9999V24.001H23.9999V15.001H21.9999V19.001ZM12.9999 6.00097H10.9999V11.001H6.9999V13.001H12.9999V6.00097Z" fill="#1A1A4D"/>
</g>
<defs>
<clipPath id="clip0_1659_3906">
<rect width="24" height="24" fill="white" transform="translate(0 0.000976562)"/>
</clipPath>
</defs>
</svg>
