<svg width="24" height="24" viewBox="0 0 24 24" fill="none" xmlns="http://www.w3.org/2000/svg">
<g id="Category/Other">
<path id="Vector" d="M24 10.001C24 7.24398 21.757 5.00098 19 5.00098H17V4.00098C17 2.34698 15.654 1.00098 14 1.00098H12V3.00098H14C14.552 3.00098 15 3.44998 15 4.00098V17.001H2V13.001H0V19.001H2.037C2.013 19.166 2 19.332 2 19.501C2 21.431 3.57 23.001 5.5 23.001C7.43 23.001 9 21.431 9 19.501C9 19.332 8.987 19.166 8.963 19.001H15.037C15.013 19.166 15 19.332 15 19.501C15 21.431 16.57 23.001 18.5 23.001C20.43 23.001 22 21.431 22 19.501C22 19.332 21.987 19.166 21.963 19.001H24V10.001ZM7 19.501C7 20.328 6.327 21.001 5.5 21.001C4.673 21.001 4 20.328 4 19.501C4 19.312 4.037 19.145 4.091 19.001H6.91C6.964 19.145 7 19.312 7 19.501ZM19 7.00098C20.654 7.00098 22 8.34698 22 10.001V11.001H17V7.00098H19ZM20 19.501C20 20.328 19.327 21.001 18.5 21.001C17.673 21.001 17 20.328 17 19.501C17 19.312 17.037 19.145 17.091 19.001H19.91C19.964 19.145 20 19.312 20 19.501ZM17 17.001V13.001H22V17.001H17ZM10 3.00098H0V1.00098H10V3.00098ZM8 7.00098H0V5.00098H8V7.00098ZM6 11.001H0V9.00098H6V11.001Z" fill="#1A1A4D"/>
</g>
</svg>
