<svg width="24" height="24" viewBox="0 0 24 24" fill="none" xmlns="http://www.w3.org/2000/svg">
<g id="Category/Other">
<path id="Vector" d="M23.6127 6.83498L22.2607 4.00898C21.9117 3.27898 21.2707 2.71298 20.5027 2.45698L14.2057 0.357977C12.7777 -0.118023 11.2057 -0.118023 9.77768 0.357977L3.48168 2.45698C2.71268 2.71298 2.07168 3.27998 1.72268 4.01098L0.436683 6.71798C-0.0403165 7.50998 -0.130317 8.45998 0.189683 9.32698C0.498683 10.167 1.15368 10.817 1.99168 11.123L1.98668 17.437C1.98468 19.595 3.35868 21.503 5.40468 22.185L9.76968 23.64C10.4837 23.878 11.2337 23.997 11.9837 23.997C12.7337 23.997 13.4837 23.878 14.1977 23.64L18.5667 22.183C20.6097 21.502 21.9837 19.598 21.9857 17.444L21.9907 11.124C22.8367 10.827 23.4987 10.178 23.8097 9.33398C24.1267 8.47598 24.0387 7.53498 23.6127 6.83498ZM10.4107 2.25598C11.4307 1.91598 12.5537 1.91598 13.5727 2.25598L17.8207 3.67198L11.9987 5.62198L6.16468 3.67198L10.4107 2.25598ZM2.19568 7.66498L3.52268 4.88298C3.57068 4.90798 10.5797 7.25598 10.5797 7.25598L8.95868 10.514C8.71968 10.912 8.22368 11.096 7.78568 10.948L2.70468 9.25498C2.40768 9.15598 2.17468 8.92998 2.06568 8.63598C1.95668 8.34198 1.98768 8.01998 2.19468 7.66598L2.19568 7.66498ZM6.03668 20.288C4.80868 19.879 3.98468 18.734 3.98568 17.44L3.99068 11.792L7.15268 12.846C8.49668 13.294 9.94468 12.759 10.7117 11.475L10.9897 10.918L10.9847 21.899C10.7877 21.859 10.5937 21.808 10.4037 21.744L6.03768 20.289L6.03668 20.288ZM17.9337 20.287L13.5637 21.744C13.3737 21.807 13.1797 21.859 12.9827 21.899L12.9877 10.904L13.3067 11.544C13.8627 12.472 14.8387 13.003 15.8677 13.003C16.1867 13.003 16.5107 12.952 16.8277 12.846L19.9887 11.793L19.9837 17.444C19.9837 18.736 19.1577 19.879 17.9317 20.288L17.9337 20.287ZM21.9337 8.64298C21.8287 8.92798 21.6027 9.14698 21.3147 9.24298L16.1967 10.949C15.7587 11.096 15.2627 10.914 15.0607 10.584L13.4057 7.26098C13.4057 7.26098 20.4117 4.90998 20.4597 4.88398L21.8527 7.78498C22.0097 8.04598 22.0387 8.35898 21.9337 8.64398V8.64298Z" fill="#1A1A4D"/>
</g>
</svg>
