<svg width="24" height="24" viewBox="0 0 24 24" fill="none" xmlns="http://www.w3.org/2000/svg">
<g id="Category/Other" clip-path="url(#clip0_1659_3912)">
<path id="Vector" d="M24 18.001C24 16.707 23.759 16.159 23.395 15.33C23.323 15.165 21.936 11.847 21.936 11.847C21.469 10.726 20.382 10.001 19.167 10.001H18.781L18.565 9.13795C18.398 8.46895 17.799 8.00095 17.11 8.00095H14.891C14.202 8.00095 13.603 8.46895 13.436 9.13795L13.22 10.001H12.834C11.619 10.001 10.532 10.726 10.065 11.847L8.847 14.771C8.285 16.118 8 17.542 8 19.001V22.001H10V24.001H14V22.001H18V24.001H22V22.001H24V18.001ZM12.833 12.001H19.167C19.571 12.001 19.934 12.242 20.09 12.616L21.083 15.001H10.917L11.91 12.616C12.066 12.242 12.429 12.001 12.833 12.001ZM22 20.001H10V19.001C10 18.323 10.076 17.654 10.225 17.001H12V18.001C12 18.554 12.447 19.001 13 19.001C13.553 19.001 14 18.554 14 18.001V17.001H18V18.001C18 18.554 18.447 19.001 19 19.001C19.553 19.001 20 18.554 20 18.001V17.001H21.899C21.971 17.271 22 17.554 22 18.001V20.001ZM7.417 13.001C7.417 13.001 8.245 11.028 8.257 11.001H4V6.00095H9V9.79095C9.535 9.14995 10.226 8.66595 11 8.36095V6.00095H18V4.18495C18 3.03695 17.336 1.97595 16.309 1.48495C14.899 0.807953 12.659 0.00195312 10 0.00195312C7.341 0.00195312 5.102 0.807953 3.692 1.48295C2.664 1.97495 2 3.03595 2 4.18395V8.99995H0V11C0 12.105 0.895 13 2 13V19H4V21H6V17H4V13H7.417V13.001ZM4.557 3.28695C5.781 2.69995 7.718 2.00095 10 2.00095C12.282 2.00095 14.22 2.69995 15.444 3.28795C15.726 3.42295 15.925 3.69195 15.983 4.00095H4.017C4.075 3.69195 4.274 3.42295 4.557 3.28695Z" fill="#1A1A4D"/>
</g>
<defs>
<clipPath id="clip0_1659_3912">
<rect width="24" height="24" fill="white" transform="translate(0 0.000976562)"/>
</clipPath>
</defs>
</svg>
