<svg width="24" height="24" viewBox="0 0 24 24" fill="none" xmlns="http://www.w3.org/2000/svg">
<g id="Category/Other" clip-path="url(#clip0_1659_3900)">
<path id="Vector" d="M19 5.00098H16.923C16.683 3.63398 15.885 2.42298 14.687 1.65798C14.22 1.35998 13.603 1.49698 13.306 1.96298C13.009 2.42898 13.145 3.04698 13.611 3.34398C14.48 3.89898 15 4.84498 15 5.87498V17.001H4C2.897 17.001 2 16.104 2 15.001V14.001C2 13.449 1.553 13.001 1 13.001C0.447 13.001 0 13.449 0 14.001V15.001C0 16.881 1.304 18.462 3.055 18.888C3.019 19.089 3 19.294 3 19.501C3 21.431 4.57 23.001 6.5 23.001C8.43 23.001 10 21.431 10 19.501C10 19.332 9.987 19.166 9.963 19.001H14.037C14.013 19.166 14 19.332 14 19.501C14 21.431 15.57 23.001 17.5 23.001C19.43 23.001 21 21.431 21 19.501C21 19.294 20.981 19.089 20.945 18.888C22.696 18.462 24 16.881 24 15.001V10.001C24 7.24398 21.757 5.00098 19 5.00098ZM6.5 21.001C5.673 21.001 5 20.328 5 19.501C5 19.312 5.037 19.145 5.091 19.001H7.91C7.964 19.145 8.001 19.312 8.001 19.501C8.001 20.328 7.327 21.001 6.5 21.001ZM17.5 21.001C16.673 21.001 16 20.328 16 19.501C16 19.312 16.037 19.145 16.091 19.001H18.91C18.964 19.145 19.001 19.312 19.001 19.501C19.001 20.328 18.327 21.001 17.5 21.001ZM22 15.001C22 16.104 21.103 17.001 20 17.001H17V13.001H22V15.001ZM22 11.001H17V7.00098H19C20.654 7.00098 22 8.34698 22 10.001V11.001ZM5.293 6.70798C5.105 6.51998 5 6.26598 5 6.00098V4.00098C5 3.44898 5.447 3.00098 6 3.00098C6.553 3.00098 7 3.44898 7 4.00098V5.58698L7.707 6.29398C8.098 6.68498 8.098 7.31698 7.707 7.70798C7.512 7.90298 7.256 8.00098 7 8.00098C6.744 8.00098 6.488 7.90298 6.293 7.70798L5.293 6.70798ZM6 12.001C9.309 12.001 12 9.30998 12 6.00098C12 2.69198 9.309 0.000976562 6 0.000976562C2.691 0.000976562 0 2.69198 0 6.00098C0 9.30998 2.691 12.001 6 12.001ZM6 2.00098C8.206 2.00098 10 3.79498 10 6.00098C10 8.20698 8.206 10.001 6 10.001C3.794 10.001 2 8.20698 2 6.00098C2 3.79498 3.794 2.00098 6 2.00098Z" fill="#1A1A4D"/>
</g>
<defs>
<clipPath id="clip0_1659_3900">
<rect width="24" height="24" fill="white" transform="translate(0 0.000976562)"/>
</clipPath>
</defs>
</svg>
