<svg width="24" height="24" viewBox="0 0 24 24" fill="none" xmlns="http://www.w3.org/2000/svg">
<g id="Category/Transportation">
<path id="Vector" d="M20.5 15C18.57 15 17 16.57 17 18.5C17 20.43 18.57 22 20.5 22C22.43 22 24 20.43 24 18.5C24 16.57 22.43 15 20.5 15ZM23 13C23.553 13 24 12.552 24 12C24 11.448 23.553 11 23 11H20.5C20.232 11 19.966 11.018 19.703 11.049L18.027 6.737C18.316 6.9 18.645 7 19.001 7C19.553 7 20.001 6.552 20.001 6V4C20.001 3.448 19.553 3 19.001 3C18.108 3 17.361 3.589 17.104 4.397C16.465 2.939 15.053 2 13.449 2H13.001C12.448 2 12.001 2.448 12.001 3C12.001 3.552 12.448 4 13.001 4H13.449C14.266 4 15.015 4.513 15.313 5.275L17.76 11.567C16.828 11.966 15.977 12.563 15.276 13.342L13.635 15.289C13.254 15.741 12.697 16 12.106 16H11.877L9.683 10.515C9.073 8.987 7.615 8 5.969 8H4C1.794 8 0 9.794 0 12V14C0 15.533 0.877 16.852 2.146 17.523C2.055 17.838 2 18.164 2 18.5C2 20.43 3.57 22 5.5 22C7.43 22 9 20.43 9 18.5C9 18.331 8.984 18.165 8.96 18H12.105C13.287 18 14.402 17.482 15.164 16.578L16.783 14.655C17.73 13.603 19.085 13 20.5 13H23ZM4 16C2.897 16 2 15.103 2 14V12C2 10.897 2.897 10 4 10H5.969C6.791 10 7.521 10.493 7.825 11.257L9.722 16H4Z" fill="#1A1A4D"/>
</g>
</svg>
