<svg width="24" height="24" viewBox="0 0 24 24" fill="none" xmlns="http://www.w3.org/2000/svg">
<g id="Category/Transportation">
<path id="Vector" d="M23.598 11.718L20.897 4.29102C20.182 2.32202 18.294 0.999023 16.199 0.999023H7.802C5.706 0.999023 3.819 2.32202 3.104 4.29002L0.402 11.718C0.135 12.451 0 13.218 0 14V15C0 16.629 0.795 18.065 2.004 18.978C2.004 18.986 2 18.992 2 19V21C2 22.654 3.346 24 5 24C6.654 24 8 22.654 8 21V20H16V21C16 22.654 17.346 24 19 24C20.654 24 22 22.654 22 21V19C22 18.992 21.996 18.986 21.996 18.978C23.206 18.065 24 16.629 24 15V14C24 13.218 23.864 12.451 23.598 11.718ZM4.982 4.97402C5.412 3.79302 6.544 3.00002 7.801 3.00002H16.197C17.454 3.00002 18.587 3.79302 19.016 4.97502L20.48 9.00002H3.518L4.982 4.97402ZM6 21C6 21.551 5.552 22 5 22C4.448 22 4 21.551 4 21V19.899C4.323 19.965 4.658 20 5 20H6V21ZM20 21C20 21.551 19.552 22 19 22C18.448 22 18 21.551 18 21V20H19C19.342 20 19.677 19.965 20 19.899V21ZM19 18H16V17C16 16.448 15.553 16 15 16H9C8.447 16 8 16.448 8 17V18H5C3.346 18 2 16.654 2 15H4C4.553 15 5 14.552 5 14C5 13.448 4.553 13 4 13H2.121C2.165 12.799 2.21 12.597 2.281 12.402L2.791 11H21.209L21.719 12.402C21.79 12.597 21.835 12.798 21.879 13H20C19.447 13 19 13.448 19 14C19 14.552 19.447 15 20 15H22C22 16.654 20.654 18 19 18Z" fill="#1A1A4D"/>
</g>
</svg>
