<svg width="24" height="24" viewBox="0 0 24 24" fill="none" xmlns="http://www.w3.org/2000/svg">
<g id="Category/Transportation" clip-path="url(#clip0_1655_3796)">
<path id="Vector" d="M12 0C5.383 0 0 5.383 0 12C0 18.617 5.383 24 12 24C18.617 24 24 18.617 24 12C24 5.383 18.617 0 12 0ZM12 22C6.486 22 2 17.514 2 12C2 10.506 2.33 9.088 2.92 7.813L5 10H8L9 11V13L11 15V19H13L16 12.5L12 10H9.5L8 8.5L9.5 7L11.5 8L12.5 7L11 4.5C11 4.5 11.738 3.352 12.616 2.02C15.888 2.22 18.741 4 20.417 6.606L18 8L19 12L21.896 13.438C21.197 18.273 17.025 22 12 22Z" fill="#1A1A4D"/>
</g>
<defs>
<clipPath id="clip0_1655_3796">
<rect width="24" height="24" fill="white"/>
</clipPath>
</defs>
</svg>
