<svg width="24" height="24" viewBox="0 0 24 24" fill="none" xmlns="http://www.w3.org/2000/svg">
<g id="Category/Transportation" clip-path="url(#clip0_1655_3798)">
<path id="Vector" d="M17 12V13H14.5L12.589 15.421C12.394 15.778 12.02 16 11.614 16H10.501L11.668 13H9.651L8.105 11.167C7.808 10.647 8.183 10 8.782 10C8.989 10 9.187 10.082 9.333 10.228L10.443 11H11.684L10.5 8H11.596C12.003 8 12.377 8.222 12.571 8.579L14.5 11H15.75C16.552 11 17 11.448 17 12ZM21 12C21 13.103 21.897 14 23 14H24V18C24 19.654 22.654 21 21 21H3C1.346 21 0 19.654 0 18V6C0 4.346 1.346 3 3 3H21C22.654 3 24 4.346 24 6V10H23C21.897 10 21 10.897 21 12ZM19 12C19 10.14 20.276 8.571 22 8.127V6C22 5.448 21.552 5 21 5H6V7H4V5H3C2.448 5 2 5.448 2 6V18C2 18.552 2.448 19 3 19H4V17H6V19H21C21.552 19 22 18.552 22 18V15.873C20.276 15.429 19 13.86 19 12ZM4 11H6V9H4V11ZM4 15H6V13H4V15Z" fill="#1A1A4D"/>
</g>
<defs>
<clipPath id="clip0_1655_3798">
<rect width="24" height="24" fill="white"/>
</clipPath>
</defs>
</svg>
