<svg width="24" height="24" viewBox="0 0 24 24" fill="none" xmlns="http://www.w3.org/2000/svg">
<g id="Category/Transportation" clip-path="url(#clip0_1655_3800)">
<path id="Vector" d="M17 0H7C5.67441 0.00158786 4.40356 0.528882 3.46622 1.46622C2.52888 2.40356 2.00159 3.67441 2 5V14C2.00161 15.1985 2.43296 16.3566 3.21572 17.2642C3.99849 18.1717 5.08075 18.7684 6.266 18.946L4.143 22.485C4.01208 22.712 3.97553 22.9814 4.04121 23.2351C4.1069 23.4889 4.26957 23.7067 4.49422 23.8417C4.71886 23.9767 4.98753 24.0181 5.2424 23.957C5.49727 23.8959 5.71797 23.7372 5.857 23.515L8.566 19H15.434L18.143 23.515C18.282 23.7372 18.5027 23.8959 18.7576 23.957C19.0125 24.0181 19.2811 23.9767 19.5058 23.8417C19.7304 23.7067 19.8931 23.4889 19.9588 23.2351C20.0245 22.9814 19.9879 22.712 19.857 22.485L17.734 18.946C18.9192 18.7684 20.0015 18.1717 20.7843 17.2642C21.567 16.3566 21.9984 15.1985 22 14V5C21.9984 3.67441 21.4711 2.40356 20.5338 1.46622C19.5964 0.528882 18.3256 0.00158786 17 0ZM13 11V6H20V11H13ZM4 11V6H11V11H4ZM7 2H17C17.6203 2.00009 18.2253 2.19246 18.7318 2.55063C19.2383 2.90881 19.6212 3.41517 19.828 4H4.172C4.37877 3.41517 4.76175 2.90881 5.2682 2.55063C5.77466 2.19246 6.37969 2.00009 7 2ZM17 17H7C6.20435 17 5.44129 16.6839 4.87868 16.1213C4.31607 15.5587 4 14.7956 4 14V13H6V14C6 14.2652 6.10536 14.5196 6.29289 14.7071C6.48043 14.8946 6.73478 15 7 15C7.26522 15 7.51957 14.8946 7.70711 14.7071C7.89464 14.5196 8 14.2652 8 14V13H16V14C16 14.2652 16.1054 14.5196 16.2929 14.7071C16.4804 14.8946 16.7348 15 17 15C17.2652 15 17.5196 14.8946 17.7071 14.7071C17.8946 14.5196 18 14.2652 18 14V13H20V14C20 14.7956 19.6839 15.5587 19.1213 16.1213C18.5587 16.6839 17.7956 17 17 17Z" fill="#1A1A4D"/>
</g>
<defs>
<clipPath id="clip0_1655_3800">
<rect width="24" height="24" fill="white"/>
</clipPath>
</defs>
</svg>
