<svg width="24" height="24" viewBox="0 0 24 24" fill="none" xmlns="http://www.w3.org/2000/svg">
<g id="Category/Transportation" clip-path="url(#clip0_1655_3790)">
<path id="Vector" d="M1.067 15.411L3.142 16.888C4.204 17.643 5.459 18.028 6.714 18.028C7.607 18.028 8.501 17.833 9.326 17.438L22.279 11.74C23.765 11.03 24.412 9.23599 23.72 7.73999C23.026 6.24299 21.245 5.58799 19.744 6.27499L16.601 7.67699L9.982 3.59099C9.1 2.93499 7.932 2.81699 6.93 3.27999L6.149 3.64599C5.538 3.93299 5.116 4.50299 5.02 5.17099C4.924 5.83999 5.168 6.50599 5.674 6.95399L9.878 10.674L6.287 12.276L3.23 11.154C2.246 10.795 1.146 11.113 0.495 11.945C0.103 12.446 -0.061 13.077 0.033 13.721C0.132 14.398 0.508 15.013 1.066 15.409L1.067 15.411ZM7 5.45699L7.776 5.09299C8.108 4.93899 8.497 4.97999 8.861 5.24399L14.392 8.66199L11.886 9.77999L7 5.45699ZM2.071 13.179C2.169 13.054 2.295 13.01 2.405 13.01C2.455 13.01 5.979 14.295 5.979 14.295C6.224 14.385 6.494 14.376 6.731 14.27L20.564 8.09899L20.577 8.093C21.078 7.862 21.673 8.08099 21.905 8.57999C22.139 9.08699 21.921 9.69399 21.445 9.92199L8.492 15.62C7.135 16.267 5.528 16.13 4.301 15.258L2.226 13.782C2.112 13.701 2.033 13.571 2.013 13.434C1.998 13.332 2.018 13.247 2.071 13.179ZM24 23C24 23.553 23.552 24 23 24H1C0.448 24 0 23.553 0 23C0 22.447 0.448 22 1 22H23C23.552 22 24 22.447 24 23Z" fill="#1A1A4D"/>
</g>
<defs>
<clipPath id="clip0_1655_3790">
<rect width="24" height="24" fill="white"/>
</clipPath>
</defs>
</svg>
